<?xml version="1.0" encoding="UTF-8" standalone="no"?>
<svg
   xmlns:dc="http://purl.org/dc/elements/1.1/"
   xmlns:cc="http://creativecommons.org/ns#"
   xmlns:rdf="http://www.w3.org/1999/02/22-rdf-syntax-ns#"
   xmlns:svg="http://www.w3.org/2000/svg"
   xmlns="http://www.w3.org/2000/svg"
   xmlns:sodipodi="http://sodipodi.sourceforge.net/DTD/sodipodi-0.dtd"
   xmlns:inkscape="http://www.inkscape.org/namespaces/inkscape"
   width="525"
   height="380"
   viewBox="0 0 525 380"
   version="1.1"
   id="svg237"
   sodipodi:docname="GateSeq.svg"
   inkscape:version="0.92.2 5c3e80d, 2017-08-06">
  <metadata
     id="metadata243">
    <rdf:RDF>
      <cc:Work
         rdf:about="">
        <dc:format>image/svg+xml</dc:format>
        <dc:type
           rdf:resource="http://purl.org/dc/dcmitype/StillImage" />
      </cc:Work>
    </rdf:RDF>
  </metadata>
  <defs
     id="defs241" />
  <sodipodi:namedview
     pagecolor="#ffffff"
     bordercolor="#666666"
     borderopacity="1"
     objecttolerance="10"
     gridtolerance="10"
     guidetolerance="10"
     inkscape:pageopacity="0"
     inkscape:pageshadow="2"
     inkscape:window-width="1130"
     inkscape:window-height="1026"
     id="namedview239"
     showgrid="false"
     inkscape:zoom="0.54857143"
     inkscape:cx="364.58333"
     inkscape:cy="190"
     inkscape:window-x="0"
     inkscape:window-y="0"
     inkscape:window-maximized="0"
     inkscape:current-layer="svg4541" />
  <title
     id="title2">GateSeq</title>
  <g
     id="svg4541">
    <path
       id="path25077"
       d="M0,0H525V380H0Z"
       transform="translate(0 0)"
       style="fill:#e3ebf2;fill-opacity:1" />
    <path
       id="path27449"
       d="M30.16,133.35H489.84"
       transform="translate(0 0)"
       style="fill: none;stroke: #000;stroke-linecap: round;stroke-linejoin: round;stroke-width: 0.6005637645721436px" />
    <path
       id="path27911"
       d="M30.69,75.52V116.3"
       transform="translate(0 0)"
       style="fill: none;stroke: #000;stroke-linecap: round;stroke-linejoin: round;stroke-width: 0.4792763292789459px" />
    <path
       id="path27915"
       d="M107.58,69.61v40.78"
       transform="translate(0 0)"
       style="fill: none;stroke: #000;stroke-linecap: round;stroke-linejoin: round;stroke-width: 0.4792763292789459px" />
    <path
       id="path27449-8"
       d="M261,355.72V147.33"
       transform="translate(0 0)"
       style="fill: none;stroke: #000;stroke-linecap: round;stroke-linejoin: round;stroke-width: 0.4043605923652649px" />
  </g>
  <g
     id="Layer_3"
     data-name="Layer 3">
    <path
       d="M69.64,143.39l.54-.25q.28-.14.55-.31t.52-.35a3.52,3.52,0,0,0,.45-.39h.94v6.24H71.3v-4.49a4.11,4.11,0,0,1-.6.33q-.33.15-.65.26Z"
       transform="translate(0 0)"
       style="fill: #143649"
       id="path10" />
    <path
       d="M98.55,143.73a1.65,1.65,0,0,1-.13.66,3,3,0,0,1-.35.61,5,5,0,0,1-.49.56l-.53.51-.29.28-.3.32-.26.3a.75.75,0,0,0-.14.23h2.68v1.13H94.59a1.43,1.43,0,0,1,0-.25v-.22a2.17,2.17,0,0,1,.14-.79,3,3,0,0,1,.36-.67,4.22,4.22,0,0,1,.51-.58l.56-.54.41-.39a4.48,4.48,0,0,0,.33-.36,1.66,1.66,0,0,0,.23-.35.85.85,0,0,0,.08-.36.64.64,0,0,0-.23-.56.93.93,0,0,0-.56-.16,1.32,1.32,0,0,0-.45.08,2.28,2.28,0,0,0-.39.18,2.42,2.42,0,0,0-.3.21l-.19.17-.67-.94a3.42,3.42,0,0,1,.92-.61,2.71,2.71,0,0,1,1.13-.24,3.14,3.14,0,0,1,.94.13,1.76,1.76,0,0,1,.65.36,1.37,1.37,0,0,1,.38.56A2.13,2.13,0,0,1,98.55,143.73Z"
       transform="translate(0 0)"
       style="fill: #143649"
       id="path12" />
    <path
       d="M121.22,148.46a4.44,4.44,0,0,1-.51,0l-.52-.09-.46-.12-.32-.12.26-1.12q.23.1.6.21a3.1,3.1,0,0,0,.9.11,1.43,1.43,0,0,0,.91-.23.77.77,0,0,0,.29-.63.76.76,0,0,0-.1-.41.79.79,0,0,0-.28-.27,1.25,1.25,0,0,0-.43-.14,3.22,3.22,0,0,0-.53,0h-.52v-1.08h.59a2,2,0,0,0,.38,0,1,1,0,0,0,.33-.12.64.64,0,0,0,.23-.23.74.74,0,0,0,.09-.37.59.59,0,0,0-.07-.3.64.64,0,0,0-.18-.21.79.79,0,0,0-.26-.12,1.15,1.15,0,0,0-.3,0,2.11,2.11,0,0,0-.72.12,3,3,0,0,0-.6.29l-.48-1,.34-.19a3.28,3.28,0,0,1,.43-.18,3.92,3.92,0,0,1,.5-.14,2.85,2.85,0,0,1,.56-.05,3.08,3.08,0,0,1,.95.13,1.79,1.79,0,0,1,.66.37,1.48,1.48,0,0,1,.39.56,1.88,1.88,0,0,1,.13.7,1.43,1.43,0,0,1-.77,1.24,1.62,1.62,0,0,1,.75.59,1.64,1.64,0,0,1,.27.94,2.15,2.15,0,0,1-.14.8,1.61,1.61,0,0,1-.45.63,2.16,2.16,0,0,1-.78.41A3.75,3.75,0,0,1,121.22,148.46Z"
       transform="translate(0 0)"
       style="fill: #143649"
       id="path14" />
    <path
       d="M148.43,142.09v3.74h.67v1.1h-.67v1.4h-1.31v-1.4h-2.69v-1q.2-.4.49-.9t.66-1q.36-.53.77-1a11.26,11.26,0,0,1,.81-.91Zm-1.31,1.64-.75,1a6.86,6.86,0,0,0-.67,1.11h1.41Z"
       transform="translate(0 0)"
       style="fill: #143649"
       id="path16" />
    <path
       d="M172.56,146.49a.91.91,0,0,0-.12-.46.88.88,0,0,0-.41-.34,2.86,2.86,0,0,0-.77-.21,8.62,8.62,0,0,0-1.22-.07q.1-.84.16-1.7t.1-1.62h3.38v1.13h-2.25q0,.32,0,.63c0,.2,0,.38,0,.53a3.34,3.34,0,0,1,1.94.62,1.81,1.81,0,0,1,.63,1.46,2.08,2.08,0,0,1-.15.8,1.73,1.73,0,0,1-.46.64,2.19,2.19,0,0,1-.77.42,3.47,3.47,0,0,1-1.08.15,4.32,4.32,0,0,1-.51,0l-.51-.08-.45-.1a1.75,1.75,0,0,1-.31-.11l.24-1.11a4,4,0,0,0,.59.19,3.59,3.59,0,0,0,.88.09,1.34,1.34,0,0,0,.9-.25A.75.75,0,0,0,172.56,146.49Z"
       transform="translate(0 0)"
       style="fill: #143649"
       id="path18" />
    <path
       d="M197,144.35a2.78,2.78,0,0,1,1,.16,1.82,1.82,0,0,1,.67.43,1.61,1.61,0,0,1,.38.63,2.47,2.47,0,0,1,.12.77,2.26,2.26,0,0,1-.13.74,2.06,2.06,0,0,1-.4.68,2.08,2.08,0,0,1-.67.5,2.21,2.21,0,0,1-1,.2,2.09,2.09,0,0,1-1.71-.71,3,3,0,0,1-.58-2,4.24,4.24,0,0,1,.28-1.59,3.14,3.14,0,0,1,.8-1.17,3.47,3.47,0,0,1,1.25-.72,5.32,5.32,0,0,1,1.65-.26l0,.54q0,.27,0,.55a5.18,5.18,0,0,0-.86.09,2.87,2.87,0,0,0-.73.24,2,2,0,0,0-.57.42,1.78,1.78,0,0,0-.38.63,1.65,1.65,0,0,1,.4-.13A2.28,2.28,0,0,1,197,144.35Zm-.17,1a2.69,2.69,0,0,0-.42,0,1.25,1.25,0,0,0-.35.1s0,.06,0,.11,0,.09,0,.13a3.93,3.93,0,0,0,0,.61,1.71,1.71,0,0,0,.15.5.86.86,0,0,0,.29.34.79.79,0,0,0,.45.12.73.73,0,0,0,.38-.09.87.87,0,0,0,.26-.24,1,1,0,0,0,.15-.32,1.25,1.25,0,0,0,0-.34,1,1,0,0,0-.23-.71A1,1,0,0,0,196.86,145.4Z"
       transform="translate(0 0)"
       style="fill: #143649"
       id="path20" />
    <path
       d="M220.75,148.33A9.07,9.07,0,0,1,221,147a13.07,13.07,0,0,1,.42-1.4,11.82,11.82,0,0,1,.55-1.29,7.92,7.92,0,0,1,.62-1h-2.71v-1.14h4.36v1a6,6,0,0,0-.63.87,10.07,10.07,0,0,0-.66,1.26,11.73,11.73,0,0,0-.54,1.52,7.83,7.83,0,0,0-.28,1.62Z"
       transform="translate(0 0)"
       style="fill: #143649"
       id="path22" />
    <path
       d="M249.32,146.59a1.92,1.92,0,0,1-.14.74,1.62,1.62,0,0,1-.42.59,1.94,1.94,0,0,1-.7.39,3.07,3.07,0,0,1-1,.14,2.72,2.72,0,0,1-1-.18,2,2,0,0,1-.67-.44,1.53,1.53,0,0,1-.36-.57,1.76,1.76,0,0,1-.11-.57,1.62,1.62,0,0,1,.07-.5,1.58,1.58,0,0,1,.2-.41,2.2,2.2,0,0,1,.28-.34,3.52,3.52,0,0,1,.34-.29,2.48,2.48,0,0,1-.57-.62,1.49,1.49,0,0,1-.18-.78,1.68,1.68,0,0,1,.15-.69,1.74,1.74,0,0,1,.42-.58,2,2,0,0,1,.65-.4,2.33,2.33,0,0,1,.85-.15,2.52,2.52,0,0,1,.94.16,2,2,0,0,1,.64.4,1.46,1.46,0,0,1,.36.54,1.69,1.69,0,0,1,.11.6,1.51,1.51,0,0,1-.23.8,1.79,1.79,0,0,1-.57.59,2.28,2.28,0,0,1,.73.7A1.61,1.61,0,0,1,249.32,146.59Zm-3.11.05a.71.71,0,0,0,.21.48.86.86,0,0,0,.28.18,1.06,1.06,0,0,0,.41.07.91.91,0,0,0,.68-.23.73.73,0,0,0,.12-.87,1,1,0,0,0-.26-.28,1.87,1.87,0,0,0-.38-.22l-.47-.18a1.84,1.84,0,0,0-.42.44A1.05,1.05,0,0,0,246.21,146.64Zm1.67-3a.61.61,0,0,0,0-.21.59.59,0,0,0-.13-.21.78.78,0,0,0-.24-.17.83.83,0,0,0-.35-.07.85.85,0,0,0-.34.06.7.7,0,0,0-.38.39.61.61,0,0,0,0,.22.82.82,0,0,0,.21.54,1.64,1.64,0,0,0,.72.43,1.4,1.4,0,0,0,.44-.41A1,1,0,0,0,247.87,143.68Z"
       transform="translate(0 0)"
       style="fill: #143649"
       id="path24" />
    <path
       d="M272.88,145.85a1.61,1.61,0,0,1-.42.13,2.27,2.27,0,0,1-.39,0,3.16,3.16,0,0,1-1-.14,1.78,1.78,0,0,1-.68-.4,1.57,1.57,0,0,1-.39-.62,2.42,2.42,0,0,1,0-1.53,2,2,0,0,1,.38-.69,2.07,2.07,0,0,1,.66-.51,2.47,2.47,0,0,1,2.72.51,3.16,3.16,0,0,1,.59,2.06,4.85,4.85,0,0,1-.23,1.56,2.78,2.78,0,0,1-.71,1.13,3.13,3.13,0,0,1-1.23.7,6,6,0,0,1-1.77.25q0-.29,0-.56l0-.56a6.5,6.5,0,0,0,.93-.08,2.55,2.55,0,0,0,.73-.23,1.68,1.68,0,0,0,.54-.42A1.91,1.91,0,0,0,272.88,145.85Zm-.66-.87a2.41,2.41,0,0,0,.43,0,.91.91,0,0,0,.33-.11v-.08a.44.44,0,0,1,0-.07.52.52,0,0,0,0-.06,4.65,4.65,0,0,0-.05-.61,1.65,1.65,0,0,0-.15-.49.85.85,0,0,0-.29-.33.81.81,0,0,0-.46-.12.75.75,0,0,0-.64.32,1.08,1.08,0,0,0-.15.32,1.18,1.18,0,0,0,0,.33,1,1,0,0,0,.24.72A1.08,1.08,0,0,0,272.23,145Z"
       transform="translate(0 0)"
       style="fill: #143649"
       id="path26" />
    <g
       id="g32">
      <path
         d="M292.78,143.39l.54-.25q.28-.14.55-.31t.52-.35a3.52,3.52,0,0,0,.45-.39h.94v6.24h-1.34v-4.49a4.08,4.08,0,0,1-.6.33q-.33.15-.65.26Z"
         transform="translate(0 0)"
         style="fill: #143649"
         id="path28" />
      <path
         d="M302.06,145.2a4.13,4.13,0,0,1-.6,2.42,2,2,0,0,1-3.3,0,4.13,4.13,0,0,1-.6-2.42,5.53,5.53,0,0,1,.16-1.39,3.06,3.06,0,0,1,.46-1,2,2,0,0,1,.71-.63,2,2,0,0,1,.93-.22,1.91,1.91,0,0,1,1.65.84A4.12,4.12,0,0,1,302.06,145.2Zm-1.37,0a7.26,7.26,0,0,0,0-.85,3.12,3.12,0,0,0-.14-.66,1,1,0,0,0-.27-.43.61.61,0,0,0-.42-.15.59.59,0,0,0-.42.15,1.09,1.09,0,0,0-.27.43,2.88,2.88,0,0,0-.15.66,7.26,7.26,0,0,0,0,.85,7.38,7.38,0,0,0,0,.85,2.88,2.88,0,0,0,.15.67,1.08,1.08,0,0,0,.27.43.59.59,0,0,0,.42.15.61.61,0,0,0,.42-.15,1,1,0,0,0,.27-.43,3.12,3.12,0,0,0,.14-.67A7.38,7.38,0,0,0,300.7,145.2Z"
         transform="translate(0 0)"
         style="fill: #143649"
         id="path30" />
    </g>
    <g
       id="g38">
      <path
         d="M317.85,143.39l.54-.25q.28-.14.55-.31c.18-.11.35-.23.52-.35a3.52,3.52,0,0,0,.45-.39h.94v6.24h-1.34v-4.49a4.14,4.14,0,0,1-.6.33q-.33.15-.65.26Z"
         transform="translate(0 0)"
         style="fill: #143649"
         id="path34" />
      <path
         d="M323,143.39l.54-.25q.28-.14.55-.31t.52-.35a3.52,3.52,0,0,0,.45-.39H326v6.24h-1.34v-4.49a4.08,4.08,0,0,1-.6.33q-.33.15-.65.26Z"
         transform="translate(0 0)"
         style="fill: #143649"
         id="path36" />
    </g>
    <g
       id="g44">
      <path
         d="M342.93,143.39l.54-.25q.28-.14.55-.31c.18-.11.35-.23.52-.35a3.52,3.52,0,0,0,.45-.39h.94v6.24h-1.34v-4.49a4.14,4.14,0,0,1-.6.33q-.33.15-.65.26Z"
         transform="translate(0 0)"
         style="fill: #143649"
         id="path40" />
      <path
         d="M351.88,143.73a1.65,1.65,0,0,1-.13.66,3,3,0,0,1-.35.61,5.1,5.1,0,0,1-.49.56l-.53.51-.29.28-.3.32-.26.3a.75.75,0,0,0-.14.23h2.68v1.13h-4.16a1.48,1.48,0,0,1,0-.25v-.22a2.16,2.16,0,0,1,.14-.79,2.93,2.93,0,0,1,.36-.67,4.22,4.22,0,0,1,.51-.58l.56-.54.41-.39a4.39,4.39,0,0,0,.33-.36,1.68,1.68,0,0,0,.23-.35.85.85,0,0,0,.08-.36.64.64,0,0,0-.23-.56.93.93,0,0,0-.56-.16,1.33,1.33,0,0,0-.46.08,2.31,2.31,0,0,0-.39.18,2.42,2.42,0,0,0-.3.21l-.19.17-.67-.94a3.41,3.41,0,0,1,.92-.61,2.71,2.71,0,0,1,1.13-.24,3.14,3.14,0,0,1,.95.13,1.76,1.76,0,0,1,.65.36,1.38,1.38,0,0,1,.38.56A2.13,2.13,0,0,1,351.88,143.73Z"
         transform="translate(0 0)"
         style="fill: #143649"
         id="path42" />
    </g>
    <g
       id="g50">
      <path
         d="M368,143.39l.54-.25q.28-.14.55-.31t.52-.35a3.52,3.52,0,0,0,.45-.39H371v6.24h-1.34v-4.49a4.08,4.08,0,0,1-.6.33q-.33.15-.65.26Z"
         transform="translate(0 0)"
         style="fill: #143649"
         id="path46" />
      <path
         d="M374.54,148.46a4.42,4.42,0,0,1-.51,0l-.52-.09-.46-.12-.32-.12L373,147c.16.07.36.14.6.21a3.11,3.11,0,0,0,.91.11,1.43,1.43,0,0,0,.91-.23.77.77,0,0,0,.29-.63.76.76,0,0,0-.1-.41.78.78,0,0,0-.28-.27,1.25,1.25,0,0,0-.43-.14,3.22,3.22,0,0,0-.53,0h-.52v-1.08h.59a2,2,0,0,0,.38,0,1,1,0,0,0,.33-.12.63.63,0,0,0,.23-.23.74.74,0,0,0,.09-.37.59.59,0,0,0-.07-.3.64.64,0,0,0-.18-.21.8.8,0,0,0-.26-.12,1.15,1.15,0,0,0-.3,0,2.12,2.12,0,0,0-.72.12,3,3,0,0,0-.6.29l-.48-1,.34-.19a3.27,3.27,0,0,1,.43-.18,3.93,3.93,0,0,1,.5-.14,2.84,2.84,0,0,1,.56-.05,3.08,3.08,0,0,1,.95.13,1.79,1.79,0,0,1,.66.37,1.48,1.48,0,0,1,.39.56,1.88,1.88,0,0,1,.13.7,1.43,1.43,0,0,1-.77,1.24,1.62,1.62,0,0,1,.75.59,1.64,1.64,0,0,1,.27.94,2.14,2.14,0,0,1-.14.8,1.61,1.61,0,0,1-.45.63,2.16,2.16,0,0,1-.78.41A3.75,3.75,0,0,1,374.54,148.46Z"
         transform="translate(0 0)"
         style="fill: #143649"
         id="path48" />
    </g>
    <g
       id="g56">
      <path
         d="M393.08,143.39l.54-.25q.28-.14.55-.31c.18-.11.35-.23.52-.35a3.52,3.52,0,0,0,.45-.39h.94v6.24h-1.34v-4.49a4.14,4.14,0,0,1-.6.33q-.33.15-.65.26Z"
         transform="translate(0 0)"
         style="fill: #143649"
         id="path52" />
      <path
         d="M401.75,142.09v3.74h.67v1.1h-.67v1.4h-1.31v-1.4h-2.69v-1q.2-.4.49-.9t.66-1q.36-.53.77-1a11.26,11.26,0,0,1,.81-.91Zm-1.31,1.64-.75,1a6.93,6.93,0,0,0-.67,1.11h1.41Z"
         transform="translate(0 0)"
         style="fill: #143649"
         id="path54" />
    </g>
    <g
       id="g62">
      <path
         d="M418.16,143.39l.54-.25q.28-.14.55-.31t.52-.35a3.52,3.52,0,0,0,.45-.39h.94v6.24h-1.34v-4.49a4.08,4.08,0,0,1-.6.33q-.33.15-.65.26Z"
         transform="translate(0 0)"
         style="fill: #143649"
         id="path58" />
      <path
         d="M425.88,146.49a.92.92,0,0,0-.12-.46.88.88,0,0,0-.41-.34,2.87,2.87,0,0,0-.77-.21,8.61,8.61,0,0,0-1.22-.07q.1-.84.16-1.7t.1-1.62H427v1.13h-2.25q0,.32,0,.63c0,.2,0,.38,0,.53a3.34,3.34,0,0,1,1.94.62,1.81,1.81,0,0,1,.63,1.46,2.08,2.08,0,0,1-.15.8,1.73,1.73,0,0,1-.46.64,2.19,2.19,0,0,1-.77.42,3.46,3.46,0,0,1-1.08.15,4.32,4.32,0,0,1-.51,0l-.51-.08-.45-.1a1.74,1.74,0,0,1-.31-.11l.24-1.11a3.93,3.93,0,0,0,.59.19,3.59,3.59,0,0,0,.88.09,1.34,1.34,0,0,0,.9-.25A.76.76,0,0,0,425.88,146.49Z"
         transform="translate(0 0)"
         style="fill: #143649"
         id="path60" />
    </g>
    <g
       id="g68">
      <path
         d="M443.24,143.39l.54-.25q.28-.14.55-.31t.52-.35a3.52,3.52,0,0,0,.45-.39h.94v6.24h-1.34v-4.49a4.08,4.08,0,0,1-.6.33q-.33.15-.65.26Z"
         transform="translate(0 0)"
         style="fill: #143649"
         id="path64" />
      <path
         d="M450.35,144.35a2.78,2.78,0,0,1,1,.16,1.82,1.82,0,0,1,.67.43,1.62,1.62,0,0,1,.38.63,2.46,2.46,0,0,1,.12.77,2.26,2.26,0,0,1-.13.74,2.06,2.06,0,0,1-.4.68,2.09,2.09,0,0,1-.67.5,2.21,2.21,0,0,1-1,.2,2.09,2.09,0,0,1-1.71-.71,3,3,0,0,1-.58-2,4.25,4.25,0,0,1,.28-1.59,3.15,3.15,0,0,1,.8-1.17,3.47,3.47,0,0,1,1.25-.72A5.33,5.33,0,0,1,452,142l0,.54c0,.18,0,.36,0,.55a5.18,5.18,0,0,0-.86.09,2.87,2.87,0,0,0-.73.24,2,2,0,0,0-.57.42,1.78,1.78,0,0,0-.38.63,1.65,1.65,0,0,1,.41-.13A2.27,2.27,0,0,1,450.35,144.35Zm-.17,1a2.69,2.69,0,0,0-.42,0,1.24,1.24,0,0,0-.35.1s0,.06,0,.11,0,.09,0,.13a3.93,3.93,0,0,0,0,.61,1.71,1.71,0,0,0,.15.5.86.86,0,0,0,.29.34.79.79,0,0,0,.45.12.73.73,0,0,0,.38-.09A.86.86,0,0,0,451,147a1,1,0,0,0,.15-.32,1.23,1.23,0,0,0,0-.34,1,1,0,0,0-.23-.71A1,1,0,0,0,450.18,145.4Z"
         transform="translate(0 0)"
         style="fill: #143649"
         id="path66" />
    </g>
    <path
       d="M17,148.83a3.37,3.37,0,0,1-2.58-.94,3.75,3.75,0,0,1-.88-2.67,4.1,4.1,0,0,1,.27-1.53,3.31,3.31,0,0,1,.74-1.14,3.1,3.1,0,0,1,1.12-.71,4,4,0,0,1,1.41-.24,4.5,4.5,0,0,1,.8.06,5.22,5.22,0,0,1,.63.15A3.17,3.17,0,0,1,19,142l.26.14-.45,1.26a3.79,3.79,0,0,0-.75-.29,3.55,3.55,0,0,0-1-.12,2.13,2.13,0,0,0-.71.12,1.6,1.6,0,0,0-.61.38,1.92,1.92,0,0,0-.43.69,2.88,2.88,0,0,0-.16,1,3.63,3.63,0,0,0,.1.9,1.89,1.89,0,0,0,.34.71,1.63,1.63,0,0,0,.62.48,2.19,2.19,0,0,0,.92.17,4.24,4.24,0,0,0,.61,0l.48-.1a2.5,2.5,0,0,0,.37-.12l.29-.13.43,1.25a3.64,3.64,0,0,1-.93.36A5.43,5.43,0,0,1,17,148.83Z"
       transform="translate(0 0)"
       style="fill: #143649"
       id="path70" />
    <path
       d="M41.44,141.68a4.34,4.34,0,0,1,2.38.54,2,2,0,0,1,.83,1.78,2,2,0,0,1-.84,1.81,4.35,4.35,0,0,1-2.4.56h-.49v2.32H39.36v-6.83a8.93,8.93,0,0,1,1.08-.14Q41,141.68,41.44,141.68Zm.1,1.33h-.33l-.29,0v2h.49a2.65,2.65,0,0,0,1.22-.22A.84.84,0,0,0,43,144a1,1,0,0,0-.1-.48.8.8,0,0,0-.3-.31,1.35,1.35,0,0,0-.48-.16A3.89,3.89,0,0,0,41.54,143Z"
       transform="translate(0 0)"
       style="fill: #143649"
       id="path72" />
    <path
       d="M504.66,141.68a4.33,4.33,0,0,1,2.38.54,2,2,0,0,1,.83,1.78,2,2,0,0,1-.84,1.81,4.34,4.34,0,0,1-2.4.56h-.49v2.32h-1.56v-6.83a8.94,8.94,0,0,1,1.08-.14C504,141.69,504.37,141.68,504.66,141.68Zm.1,1.33h-.33l-.29,0v2h.49a2.65,2.65,0,0,0,1.22-.22.84.84,0,0,0,.41-.82,1,1,0,0,0-.11-.48.8.8,0,0,0-.3-.31,1.34,1.34,0,0,0-.47-.16A3.9,3.9,0,0,0,504.76,143Z"
       transform="translate(0 0)"
       style="fill: #143649"
       id="path74" />
    <g
       id="g102">
      <path
         d="M209.06,14.78a3,3,0,0,0-2.52,1,4.12,4.12,0,0,0-.78,2.65,5.32,5.32,0,0,0,.19,1.48,3.25,3.25,0,0,0,.58,1.14,2.59,2.59,0,0,0,1,.74,3.19,3.19,0,0,0,1.34.26l.71,0a3.3,3.3,0,0,0,.52-.06V18.09h2.5v5.49a9.37,9.37,0,0,1-1.44.38,12.65,12.65,0,0,1-2.45.2,6.36,6.36,0,0,1-2.26-.38,4.73,4.73,0,0,1-1.74-1.12,5,5,0,0,1-1.11-1.81,7.1,7.1,0,0,1-.39-2.45,6.55,6.55,0,0,1,.43-2.46,5.31,5.31,0,0,1,1.18-1.82A5,5,0,0,1,206.56,13a6.08,6.08,0,0,1,2.17-.38,8.83,8.83,0,0,1,1.42.1,9.09,9.09,0,0,1,1.09.24,5.09,5.09,0,0,1,.75.28l.42.22-.72,2a6.52,6.52,0,0,0-1.18-.47A5,5,0,0,0,209.06,14.78Z"
         transform="translate(0 0)"
         style="fill: #143649"
         id="path76" />
      <path
         d="M217.75,15.31a5.51,5.51,0,0,1,1.76.24,2.73,2.73,0,0,1,1.13.69,2.53,2.53,0,0,1,.6,1.09,5.37,5.37,0,0,1,.18,1.42v5q-.51.11-1.42.26a13.66,13.66,0,0,1-2.21.15A7,7,0,0,1,216.3,24a3.22,3.22,0,0,1-1.14-.47,2.16,2.16,0,0,1-.74-.86,3,3,0,0,1-.26-1.3,2.46,2.46,0,0,1,.3-1.25,2.28,2.28,0,0,1,.79-.82,3.58,3.58,0,0,1,1.14-.44,6.39,6.39,0,0,1,1.33-.14,7.62,7.62,0,0,1,.82,0,3.72,3.72,0,0,1,.58.1v-.22a1.32,1.32,0,0,0-.37-1,1.78,1.78,0,0,0-1.28-.37,8.16,8.16,0,0,0-1.2.09,5.16,5.16,0,0,0-1,.25l-.3-1.92.52-.14.68-.13.78-.1Q217.33,15.31,217.75,15.31Zm.19,7,.67,0,.51,0V20.41l-.43-.06-.53,0a4.69,4.69,0,0,0-.63,0,1.64,1.64,0,0,0-.52.15.89.89,0,0,0-.35.3.85.85,0,0,0-.13.48.82.82,0,0,0,.38.78A2.08,2.08,0,0,0,217.94,22.28Z"
         transform="translate(0 0)"
         style="fill: #143649"
         id="path78" />
      <path
         d="M223.49,13.44l2.38-.38v2.48h2.86v2h-2.86v3a2.36,2.36,0,0,0,.26,1.2,1.13,1.13,0,0,0,1.06.45,4.57,4.57,0,0,0,.79-.07,4.07,4.07,0,0,0,.74-.2l.34,1.86a6.75,6.75,0,0,1-1,.3,5.59,5.59,0,0,1-1.3.13,4.27,4.27,0,0,1-1.62-.26,2.53,2.53,0,0,1-1-.74,2.74,2.74,0,0,1-.54-1.14,6.74,6.74,0,0,1-.15-1.49Z"
         transform="translate(0 0)"
         style="fill: #143649"
         id="path80" />
      <path
         d="M230,19.8a5.14,5.14,0,0,1,.34-2,4.21,4.21,0,0,1,.9-1.4,3.76,3.76,0,0,1,1.29-.85,4,4,0,0,1,1.5-.29,3.72,3.72,0,0,1,2.83,1.1,4.52,4.52,0,0,1,1,3.22q0,.21,0,.46c0,.17,0,.31,0,.44H232.4a1.58,1.58,0,0,0,.69,1.17,2.76,2.76,0,0,0,1.63.43A6.88,6.88,0,0,0,236,22a4.85,4.85,0,0,0,1-.3l.32,1.94a3.3,3.3,0,0,1-.51.19,6.84,6.84,0,0,1-.71.17q-.39.07-.84.12a8.35,8.35,0,0,1-.9,0,5.31,5.31,0,0,1-2-.34,3.85,3.85,0,0,1-1.39-.92,3.65,3.65,0,0,1-.82-1.38A5.49,5.49,0,0,1,230,19.8Zm5.6-.91a2.47,2.47,0,0,0-.1-.59,1.48,1.48,0,0,0-.27-.51,1.45,1.45,0,0,0-.46-.37,1.51,1.51,0,0,0-.7-.14,1.6,1.6,0,0,0-.69.14,1.42,1.42,0,0,0-.48.36,1.61,1.61,0,0,0-.3.52,3.44,3.44,0,0,0-.15.6Z"
         transform="translate(0 0)"
         style="fill: #143649"
         id="path82" />
      <path
         d="M246.72,22a3.58,3.58,0,0,0,.87-.09,1.59,1.59,0,0,0,.55-.24.8.8,0,0,0,.29-.36,1.29,1.29,0,0,0,.08-.46A1.07,1.07,0,0,0,248,20a7.31,7.31,0,0,0-1.76-.78q-.54-.19-1.09-.44a4,4,0,0,1-1-.62,3,3,0,0,1-.7-.91,2.85,2.85,0,0,1-.27-1.3,3.23,3.23,0,0,1,.29-1.38,3,3,0,0,1,.82-1,3.74,3.74,0,0,1,1.28-.66,5.74,5.74,0,0,1,1.7-.23,6.79,6.79,0,0,1,3.28.77l-.72,2a6.86,6.86,0,0,0-1-.42,4.49,4.49,0,0,0-1.37-.18,2.51,2.51,0,0,0-1.29.25.84.84,0,0,0-.39.76.88.88,0,0,0,.14.51,1.41,1.41,0,0,0,.41.38,3.56,3.56,0,0,0,.61.3l.76.28q.86.32,1.5.63a4,4,0,0,1,1.06.73,2.64,2.64,0,0,1,.63,1,3.92,3.92,0,0,1,.21,1.36A2.89,2.89,0,0,1,250,23.32a5.25,5.25,0,0,1-3.28.86,9.17,9.17,0,0,1-1.33-.09,8.6,8.6,0,0,1-1-.22,5.9,5.9,0,0,1-.78-.27,6,6,0,0,1-.55-.27l.7-2a6.26,6.26,0,0,0,1.22.49A6.35,6.35,0,0,0,246.72,22Z"
         transform="translate(0 0)"
         style="fill: #143649"
         id="path84" />
      <path
         d="M252.45,19.8a5.14,5.14,0,0,1,.34-2,4.21,4.21,0,0,1,.9-1.4A3.76,3.76,0,0,1,255,15.6a4,4,0,0,1,1.5-.29,3.72,3.72,0,0,1,2.83,1.1,4.52,4.52,0,0,1,1,3.22q0,.21,0,.46c0,.17,0,.31,0,.44H254.9a1.58,1.58,0,0,0,.69,1.17,2.76,2.76,0,0,0,1.63.43,6.88,6.88,0,0,0,1.29-.12,4.85,4.85,0,0,0,1-.3l.32,1.94a3.3,3.3,0,0,1-.51.19,6.84,6.84,0,0,1-.71.17q-.39.07-.84.12a8.35,8.35,0,0,1-.9,0,5.31,5.31,0,0,1-2-.34,3.85,3.85,0,0,1-1.39-.92,3.65,3.65,0,0,1-.82-1.38A5.49,5.49,0,0,1,252.45,19.8Zm5.6-.91a2.47,2.47,0,0,0-.1-.59,1.48,1.48,0,0,0-.27-.51,1.45,1.45,0,0,0-.46-.37,1.51,1.51,0,0,0-.7-.14,1.6,1.6,0,0,0-.69.14,1.42,1.42,0,0,0-.48.36,1.61,1.61,0,0,0-.3.52,3.44,3.44,0,0,0-.15.6Z"
         transform="translate(0 0)"
         style="fill: #143649"
         id="path86" />
      <path
         d="M261.8,19.74a5.15,5.15,0,0,1,.3-1.78,3.94,3.94,0,0,1,.86-1.39,3.78,3.78,0,0,1,1.38-.9,5.05,5.05,0,0,1,1.86-.32q.43,0,.9,0l.93.1c.3,0,.59.09.87.15s.52.12.74.18V26.91h-2.38V23.74a4.44,4.44,0,0,1-.83.27,4.28,4.28,0,0,1-.93.1,3.3,3.3,0,0,1-2.74-1.18A5,5,0,0,1,261.8,19.74Zm2.43.06q0,2.29,1.7,2.29a2.81,2.81,0,0,0,.73-.1,2.08,2.08,0,0,0,.58-.24v-4.3l-.45-.06-.59,0a1.72,1.72,0,0,0-1.47.66A2.88,2.88,0,0,0,264.23,19.8Z"
         transform="translate(0 0)"
         style="fill: #143649"
         id="path88" />
      <path
         d="M279,23.66a13.23,13.23,0,0,1-1.57.33,12.92,12.92,0,0,1-2,.15,4.78,4.78,0,0,1-1.78-.29,2.71,2.71,0,0,1-1.13-.81A3.14,3.14,0,0,1,272,21.8a6.68,6.68,0,0,1-.18-1.58V15.53h2.38v4.4a3.4,3.4,0,0,0,.3,1.66,1.21,1.21,0,0,0,1.14.51l.54,0,.51-.06v-6.5H279Z"
         transform="translate(0 0)"
         style="fill: #143649"
         id="path90" />
      <path
         d="M280.88,19.8a5.14,5.14,0,0,1,.34-2,4.21,4.21,0,0,1,.9-1.4,3.76,3.76,0,0,1,1.29-.85,4,4,0,0,1,1.5-.29,3.72,3.72,0,0,1,2.83,1.1,4.52,4.52,0,0,1,1,3.22c0,.14,0,.29,0,.46s0,.31,0,.44h-5.41a1.59,1.59,0,0,0,.69,1.17,2.76,2.76,0,0,0,1.63.43,6.9,6.9,0,0,0,1.29-.12,4.88,4.88,0,0,0,1-.3l.32,1.94a3.34,3.34,0,0,1-.51.19,6.88,6.88,0,0,1-.71.17c-.26,0-.54.09-.84.12a8.36,8.36,0,0,1-.9,0,5.31,5.31,0,0,1-2-.34,3.85,3.85,0,0,1-1.39-.92,3.65,3.65,0,0,1-.82-1.38A5.49,5.49,0,0,1,280.88,19.8Zm5.6-.91a2.42,2.42,0,0,0-.1-.59,1.49,1.49,0,0,0-.27-.51,1.44,1.44,0,0,0-.46-.37,1.51,1.51,0,0,0-.7-.14,1.6,1.6,0,0,0-.69.14,1.42,1.42,0,0,0-.48.36,1.61,1.61,0,0,0-.3.52,3.44,3.44,0,0,0-.15.6Z"
         transform="translate(0 0)"
         style="fill: #143649"
         id="path92" />
      <path
         d="M290.63,15.82a13.34,13.34,0,0,1,1.57-.33,12.91,12.91,0,0,1,2-.15,4.91,4.91,0,0,1,1.78.28,2.68,2.68,0,0,1,1.13.79,3.09,3.09,0,0,1,.59,1.22,6.47,6.47,0,0,1,.18,1.57v4.75h-2.38V19.48a3.22,3.22,0,0,0-.3-1.63,1.24,1.24,0,0,0-1.14-.48l-.54,0-.51.06v6.5h-2.38Z"
         transform="translate(0 0)"
         style="fill: #143649"
         id="path94" />
      <path
         d="M299.65,19.74a5,5,0,0,1,.3-1.72,4,4,0,0,1,2.22-2.36,4.49,4.49,0,0,1,1.82-.35,5.89,5.89,0,0,1,1.23.12,6,6,0,0,1,1.09.34l-.5,1.9a6,6,0,0,0-.74-.22,3.85,3.85,0,0,0-.9-.1,1.89,1.89,0,0,0-1.58.66,2.7,2.7,0,0,0-.52,1.73,2.8,2.8,0,0,0,.49,1.76,2,2,0,0,0,1.7.62,5.87,5.87,0,0,0,.93-.08,3.92,3.92,0,0,0,.91-.26l.34,2a5.56,5.56,0,0,1-1,.3,6.89,6.89,0,0,1-1.38.13,5.17,5.17,0,0,1-2-.34,3.73,3.73,0,0,1-1.37-.94,3.65,3.65,0,0,1-.78-1.4A6,6,0,0,1,299.65,19.74Z"
         transform="translate(0 0)"
         style="fill: #143649"
         id="path96" />
      <path
         d="M307.25,19.8a5.14,5.14,0,0,1,.34-2,4.19,4.19,0,0,1,.9-1.4,3.75,3.75,0,0,1,1.29-.85,4,4,0,0,1,1.5-.29,3.72,3.72,0,0,1,2.83,1.1,4.52,4.52,0,0,1,1,3.22c0,.14,0,.29,0,.46s0,.31,0,.44H309.7a1.58,1.58,0,0,0,.69,1.17,2.76,2.76,0,0,0,1.63.43,6.89,6.89,0,0,0,1.29-.12,4.84,4.84,0,0,0,1-.3l.32,1.94a3.3,3.3,0,0,1-.51.19,6.86,6.86,0,0,1-.71.17q-.39.07-.84.12a8.36,8.36,0,0,1-.9,0,5.31,5.31,0,0,1-2-.34,3.85,3.85,0,0,1-1.39-.92,3.64,3.64,0,0,1-.82-1.38A5.46,5.46,0,0,1,307.25,19.8Zm5.6-.91a2.47,2.47,0,0,0-.1-.59,1.49,1.49,0,0,0-.27-.51,1.46,1.46,0,0,0-.46-.37,1.51,1.51,0,0,0-.7-.14,1.61,1.61,0,0,0-.69.14,1.43,1.43,0,0,0-.48.36,1.61,1.61,0,0,0-.3.52,3.44,3.44,0,0,0-.15.6Z"
         transform="translate(0 0)"
         style="fill: #143649"
         id="path98" />
      <path
         d="M322.07,17.64l-.75-.17a4.69,4.69,0,0,0-.93-.09,4.37,4.37,0,0,0-.54,0,3.2,3.2,0,0,0-.47.09v6.43H317V16a14.42,14.42,0,0,1,1.51-.42,8.72,8.72,0,0,1,1.94-.2l.46,0,.54.06.54.1a2.58,2.58,0,0,1,.46.14Z"
         transform="translate(0 0)"
         style="fill: #143649"
         id="path100" />
    </g>
    <g
       id="g114">
      <path
         d="M16.73,51a3.7,3.7,0,0,1-2.83-1,4.12,4.12,0,0,1-1-2.94,4.51,4.51,0,0,1,.3-1.69A3.63,3.63,0,0,1,14,44.07a3.4,3.4,0,0,1,1.23-.78A4.45,4.45,0,0,1,16.82,43a5,5,0,0,1,.88.07,5.83,5.83,0,0,1,.69.17,3.48,3.48,0,0,1,.5.19l.29.15L18.68,45a4.17,4.17,0,0,0-.82-.32,3.91,3.91,0,0,0-1.06-.13,2.35,2.35,0,0,0-.78.13,1.75,1.75,0,0,0-.67.42,2.11,2.11,0,0,0-.47.75A3.17,3.17,0,0,0,14.71,47a4,4,0,0,0,.12,1,2.09,2.09,0,0,0,.37.79,1.79,1.79,0,0,0,.68.52,2.4,2.4,0,0,0,1,.19,4.55,4.55,0,0,0,.67,0,4.81,4.81,0,0,0,.53-.1,2.77,2.77,0,0,0,.41-.14l.32-.14.47,1.38a4,4,0,0,1-1,.4A6,6,0,0,1,16.73,51Z"
         transform="translate(0 0)"
         style="fill: #143649"
         id="path104" />
      <path
         d="M25.48,49.35v1.47H20.39V43.21H22.1v6.15Z"
         transform="translate(0 0)"
         style="fill: #143649"
         id="path106" />
      <path
         d="M33.62,47a4.7,4.7,0,0,1-.29,1.72,3.54,3.54,0,0,1-.8,1.24,3.27,3.27,0,0,1-1.2.75,4.37,4.37,0,0,1-1.5.25,4.26,4.26,0,0,1-1.47-.25A3.38,3.38,0,0,1,27.14,50a3.52,3.52,0,0,1-.81-1.24A4.6,4.6,0,0,1,26,47a4.47,4.47,0,0,1,.31-1.72A3.67,3.67,0,0,1,27.17,44a3.41,3.41,0,0,1,1.21-.76A4.15,4.15,0,0,1,29.82,43a4.26,4.26,0,0,1,1.47.25,3.36,3.36,0,0,1,1.21.76,3.58,3.58,0,0,1,.81,1.25A4.61,4.61,0,0,1,33.62,47ZM27.8,47a3.46,3.46,0,0,0,.14,1,2.31,2.31,0,0,0,.4.78,1.75,1.75,0,0,0,.63.5,2.17,2.17,0,0,0,1.71,0,1.74,1.74,0,0,0,.64-.5,2.31,2.31,0,0,0,.4-.78,3.46,3.46,0,0,0,.14-1,3.52,3.52,0,0,0-.14-1,2.31,2.31,0,0,0-.4-.78,1.75,1.75,0,0,0-.64-.5,2,2,0,0,0-.85-.18,1.94,1.94,0,0,0-.86.18,1.81,1.81,0,0,0-.63.51,2.31,2.31,0,0,0-.4.78A3.48,3.48,0,0,0,27.8,47Z"
         transform="translate(0 0)"
         style="fill: #143649"
         id="path108" />
      <path
         d="M38.52,51a3.7,3.7,0,0,1-2.83-1,4.12,4.12,0,0,1-1-2.94,4.51,4.51,0,0,1,.3-1.69,3.63,3.63,0,0,1,.81-1.25,3.4,3.4,0,0,1,1.23-.78A4.45,4.45,0,0,1,38.61,43a5,5,0,0,1,.88.07,5.83,5.83,0,0,1,.69.17,3.48,3.48,0,0,1,.5.19l.29.15L40.47,45a4.17,4.17,0,0,0-.82-.32,3.91,3.91,0,0,0-1.06-.13,2.35,2.35,0,0,0-.78.13,1.75,1.75,0,0,0-.67.42,2.11,2.11,0,0,0-.47.75A3.17,3.17,0,0,0,36.5,47a4,4,0,0,0,.12,1,2.09,2.09,0,0,0,.37.79,1.79,1.79,0,0,0,.68.52,2.4,2.4,0,0,0,1,.19,4.55,4.55,0,0,0,.67,0,4.81,4.81,0,0,0,.53-.1,2.77,2.77,0,0,0,.41-.14L40.6,49l.47,1.38a4,4,0,0,1-1,.4A6,6,0,0,1,38.52,51Z"
         transform="translate(0 0)"
         style="fill: #143649"
         id="path110" />
      <path
         d="M46.67,50.83q-.23-.37-.55-.8t-.68-.87q-.36-.44-.76-.84a8.13,8.13,0,0,0-.79-.71v3.23H42.18V43.21h1.72v2.87q.66-.7,1.34-1.45l1.26-1.41h2Q47.76,44.13,47,45t-1.66,1.72a13.06,13.06,0,0,1,1.76,1.81,22.61,22.61,0,0,1,1.63,2.31Z"
         transform="translate(0 0)"
         style="fill: #143649"
         id="path112" />
    </g>
    <g
       id="g122">
      <path
         d="M63.38,43.88a3.87,3.87,0,0,1,2.15.5,1.74,1.74,0,0,1,.75,1.55A1.76,1.76,0,0,1,66,47a2,2,0,0,1-.87.64q.19.23.4.54t.41.63q.2.33.39.68t.35.7H65.09l-.35-.62q-.18-.31-.36-.61L64,48.39q-.18-.27-.36-.48H63v2.28h-1.4V44a7.91,7.91,0,0,1,.95-.13Q63,43.88,63.38,43.88Zm.08,1.2h-.27l-.23,0V46.8h.4a2.39,2.39,0,0,0,1.13-.2.72.72,0,0,0,.34-.68.69.69,0,0,0-.35-.65A2.14,2.14,0,0,0,63.46,45.08Z"
         transform="translate(0 0)"
         style="fill: #143649"
         id="path116" />
      <path
         d="M71.42,50a7.42,7.42,0,0,1-.88.18,7.23,7.23,0,0,1-1.13.09,2.68,2.68,0,0,1-1-.16,1.52,1.52,0,0,1-.63-.45,1.77,1.77,0,0,1-.33-.7,3.73,3.73,0,0,1-.1-.89V45.45h1.34v2.48a1.91,1.91,0,0,0,.17.94.68.68,0,0,0,.64.29h.31l.29,0V45.45h1.34Z"
         transform="translate(0 0)"
         style="fill: #143649"
         id="path118" />
      <path
         d="M72.68,45.62a7.41,7.41,0,0,1,.88-.18,7.23,7.23,0,0,1,1.13-.09,2.76,2.76,0,0,1,1,.16,1.51,1.51,0,0,1,.63.45,1.74,1.74,0,0,1,.33.68,3.65,3.65,0,0,1,.1.88v2.67H75.42V47.68a1.81,1.81,0,0,0-.17-.92.7.7,0,0,0-.64-.27H74.3l-.29,0v3.65H72.68Z"
         transform="translate(0 0)"
         style="fill: #143649"
         id="path120" />
    </g>
    <g
       id="g136">
      <path
         d="M54.23,92.19V86h4.21v1.18H55.63v1.22h2.49v1.15H55.63V91h3v1.18Z"
         transform="translate(0 0)"
         style="fill: #143649"
         id="path124" />
      <path
         d="M61.65,88.78l.94-1.33H64l-1.64,2.3a14.13,14.13,0,0,1,1,1.29,11.94,11.94,0,0,1,.7,1.14H62.61l-.18-.34-.24-.42a2.22,2.22,0,0,0-.28-.37l-.29-.28-.28.26a1.82,1.82,0,0,0-.27.35l-.25.42-.22.39H59.24q.11-.22.3-.53t.41-.64a7.92,7.92,0,0,1,.48-.64l.51-.58-.85-1.21-.81-1.14h1.45Z"
         transform="translate(0 0)"
         style="fill: #143649"
         id="path126" />
      <path
         d="M64.72,86.28l1.34-.22v1.4h1.61v1.12H66.06v1.67a1.32,1.32,0,0,0,.15.68.64.64,0,0,0,.6.25,2.58,2.58,0,0,0,.45,0,2.26,2.26,0,0,0,.42-.11l.19,1a3.82,3.82,0,0,1-.54.17,3.16,3.16,0,0,1-.73.07,2.4,2.4,0,0,1-.91-.15,1.43,1.43,0,0,1-.58-.41,1.54,1.54,0,0,1-.3-.64,3.79,3.79,0,0,1-.09-.84Z"
         transform="translate(0 0)"
         style="fill: #143649"
         id="path128" />
      <path
         d="M73.85,92.31a3,3,0,0,1-2.32-.85,3.37,3.37,0,0,1-.8-2.4A3.69,3.69,0,0,1,71,87.68a3,3,0,0,1,.67-1,2.78,2.78,0,0,1,1-.63,3.63,3.63,0,0,1,1.27-.22,4.06,4.06,0,0,1,.72.06,4.71,4.71,0,0,1,.57.13,2.8,2.8,0,0,1,.41.16l.23.13-.4,1.13a3.4,3.4,0,0,0-.67-.26,3.19,3.19,0,0,0-.87-.11,1.91,1.91,0,0,0-.63.11,1.43,1.43,0,0,0-.55.35,1.73,1.73,0,0,0-.38.62,2.59,2.59,0,0,0-.14.92,3.27,3.27,0,0,0,.09.81,1.7,1.7,0,0,0,.31.64,1.46,1.46,0,0,0,.55.43,2,2,0,0,0,.83.16,3.78,3.78,0,0,0,.55,0L75,91l.33-.11.26-.12.39,1.13a3.27,3.27,0,0,1-.84.32A4.87,4.87,0,0,1,73.85,92.31Z"
         transform="translate(0 0)"
         style="fill: #143649"
         id="path130" />
      <path
         d="M78.64,92.28a3.34,3.34,0,0,1-.95-.13,1.4,1.4,0,0,1-.58-.33,1.09,1.09,0,0,1-.29-.51,2.76,2.76,0,0,1-.08-.68V85.42l1.34-.22v5.16a1.76,1.76,0,0,0,0,.32.56.56,0,0,0,.1.24.55.55,0,0,0,.22.16,1.2,1.2,0,0,0,.39.08Z"
         transform="translate(0 0)"
         style="fill: #143649"
         id="path132" />
      <path
         d="M80.94,89.15l.41-.45.41-.46.37-.43.3-.36H84l-.93,1q-.45.5-1,1a6.21,6.21,0,0,1,.56.58q.29.34.56.7t.5.72q.22.36.38.66H82.55l-.33-.52q-.18-.28-.39-.57t-.44-.55a3.67,3.67,0,0,0-.45-.44v2.07H79.6V85.42l1.34-.22Z"
         transform="translate(0 0)"
         style="fill: #143649"
         id="path134" />
    </g>
    <g
       id="g148">
      <path
         d="M135,92.19q-.37-.79-.73-1.63t-.69-1.67q-.33-.83-.6-1.58T132.47,86H134q.18.54.39,1.17l.44,1.24.43,1.19q.2.57.39,1,.18-.41.38-1l.43-1.19.44-1.24q.21-.62.39-1.17h1.49l-.48,1.35q-.27.75-.6,1.58T137,90.56q-.36.85-.73,1.63Z"
         transform="translate(0 0)"
         style="fill: #143649"
         id="path138" />
      <path
         d="M139.18,93.85h-1.38l3-8.71h1.36Z"
         transform="translate(0 0)"
         style="fill: #143649"
         id="path140" />
      <path
         d="M144.56,85.88a3.9,3.9,0,0,1,2.14.49,1.78,1.78,0,0,1,.75,1.61,1.8,1.8,0,0,1-.76,1.62,3.91,3.91,0,0,1-2.16.5h-.44v2.09h-1.4V86a7.91,7.91,0,0,1,1-.13Q144.17,85.88,144.56,85.88Zm.09,1.2h-.3l-.26,0v1.8h.44a2.39,2.39,0,0,0,1.1-.2A.76.76,0,0,0,146,88a.88.88,0,0,0-.09-.43.72.72,0,0,0-.27-.27,1.22,1.22,0,0,0-.43-.14A3.5,3.5,0,0,0,144.65,87.08Z"
         transform="translate(0 0)"
         style="fill: #143649"
         id="path142" />
      <path
         d="M149.91,87.33a3.11,3.11,0,0,1,1,.13,1.54,1.54,0,0,1,.63.39,1.43,1.43,0,0,1,.34.61,3,3,0,0,1,.1.8v2.79l-.8.15a7.73,7.73,0,0,1-1.24.09,4,4,0,0,1-.83-.08,1.81,1.81,0,0,1-.64-.27,1.21,1.21,0,0,1-.41-.48,1.66,1.66,0,0,1-.14-.73,1.38,1.38,0,0,1,.17-.7,1.28,1.28,0,0,1,.45-.46,2,2,0,0,1,.64-.25,3.6,3.6,0,0,1,.75-.08l.46,0,.33.06V89.2a.74.74,0,0,0-.21-.55,1,1,0,0,0-.72-.21,4.56,4.56,0,0,0-.68,0,2.91,2.91,0,0,0-.58.14l-.17-1.08.29-.08.38-.07.44-.05Zm.11,3.92h.38l.29,0v-1l-.24,0-.3,0-.36,0a.93.93,0,0,0-.29.09.5.5,0,0,0-.2.17.47.47,0,0,0-.07.27.46.46,0,0,0,.21.44A1.17,1.17,0,0,0,150,91.25Z"
         transform="translate(0 0)"
         style="fill: #143649"
         id="path144" />
      <path
         d="M153.14,86.28l1.34-.22v1.4h1.61v1.12h-1.61v1.67a1.32,1.32,0,0,0,.15.68.64.64,0,0,0,.6.25,2.58,2.58,0,0,0,.45,0,2.26,2.26,0,0,0,.42-.11l.19,1a3.82,3.82,0,0,1-.54.17,3.16,3.16,0,0,1-.73.07,2.4,2.4,0,0,1-.91-.15,1.43,1.43,0,0,1-.58-.41,1.54,1.54,0,0,1-.3-.64,3.79,3.79,0,0,1-.09-.84Z"
         transform="translate(0 0)"
         style="fill: #143649"
         id="path146" />
    </g>
    <g
       id="g160">
      <path
         d="M171.72,92.45a3,3,0,0,1-2.32-.85,3.37,3.37,0,0,1-.8-2.4,3.69,3.69,0,0,1,.24-1.38,3,3,0,0,1,.67-1,2.78,2.78,0,0,1,1-.63,3.63,3.63,0,0,1,1.27-.22,4.06,4.06,0,0,1,.72.06,4.71,4.71,0,0,1,.57.13,2.8,2.8,0,0,1,.41.16l.23.13-.4,1.13a3.4,3.4,0,0,0-.67-.26,3.19,3.19,0,0,0-.87-.11,1.91,1.91,0,0,0-.63.11,1.43,1.43,0,0,0-.55.35,1.73,1.73,0,0,0-.38.62,2.59,2.59,0,0,0-.14.92,3.27,3.27,0,0,0,.09.81,1.7,1.7,0,0,0,.31.64,1.46,1.46,0,0,0,.55.43,2,2,0,0,0,.83.16,3.78,3.78,0,0,0,.55,0l.43-.09.33-.11.26-.12.39,1.13a3.27,3.27,0,0,1-.84.32A4.87,4.87,0,0,1,171.72,92.45Z"
         transform="translate(0 0)"
         style="fill: #143649"
         id="path150" />
      <path
         d="M176.51,92.42a3.34,3.34,0,0,1-.95-.13A1.4,1.4,0,0,1,175,92a1.09,1.09,0,0,1-.29-.51,2.76,2.76,0,0,1-.08-.68V85.56l1.34-.22V90.5a1.76,1.76,0,0,0,0,.32.56.56,0,0,0,.1.24.55.55,0,0,0,.22.16,1.2,1.2,0,0,0,.39.08Z"
         transform="translate(0 0)"
         style="fill: #143649"
         id="path152" />
      <path
         d="M177.24,90a2.89,2.89,0,0,1,.19-1.1,2.37,2.37,0,0,1,.51-.79,2.12,2.12,0,0,1,.72-.48,2.27,2.27,0,0,1,.84-.16,2.09,2.09,0,0,1,1.59.62,2.54,2.54,0,0,1,.58,1.81c0,.08,0,.16,0,.26s0,.18,0,.25h-3a.89.89,0,0,0,.39.66,1.56,1.56,0,0,0,.92.24,3.88,3.88,0,0,0,.72-.07,2.77,2.77,0,0,0,.58-.17l.18,1.09-.29.11-.4.09-.47.07-.5,0a3,3,0,0,1-1.11-.19,2.16,2.16,0,0,1-.78-.52,2,2,0,0,1-.46-.78A3.08,3.08,0,0,1,177.24,90Zm3.15-.51a1.41,1.41,0,0,0-.06-.33.83.83,0,0,0-.15-.29.81.81,0,0,0-.26-.21.85.85,0,0,0-.39-.08.89.89,0,0,0-.39.08.79.79,0,0,0-.27.2.89.89,0,0,0-.17.29,1.89,1.89,0,0,0-.09.34Z"
         transform="translate(0 0)"
         style="fill: #143649"
         id="path154" />
      <path
         d="M184.42,87.47a3.11,3.11,0,0,1,1,.13A1.54,1.54,0,0,1,186,88a1.43,1.43,0,0,1,.34.61,3,3,0,0,1,.1.8v2.79l-.8.15a7.73,7.73,0,0,1-1.24.09,4,4,0,0,1-.83-.08,1.81,1.81,0,0,1-.64-.27,1.21,1.21,0,0,1-.41-.48,1.66,1.66,0,0,1-.14-.73,1.38,1.38,0,0,1,.17-.7,1.28,1.28,0,0,1,.45-.46,2,2,0,0,1,.64-.25,3.6,3.6,0,0,1,.75-.08l.46,0,.33.06v-.13a.74.74,0,0,0-.21-.55,1,1,0,0,0-.72-.21,4.56,4.56,0,0,0-.68,0,2.91,2.91,0,0,0-.58.14l-.17-1.08.29-.08.38-.07.44-.05Zm.11,3.92h.38l.29,0v-1l-.24,0-.3,0-.36,0a.93.93,0,0,0-.29.09.5.5,0,0,0-.2.17.47.47,0,0,0-.07.27.46.46,0,0,0,.21.44A1.17,1.17,0,0,0,184.53,91.39Z"
         transform="translate(0 0)"
         style="fill: #143649"
         id="path156" />
      <path
         d="M190.55,88.78l-.42-.09a2.64,2.64,0,0,0-.52,0l-.3,0-.27,0v3.62H187.7V87.84a8.11,8.11,0,0,1,.85-.24,4.92,4.92,0,0,1,1.09-.11h.26l.31,0,.31.05.26.08Z"
         transform="translate(0 0)"
         style="fill: #143649"
         id="path158" />
    </g>
    <g
       id="g174">
      <path
         d="M203,91v1.21H198.8V86h1.4v5Z"
         transform="translate(0 0)"
         style="fill: #143649"
         id="path162" />
      <path
         d="M203.55,89.86a2.89,2.89,0,0,1,.19-1.1,2.37,2.37,0,0,1,.51-.79,2.12,2.12,0,0,1,.72-.48,2.27,2.27,0,0,1,.84-.16,2.09,2.09,0,0,1,1.59.62,2.54,2.54,0,0,1,.58,1.81c0,.08,0,.16,0,.26s0,.18,0,.25h-3a.89.89,0,0,0,.39.66,1.56,1.56,0,0,0,.92.24,3.88,3.88,0,0,0,.72-.07,2.77,2.77,0,0,0,.58-.17l.18,1.09-.29.11-.4.09-.47.07-.5,0a3,3,0,0,1-1.11-.19,2.16,2.16,0,0,1-.78-.52,2,2,0,0,1-.46-.78A3.08,3.08,0,0,1,203.55,89.86Zm3.15-.51a1.41,1.41,0,0,0-.06-.33.83.83,0,0,0-.15-.29.81.81,0,0,0-.26-.21.85.85,0,0,0-.39-.08.89.89,0,0,0-.39.08.79.79,0,0,0-.27.2A.89.89,0,0,0,205,89a1.89,1.89,0,0,0-.09.34Z"
         transform="translate(0 0)"
         style="fill: #143649"
         id="path164" />
      <path
         d="M209,87.62a7.41,7.41,0,0,1,.88-.18,7.23,7.23,0,0,1,1.13-.09,2.76,2.76,0,0,1,1,.16,1.51,1.51,0,0,1,.63.45,1.74,1.74,0,0,1,.33.68,3.65,3.65,0,0,1,.1.88v2.67h-1.34V89.68a1.81,1.81,0,0,0-.17-.92.7.7,0,0,0-.64-.27h-.31l-.29,0v3.65H209Z"
         transform="translate(0 0)"
         style="fill: #143649"
         id="path166" />
      <path
         d="M218.42,91.59a2.28,2.28,0,0,1-.59,1.72,2.56,2.56,0,0,1-1.82.56,5,5,0,0,1-.86-.08,5.4,5.4,0,0,1-.8-.2l.23-1.12a3.91,3.91,0,0,0,.66.2,3.86,3.86,0,0,0,.79.07,1.09,1.09,0,0,0,.81-.25.91.91,0,0,0,.24-.65v-.17a2.15,2.15,0,0,1-.45.15,2.39,2.39,0,0,1-.5,0,1.92,1.92,0,0,1-1.5-.58,2.35,2.35,0,0,1-.52-1.62,2.67,2.67,0,0,1,.16-.95,2,2,0,0,1,.47-.73,2.11,2.11,0,0,1,.76-.47,2.91,2.91,0,0,1,1-.17l.5,0,.51.06.48.09.41.1Zm-2.94-1.93q0,1.13.91,1.13a1.34,1.34,0,0,0,.39-.05,1.43,1.43,0,0,0,.31-.13V88.47l-.23,0h-.31a.92.92,0,0,0-.79.35A1.45,1.45,0,0,0,215.48,89.67Z"
         transform="translate(0 0)"
         style="fill: #143649"
         id="path168" />
      <path
         d="M219.64,86.28l1.34-.22v1.4h1.61v1.12H221v1.67a1.32,1.32,0,0,0,.15.68.64.64,0,0,0,.6.25,2.58,2.58,0,0,0,.45,0,2.26,2.26,0,0,0,.42-.11l.19,1a3.82,3.82,0,0,1-.54.17,3.16,3.16,0,0,1-.73.07,2.4,2.4,0,0,1-.91-.15,1.43,1.43,0,0,1-.58-.41,1.54,1.54,0,0,1-.3-.64,3.79,3.79,0,0,1-.09-.84Z"
         transform="translate(0 0)"
         style="fill: #143649"
         id="path170" />
      <path
         d="M223.68,92.19V85.42L225,85.2v2.27l.35-.09a2.15,2.15,0,0,1,.41,0,2.53,2.53,0,0,1,1,.16,1.48,1.48,0,0,1,.61.45,1.72,1.72,0,0,1,.32.68,3.81,3.81,0,0,1,.09.88v2.67h-1.34V89.68a1.85,1.85,0,0,0-.17-.92.67.67,0,0,0-.62-.27,1.72,1.72,0,0,0-.34,0l-.28.07v3.6Z"
         transform="translate(0 0)"
         style="fill: #143649"
         id="path172" />
    </g>
    <g
       id="g190">
      <path
         d="M323.64,86a4.77,4.77,0,0,1,2.62.6,2.17,2.17,0,0,1,.91,2,2.2,2.2,0,0,1-.92,2,4.78,4.78,0,0,1-2.64.61h-.54v2.55h-1.72V86.23a9.73,9.73,0,0,1,1.19-.15Q323.17,86,323.64,86Zm.11,1.46h-.37l-.31,0v2.2h.54a2.93,2.93,0,0,0,1.34-.24.93.93,0,0,0,.45-.9,1.08,1.08,0,0,0-.12-.53.88.88,0,0,0-.33-.34,1.49,1.49,0,0,0-.52-.18A4.35,4.35,0,0,0,323.75,87.49Z"
         transform="translate(0 0)"
         style="fill: #143649"
         id="path176" />
      <path
         d="M332.81,93.74q-.13-.4-.27-.82l-.29-.83h-3l-.29.84q-.15.42-.27.81h-1.78q.43-1.23.82-2.28t.76-2q.37-.92.73-1.75t.75-1.62h1.63q.38.79.74,1.62t.74,1.75q.37.92.76,2t.82,2.28Zm-2.06-5.9-.17.45-.25.66-.32.83-.36.94h2.18l-.34-.95q-.16-.45-.31-.83l-.26-.66Z"
         transform="translate(0 0)"
         style="fill: #143649"
         id="path178" />
      <path
         d="M340.38,86.12v1.46h-2.3v6.16h-1.72V87.58h-2.3V86.12Z"
         transform="translate(0 0)"
         style="fill: #143649"
         id="path180" />
      <path
         d="M347.42,86.12v1.46h-2.3v6.16H343.4V87.58h-2.3V86.12Z"
         transform="translate(0 0)"
         style="fill: #143649"
         id="path182" />
      <path
         d="M348.52,93.74V86.12h5.15v1.44h-3.43v1.5h3v1.41h-3V92.3h3.68v1.44Z"
         transform="translate(0 0)"
         style="fill: #143649"
         id="path184" />
      <path
         d="M357.42,86a4.73,4.73,0,0,1,2.63.61,2.12,2.12,0,0,1,.91,1.9,2.15,2.15,0,0,1-.37,1.3,2.43,2.43,0,0,1-1.06.79q.23.29.48.65t.5.77q.25.4.48.84t.43.85H359.5l-.43-.76q-.22-.39-.44-.75t-.45-.69c-.15-.22-.29-.41-.44-.59h-.85v2.78h-1.72V86.23a9.73,9.73,0,0,1,1.16-.15Q356.94,86,357.42,86Zm.1,1.46h-.33l-.28,0v2.07h.48a2.92,2.92,0,0,0,1.39-.24.87.87,0,0,0,.42-.82.84.84,0,0,0-.42-.8A2.62,2.62,0,0,0,357.51,87.49Z"
         transform="translate(0 0)"
         style="fill: #143649"
         id="path186" />
      <path
         d="M367.63,93.74q-.74-1.31-1.59-2.58a26.31,26.31,0,0,0-1.83-2.41v5h-1.69V86.12h1.4q.36.36.8.89t.9,1.13q.46.6.91,1.24t.85,1.24v-4.5h1.71v7.62Z"
         transform="translate(0 0)"
         style="fill: #143649"
         id="path188" />
    </g>
    <g
       id="g200">
      <path
         d="M333.11,50.84q-.63,0-1.25,0a8.8,8.8,0,0,1-1.29-.18V43.23a11,11,0,0,1,1.16-.15q.63,0,1.17,0a7.92,7.92,0,0,1,1.34.1,3.18,3.18,0,0,1,1.05.36,1.88,1.88,0,0,1,.69.67,2,2,0,0,1,.25,1,1.61,1.61,0,0,1-.88,1.44,1.8,1.8,0,0,1,1,.75,2.15,2.15,0,0,1,.26,1.07,2,2,0,0,1-.87,1.8A4.58,4.58,0,0,1,333.11,50.84Zm-.87-4.73h.84a2.33,2.33,0,0,0,1.13-.2.7.7,0,0,0,.34-.65.67.67,0,0,0-.35-.65,2.26,2.26,0,0,0-1-.19h-.47l-.45,0Zm0,1.31v2l.41,0h.48a3,3,0,0,0,1.24-.22.82.82,0,0,0,.47-.81.8.8,0,0,0-.4-.75,2.32,2.32,0,0,0-1.13-.23Z"
         transform="translate(0 0)"
         style="fill: #143649"
         id="path192" />
      <path
         d="M343,50.74q-.13-.4-.27-.82l-.29-.83h-3l-.29.84q-.15.42-.27.81h-1.78q.43-1.23.82-2.28t.76-2q.37-.92.73-1.75t.75-1.62h1.63q.38.79.74,1.62t.73,1.75q.37.92.76,2t.82,2.28Zm-2.06-5.9-.17.45-.25.66-.32.83-.35.94H342l-.34-.95q-.16-.45-.31-.83l-.26-.66Z"
         transform="translate(0 0)"
         style="fill: #143649"
         id="path194" />
      <path
         d="M350.9,50.74q-.74-1.31-1.59-2.58a26.31,26.31,0,0,0-1.83-2.41v5h-1.69V43.12h1.4q.36.36.8.89t.9,1.13q.46.6.91,1.24t.85,1.24v-4.5h1.71v7.62Z"
         transform="translate(0 0)"
         style="fill: #143649"
         id="path196" />
      <path
         d="M358.59,50.74q-.23-.37-.55-.8t-.68-.87q-.36-.44-.76-.84a8.08,8.08,0,0,0-.79-.71v3.23H354.1V43.12h1.72V46q.66-.7,1.34-1.45l1.26-1.41h2q-.78.93-1.57,1.78t-1.66,1.72A13,13,0,0,1,359,48.43a22.62,22.62,0,0,1,1.63,2.31Z"
         transform="translate(0 0)"
         style="fill: #143649"
         id="path198" />
    </g>
    <g
       id="g212">
      <path
         d="M461.21,43.12q.2.36.46.9t.54,1.16q.28.62.56,1.27l.52,1.22.52-1.22q.28-.65.56-1.27T464.9,44q.26-.53.46-.9h1.56q.11.76.2,1.7t.17,2q.07,1,.13,2t.1,1.92h-1.67q0-1.11-.09-2.42t-.17-2.64l-.44,1-.48,1.12-.46,1.07-.37.87h-1.2l-.37-.87-.46-1.07-.48-1.12-.44-1q-.11,1.33-.17,2.64t-.09,2.42H459q0-.9.1-1.92t.13-2q.07-1,.17-2t.2-1.7Z"
         transform="translate(0 0)"
         style="fill: #143649"
         id="path202" />
      <path
         d="M469,50.74V43.12h5.15v1.44h-3.43v1.5h3v1.41h-3V49.3h3.68v1.44Z"
         transform="translate(0 0)"
         style="fill: #143649"
         id="path204" />
      <path
         d="M477.95,43a4.73,4.73,0,0,1,2.63.61,2.12,2.12,0,0,1,.91,1.9,2.15,2.15,0,0,1-.37,1.3,2.43,2.43,0,0,1-1.06.79q.23.29.48.65t.5.77q.25.4.48.84t.43.85H480l-.43-.76q-.22-.39-.44-.75t-.45-.69c-.15-.22-.29-.41-.44-.59h-.85v2.78h-1.72V43.23a9.73,9.73,0,0,1,1.16-.15Q477.48,43,477.95,43Zm.1,1.46h-.33l-.28,0v2.07h.48a2.92,2.92,0,0,0,1.39-.24.87.87,0,0,0,.42-.82.84.84,0,0,0-.42-.8A2.62,2.62,0,0,0,478,44.49Z"
         transform="translate(0 0)"
         style="fill: #143649"
         id="path206" />
      <path
         d="M486.57,44.44a2.09,2.09,0,0,0-1.73.67,2.83,2.83,0,0,0-.53,1.82,3.66,3.66,0,0,0,.13,1,2.24,2.24,0,0,0,.4.79,1.79,1.79,0,0,0,.66.51,2.2,2.2,0,0,0,.92.18h.49l.36,0V46.71H489v3.77a6.42,6.42,0,0,1-1,.26,8.68,8.68,0,0,1-1.68.14,4.37,4.37,0,0,1-1.56-.26,3.25,3.25,0,0,1-1.19-.77,3.43,3.43,0,0,1-.76-1.24,4.88,4.88,0,0,1-.27-1.68,4.5,4.5,0,0,1,.3-1.69,3.65,3.65,0,0,1,.81-1.25,3.42,3.42,0,0,1,1.21-.78,4.19,4.19,0,0,1,1.49-.26,6.06,6.06,0,0,1,1,.07,6.22,6.22,0,0,1,.75.17,3.51,3.51,0,0,1,.52.19l.29.15-.5,1.38a4.44,4.44,0,0,0-.81-.32A3.43,3.43,0,0,0,486.57,44.44Z"
         transform="translate(0 0)"
         style="fill: #143649"
         id="path208" />
      <path
         d="M490.58,50.74V43.12h5.15v1.44h-3.43v1.5h3v1.41h-3V49.3H496v1.44Z"
         transform="translate(0 0)"
         style="fill: #143649"
         id="path210" />
    </g>
    <g
       id="g222">
      <path
         d="M172.37,50.31a3,3,0,0,1-2.32-.85,3.37,3.37,0,0,1-.8-2.4,3.69,3.69,0,0,1,.24-1.38,3,3,0,0,1,.67-1,2.78,2.78,0,0,1,1-.63,3.63,3.63,0,0,1,1.27-.22,4.06,4.06,0,0,1,.72.06,4.71,4.71,0,0,1,.57.13,2.8,2.8,0,0,1,.41.16l.23.13-.4,1.13a3.4,3.4,0,0,0-.67-.26,3.19,3.19,0,0,0-.87-.11,1.91,1.91,0,0,0-.63.11,1.43,1.43,0,0,0-.55.35,1.73,1.73,0,0,0-.38.62,2.59,2.59,0,0,0-.14.92,3.27,3.27,0,0,0,.09.81,1.7,1.7,0,0,0,.31.64,1.46,1.46,0,0,0,.55.43,2,2,0,0,0,.83.16,3.78,3.78,0,0,0,.55,0l.43-.09.33-.11.26-.12.39,1.13a3.27,3.27,0,0,1-.84.32A4.87,4.87,0,0,1,172.37,50.31Z"
         transform="translate(0 0)"
         style="fill: #143649"
         id="path214" />
      <path
         d="M179.59,47.81a3.08,3.08,0,0,1-.16,1,2.22,2.22,0,0,1-.47.79,2.1,2.1,0,0,1-.73.51,2.44,2.44,0,0,1-1,.18,2.42,2.42,0,0,1-.95-.18,2.09,2.09,0,0,1-.73-.51,2.32,2.32,0,0,1-.48-.79,2.93,2.93,0,0,1-.17-1,2.82,2.82,0,0,1,.18-1,2.3,2.3,0,0,1,.49-.78,2.18,2.18,0,0,1,.74-.5,2.53,2.53,0,0,1,1.87,0,2.13,2.13,0,0,1,.73.5,2.29,2.29,0,0,1,.48.78A2.9,2.9,0,0,1,179.59,47.81Zm-1.37,0a1.69,1.69,0,0,0-.25-1,.81.81,0,0,0-.71-.36.82.82,0,0,0-.71.36,1.66,1.66,0,0,0-.25,1,1.71,1.71,0,0,0,.25,1,.81.81,0,0,0,.71.36.8.8,0,0,0,.71-.36A1.73,1.73,0,0,0,178.22,47.81Z"
         transform="translate(0 0)"
         style="fill: #143649"
         id="path216" />
      <path
         d="M185,47.82a3.47,3.47,0,0,1-.13,1,2.24,2.24,0,0,1-.4.77,1.79,1.79,0,0,1-.65.5,2.1,2.1,0,0,1-.89.18,2.43,2.43,0,0,1-.52-.05,2.49,2.49,0,0,1-.47-.15v1.78h-1.34V45.62l.41-.1.49-.09.52-.06.51,0a2.9,2.9,0,0,1,1,.18,2.15,2.15,0,0,1,.77.5,2.12,2.12,0,0,1,.48.78A3,3,0,0,1,185,47.82Zm-1.37,0a1.62,1.62,0,0,0-.28-1,1,1,0,0,0-.83-.37h-.33l-.25,0V49a1.16,1.16,0,0,0,.33.13,1.58,1.58,0,0,0,.41.05Q183.65,49.14,183.65,47.86Z"
         transform="translate(0 0)"
         style="fill: #143649"
         id="path218" />
      <path
         d="M190.14,45.45q-.41,1.37-.85,2.56t-1,2.32A5.31,5.31,0,0,1,188,51a2.13,2.13,0,0,1-.42.47,1.46,1.46,0,0,1-.51.27,2.32,2.32,0,0,1-.66.09,2.7,2.7,0,0,1-.58-.06,2.6,2.6,0,0,1-.44-.13l.23-1.07a2.27,2.27,0,0,0,.37.1l.34,0a.75.75,0,0,0,.55-.19,1.55,1.55,0,0,0,.33-.54q-.46-.9-.92-2a25.14,25.14,0,0,1-.86-2.52h1.42q.09.35.21.76t.26.83q.14.42.28.81t.27.72q.12-.32.24-.72t.25-.81l.23-.83.2-.76Z"
         transform="translate(0 0)"
         style="fill: #143649"
         id="path220" />
    </g>
    <g
       id="g234">
      <path
         d="M98.31,43.88a3.87,3.87,0,0,1,2.15.5,1.74,1.74,0,0,1,.75,1.55,1.76,1.76,0,0,1-.3,1.07,2,2,0,0,1-.87.64q.19.23.4.54t.41.63q.2.33.39.68t.35.7H100l-.35-.62q-.18-.31-.36-.61l-.37-.56q-.18-.27-.36-.48h-.69v2.28h-1.4V44a7.91,7.91,0,0,1,.95-.13Q97.92,43.88,98.31,43.88Zm.08,1.2h-.27l-.23,0V46.8h.4a2.39,2.39,0,0,0,1.13-.2.72.72,0,0,0,.34-.68.69.69,0,0,0-.35-.65A2.14,2.14,0,0,0,98.39,45.08Z"
         transform="translate(0 0)"
         style="fill: #143649"
         id="path224" />
      <path
         d="M101.95,47.86a2.89,2.89,0,0,1,.19-1.1,2.37,2.37,0,0,1,.51-.79,2.12,2.12,0,0,1,.72-.48,2.27,2.27,0,0,1,.84-.16,2.09,2.09,0,0,1,1.59.62,2.54,2.54,0,0,1,.58,1.81c0,.08,0,.16,0,.26s0,.18,0,.25h-3a.89.89,0,0,0,.39.66,1.56,1.56,0,0,0,.92.24,3.88,3.88,0,0,0,.72-.07,2.77,2.77,0,0,0,.58-.17l.18,1.09-.29.11-.4.09-.47.07-.5,0a3,3,0,0,1-1.11-.19,2.16,2.16,0,0,1-.78-.52,2,2,0,0,1-.46-.78A3.08,3.08,0,0,1,101.95,47.86Zm3.15-.51A1.41,1.41,0,0,0,105,47a.83.83,0,0,0-.15-.29.81.81,0,0,0-.26-.21.85.85,0,0,0-.39-.08.89.89,0,0,0-.39.08.79.79,0,0,0-.27.2.89.89,0,0,0-.17.29,1.89,1.89,0,0,0-.09.34Z"
         transform="translate(0 0)"
         style="fill: #143649"
         id="path226" />
      <path
         d="M108.79,49.23a1.34,1.34,0,0,0,.52-.07.28.28,0,0,0,.15-.28.34.34,0,0,0-.2-.28,3.76,3.76,0,0,0-.6-.27,6,6,0,0,1-.57-.24,1.67,1.67,0,0,1-.44-.3,1.22,1.22,0,0,1-.28-.42,1.54,1.54,0,0,1-.1-.58,1.27,1.27,0,0,1,.5-1.05,2.15,2.15,0,0,1,1.36-.39,4.38,4.38,0,0,1,.83.08,3.94,3.94,0,0,1,.63.17l-.23,1-.51-.14a2.76,2.76,0,0,0-.62-.06q-.63,0-.63.35a.36.36,0,0,0,0,.14.31.31,0,0,0,.11.12l.22.13.36.15a5.51,5.51,0,0,1,.73.32,1.73,1.73,0,0,1,.45.34,1.06,1.06,0,0,1,.23.41,1.81,1.81,0,0,1,.07.52,1.2,1.2,0,0,1-.53,1.06,2.62,2.62,0,0,1-1.49.36,4.29,4.29,0,0,1-1-.11,4.22,4.22,0,0,1-.58-.18l.23-1.09a4.38,4.38,0,0,0,.7.21A3.4,3.4,0,0,0,108.79,49.23Z"
         transform="translate(0 0)"
         style="fill: #143649"
         id="path228" />
      <path
         d="M111.57,47.86a2.89,2.89,0,0,1,.19-1.1,2.37,2.37,0,0,1,.51-.79,2.12,2.12,0,0,1,.72-.48,2.27,2.27,0,0,1,.84-.16,2.09,2.09,0,0,1,1.59.62,2.54,2.54,0,0,1,.58,1.81c0,.08,0,.16,0,.26s0,.18,0,.25h-3a.89.89,0,0,0,.39.66,1.56,1.56,0,0,0,.92.24,3.88,3.88,0,0,0,.72-.07,2.77,2.77,0,0,0,.58-.17l.18,1.09-.29.11-.4.09-.47.07-.5,0a3,3,0,0,1-1.11-.19,2.16,2.16,0,0,1-.78-.52,2,2,0,0,1-.46-.78A3.08,3.08,0,0,1,111.57,47.86Zm3.15-.51a1.41,1.41,0,0,0-.06-.33.83.83,0,0,0-.15-.29.81.81,0,0,0-.26-.21.85.85,0,0,0-.39-.08.89.89,0,0,0-.39.08.79.79,0,0,0-.27.2A.89.89,0,0,0,113,47a1.89,1.89,0,0,0-.09.34Z"
         transform="translate(0 0)"
         style="fill: #143649"
         id="path230" />
      <path
         d="M117,44.28l1.34-.22v1.4H120v1.12h-1.61v1.67a1.32,1.32,0,0,0,.15.68.64.64,0,0,0,.6.25,2.58,2.58,0,0,0,.45,0A2.26,2.26,0,0,0,120,49l.19,1a3.82,3.82,0,0,1-.54.17,3.16,3.16,0,0,1-.73.07,2.4,2.4,0,0,1-.91-.15,1.43,1.43,0,0,1-.58-.41,1.54,1.54,0,0,1-.3-.64,3.79,3.79,0,0,1-.09-.84Z"
         transform="translate(0 0)"
         style="fill: #143649"
         id="path232" />
    </g>
  </g>
</svg>
