<?xml version="1.0" encoding="UTF-8" standalone="no"?>
<svg
   xmlns:dc="http://purl.org/dc/elements/1.1/"
   xmlns:cc="http://creativecommons.org/ns#"
   xmlns:rdf="http://www.w3.org/1999/02/22-rdf-syntax-ns#"
   xmlns:svg="http://www.w3.org/2000/svg"
   xmlns="http://www.w3.org/2000/svg"
   xmlns:sodipodi="http://sodipodi.sourceforge.net/DTD/sodipodi-0.dtd"
   xmlns:inkscape="http://www.inkscape.org/namespaces/inkscape"
   width="330"
   height="380"
   viewBox="0 0 330 380"
   version="1.1"
   id="svg252"
   sodipodi:docname="QuadSeq.svg"
   inkscape:version="0.92.2 5c3e80d, 2017-08-06">
  <metadata
     id="metadata258">
    <rdf:RDF>
      <cc:Work
         rdf:about="">
        <dc:format>image/svg+xml</dc:format>
        <dc:type
           rdf:resource="http://purl.org/dc/dcmitype/StillImage" />
      </cc:Work>
    </rdf:RDF>
  </metadata>
  <defs
     id="defs256" />
  <sodipodi:namedview
     pagecolor="#ffffff"
     bordercolor="#666666"
     borderopacity="1"
     objecttolerance="10"
     gridtolerance="10"
     guidetolerance="10"
     inkscape:pageopacity="0"
     inkscape:pageshadow="2"
     inkscape:window-width="1553"
     inkscape:window-height="1283"
     id="namedview254"
     showgrid="false"
     inkscape:zoom="4.2544949"
     inkscape:cx="86.951887"
     inkscape:cy="232.51795"
     inkscape:window-x="0"
     inkscape:window-y="0"
     inkscape:window-maximized="0"
     inkscape:current-layer="svg252" />
  <title
     id="title2">QuadSeq</title>
  <g
     id="Layer_1"
     data-name="Layer 1"
     style="fill:#e3ebf2;fill-opacity:1">
    <path
       id="path25077"
       d="M0,0H330V380H0Z"
       style="fill:#e3ebf2;fill-opacity:1" />
  </g>
  <g
     id="Layer_4"
     data-name="Layer 4">
    <path
       id="path35483"
       d="M18.84,153.3H311.66"
       style="fill: none;stroke: #153649;stroke-linecap: round;stroke-linejoin: round;stroke-width: 0.5px" />
    <path
       id="path35723"
       d="M103.35,340.83H227.15"
       style="fill: none;stroke: #153649;stroke-linecap: round;stroke-linejoin: round;stroke-width: 0.5px" />
    <path
       id="path35809"
       d="M88.32,44.79v90.32"
       style="fill: none;stroke: #153649;stroke-miterlimit: 10;stroke-width: 0.5px" />
    <path
       id="rect73"
       d="m 173.79,348.26967 h 133.45 a 5.79,5.79 0 0 1 5.79,5.8 v 17.43 a 5.79,5.79 0 0 1 -5.79,5.8 H 173.79 a 5.79,5.79 0 0 1 -5.79,-5.8 v -17.43 a 5.79,5.79 0 0 1 5.79,-5.8 z"
       style="fill:#153649;stroke:#010101;stroke-width:0.28466856px;stroke-linecap:square;stroke-opacity:0.98999999;fill-opacity:1"
       inkscape:connector-curvature="0" />
    <path
       id="path1029"
       d="M18.18,340.83H58"
       style="fill: none;stroke: #153649;stroke-linecap: round;stroke-linejoin: round;stroke-width: 0.5px" />
    <path
       id="path1031"
       d="M253,340.83h60"
       style="fill: none;stroke: #153649;stroke-linecap: round;stroke-linejoin: round;stroke-width: 0.5px" />
  </g>
  <g
     id="g29">
    <path
       inkscape:connector-curvature="0"
       id="path13"
       style="fill:#153649"
       d="m 28.06,161.38 0.54,-0.25 q 0.28,-0.14 0.55,-0.31 0.27,-0.17 0.52,-0.35 a 3.52,3.52 0 0 0 0.45,-0.39 h 0.94 v 6.24 h -1.35 v -4.49 a 4.11,4.11 0 0 1 -0.6,0.33 q -0.33,0.15 -0.65,0.26 z" />
    <path
       inkscape:connector-curvature="0"
       id="path15"
       style="fill:#153649"
       d="m 70.5,161.72 a 1.65,1.65 0 0 1 -0.13,0.66 3,3 0 0 1 -0.37,0.62 5,5 0 0 1 -0.49,0.56 l -0.53,0.51 -0.29,0.28 -0.3,0.32 -0.26,0.3 a 0.75,0.75 0 0 0 -0.14,0.23 h 2.68 v 1.13 h -4.14 a 1.43,1.43 0 0 1 0,-0.25 v -0.22 a 2.17,2.17 0 0 1 0.14,-0.79 3,3 0 0 1 0.36,-0.67 4.22,4.22 0 0 1 0.51,-0.58 l 0.56,-0.54 0.41,-0.39 a 4.48,4.48 0 0 0 0.33,-0.36 1.66,1.66 0 0 0 0.23,-0.35 0.85,0.85 0 0 0 0.08,-0.36 0.64,0.64 0 0 0 -0.23,-0.56 0.93,0.93 0 0 0 -0.56,-0.16 1.32,1.32 0 0 0 -0.45,0.08 2.28,2.28 0 0 0 -0.39,0.18 2.42,2.42 0 0 0 -0.3,0.21 l -0.19,0.17 -0.67,-0.94 a 3.42,3.42 0 0 1 0.92,-0.61 2.71,2.71 0 0 1 1.13,-0.24 3.14,3.14 0 0 1 0.94,0.13 1.76,1.76 0 0 1 0.65,0.36 1.37,1.37 0 0 1 0.38,0.56 2.13,2.13 0 0 1 0.12,0.72 z" />
    <path
       inkscape:connector-curvature="0"
       id="path17"
       style="fill:#153649"
       d="m 106.7,166.45 a 4.44,4.44 0 0 1 -0.51,0 l -0.52,-0.09 -0.46,-0.12 -0.32,-0.12 0.26,-1.12 q 0.23,0.1 0.6,0.21 a 3.1,3.1 0 0 0 0.9,0.11 1.43,1.43 0 0 0 0.91,-0.23 0.77,0.77 0 0 0 0.29,-0.63 0.76,0.76 0 0 0 -0.1,-0.41 0.79,0.79 0 0 0 -0.28,-0.27 1.25,1.25 0 0 0 -0.43,-0.14 3.22,3.22 0 0 0 -0.53,0 H 106 v -1.14 h 0.59 a 2,2 0 0 0 0.38,0 1,1 0 0 0 0.33,-0.12 0.64,0.64 0 0 0 0.23,-0.23 0.74,0.74 0 0 0 0.09,-0.37 0.59,0.59 0 0 0 -0.07,-0.3 0.64,0.64 0 0 0 -0.18,-0.21 0.79,0.79 0 0 0 -0.26,-0.12 1.15,1.15 0 0 0 -0.3,0 2.11,2.11 0 0 0 -0.72,0.12 3,3 0 0 0 -0.6,0.29 l -0.48,-1 0.34,-0.19 a 3.28,3.28 0 0 1 0.43,-0.18 3.92,3.92 0 0 1 0.5,-0.14 2.85,2.85 0 0 1 0.56,-0.05 3.08,3.08 0 0 1 0.95,0.13 1.79,1.79 0 0 1 0.66,0.37 1.48,1.48 0 0 1 0.39,0.56 1.88,1.88 0 0 1 0.13,0.7 1.43,1.43 0 0 1 -0.77,1.24 1.62,1.62 0 0 1 0.75,0.59 1.64,1.64 0 0 1 0.27,0.94 2.15,2.15 0 0 1 -0.14,0.8 1.61,1.61 0 0 1 -0.45,0.63 2.16,2.16 0 0 1 -0.78,0.41 3.75,3.75 0 0 1 -1.15,0.08 z" />
    <path
       inkscape:connector-curvature="0"
       id="path19"
       style="fill:#153649"
       d="m 147.44,160.08 v 3.74 h 0.67 v 1.1 h -0.67 v 1.4 h -1.31 v -1.4 h -2.69 v -1 q 0.2,-0.4 0.49,-0.9 0.29,-0.5 0.66,-1 0.36,-0.53 0.77,-1 a 11.26,11.26 0 0 1 0.81,-0.91 z m -1.31,1.64 -0.75,1 a 6.86,6.86 0 0 0 -0.67,1.11 h 1.41 z" />
    <path
       inkscape:connector-curvature="0"
       id="path21"
       style="fill:#153649"
       d="M 185.1,164.48 A 0.91,0.91 0 0 0 185,164 a 0.88,0.88 0 0 0 -0.41,-0.34 2.85,2.85 0 0 0 -0.77,-0.21 8.63,8.63 0 0 0 -1.22,-0.07 q 0.1,-0.84 0.16,-1.7 0.06,-0.86 0.1,-1.62 h 3.38 v 1.13 H 184 c 0,0.22 0,0.42 0,0.63 0,0.21 0,0.38 0,0.53 a 3.34,3.34 0 0 1 1.94,0.62 1.81,1.81 0 0 1 0.63,1.46 2.08,2.08 0 0 1 -0.15,0.8 1.74,1.74 0 0 1 -0.46,0.64 2.19,2.19 0 0 1 -0.77,0.42 3.47,3.47 0 0 1 -1.08,0.15 4.32,4.32 0 0 1 -0.51,0 l -0.51,-0.08 -0.45,-0.1 a 1.76,1.76 0 0 1 -0.31,-0.11 l 0.24,-1.11 a 4,4 0 0 0 0.59,0.19 3.59,3.59 0 0 0 0.88,0.09 1.34,1.34 0 0 0 0.9,-0.25 0.75,0.75 0 0 0 0.16,-0.59 z" />
    <path
       inkscape:connector-curvature="0"
       id="path23"
       style="fill:#153649"
       d="m 223.11,162.34 a 2.78,2.78 0 0 1 1,0.16 1.82,1.82 0 0 1 0.67,0.43 1.62,1.62 0 0 1 0.38,0.63 2.46,2.46 0 0 1 0.12,0.77 2.26,2.26 0 0 1 -0.13,0.74 2.06,2.06 0 0 1 -0.4,0.68 2.09,2.09 0 0 1 -0.67,0.5 2.21,2.21 0 0 1 -1,0.2 2.09,2.09 0 0 1 -1.71,-0.71 3,3 0 0 1 -0.58,-2 4.25,4.25 0 0 1 0.28,-1.59 3.15,3.15 0 0 1 0.8,-1.17 3.47,3.47 0 0 1 1.25,-0.72 5.33,5.33 0 0 1 1.65,-0.26 v 0.54 c 0,0.18 0,0.36 0,0.55 a 5.18,5.18 0 0 0 -0.86,0.09 2.87,2.87 0 0 0 -0.73,0.24 2,2 0 0 0 -0.57,0.42 1.78,1.78 0 0 0 -0.38,0.63 1.65,1.65 0 0 1 0.41,-0.13 2.27,2.27 0 0 1 0.47,0 z m -0.17,1 a 2.69,2.69 0 0 0 -0.42,0 1.24,1.24 0 0 0 -0.35,0.1 c 0,0 0,0.06 0,0.11 0,0.05 0,0.09 0,0.13 a 3.93,3.93 0 0 0 0,0.61 1.71,1.71 0 0 0 0.15,0.5 0.86,0.86 0 0 0 0.29,0.34 0.79,0.79 0 0 0 0.45,0.12 0.73,0.73 0 0 0 0.38,-0.09 0.86,0.86 0 0 0 0.26,-0.24 1,1 0 0 0 0.15,-0.32 1.23,1.23 0 0 0 0,-0.34 1,1 0 0 0 -0.23,-0.71 1,1 0 0 0 -0.68,-0.17 z" />
    <path
       inkscape:connector-curvature="0"
       id="path25"
       style="fill:#153649"
       d="m 260.36,166.32 a 9.12,9.12 0 0 1 0.22,-1.37 13.18,13.18 0 0 1 0.42,-1.4 11.82,11.82 0 0 1 0.55,-1.29 7.82,7.82 0 0 1 0.62,-1 h -2.71 v -1.14 h 4.36 v 1 a 6,6 0 0 0 -0.63,0.87 10.07,10.07 0 0 0 -0.66,1.26 11.73,11.73 0 0 0 -0.54,1.52 7.77,7.77 0 0 0 -0.28,1.62 z" />
    <path
       inkscape:connector-curvature="0"
       id="path27"
       style="fill:#153649"
       d="m 302.46,164.58 a 1.92,1.92 0 0 1 -0.14,0.74 1.62,1.62 0 0 1 -0.42,0.59 2,2 0 0 1 -0.7,0.39 3.07,3.07 0 0 1 -1,0.14 2.72,2.72 0 0 1 -1,-0.18 2,2 0 0 1 -0.67,-0.44 1.53,1.53 0 0 1 -0.36,-0.57 1.75,1.75 0 0 1 -0.11,-0.57 1.62,1.62 0 0 1 0.07,-0.5 1.56,1.56 0 0 1 0.2,-0.41 2.17,2.17 0 0 1 0.28,-0.34 3.46,3.46 0 0 1 0.34,-0.29 2.48,2.48 0 0 1 -0.57,-0.62 1.49,1.49 0 0 1 -0.18,-0.78 1.68,1.68 0 0 1 0.15,-0.69 1.76,1.76 0 0 1 0.42,-0.58 2,2 0 0 1 0.65,-0.4 2.33,2.33 0 0 1 0.85,-0.15 2.52,2.52 0 0 1 0.94,0.16 2,2 0 0 1 0.64,0.4 1.46,1.46 0 0 1 0.36,0.54 1.69,1.69 0 0 1 0.11,0.6 1.52,1.52 0 0 1 -0.23,0.8 1.79,1.79 0 0 1 -0.57,0.59 2.27,2.27 0 0 1 0.73,0.7 1.61,1.61 0 0 1 0.21,0.87 z m -3.11,0.05 a 0.68,0.68 0 0 0 0,0.24 0.69,0.69 0 0 0 0.16,0.24 0.86,0.86 0 0 0 0.28,0.18 1.06,1.06 0 0 0 0.41,0.07 0.91,0.91 0 0 0 0.68,-0.23 0.72,0.72 0 0 0 0.22,-0.51 0.73,0.73 0 0 0 -0.09,-0.37 1,1 0 0 0 -0.26,-0.28 1.86,1.86 0 0 0 -0.38,-0.22 l -0.47,-0.18 a 1.83,1.83 0 0 0 -0.42,0.44 1.05,1.05 0 0 0 -0.14,0.62 z m 1.67,-3 a 0.61,0.61 0 0 0 0,-0.21 0.6,0.6 0 0 0 -0.13,-0.21 0.79,0.79 0 0 0 -0.24,-0.17 0.83,0.83 0 0 0 -0.35,-0.07 0.85,0.85 0 0 0 -0.34,0.06 0.7,0.7 0 0 0 -0.24,0.17 0.69,0.69 0 0 0 -0.14,0.22 0.61,0.61 0 0 0 0,0.22 0.82,0.82 0 0 0 0.21,0.54 1.65,1.65 0 0 0 0.72,0.43 1.41,1.41 0 0 0 0.44,-0.41 1,1 0 0 0 0.05,-0.53 z" />
  </g>
  <g
     id="g57">
    <path
       inkscape:connector-curvature="0"
       id="path31"
       style="fill:#153649"
       d="m 114.53,18.4 a 7.13,7.13 0 0 1 -0.29,2.1 5.42,5.42 0 0 1 -0.81,1.64 4.68,4.68 0 0 1 -1.24,1.17 5.1,5.1 0 0 1 -1.58,0.67 0.9,0.9 0 0 0 0.35,0.52 2.3,2.3 0 0 0 0.69,0.33 5.42,5.42 0 0 0 1,0.19 l 1.19,0.11 -0.54,1.87 a 11.93,11.93 0 0 1 -2.14,-0.25 5.44,5.44 0 0 1 -1.5,-0.55 3,3 0 0 1 -1,-0.86 3.91,3.91 0 0 1 -0.55,-1.18 5.71,5.71 0 0 1 -1.84,-0.55 4.72,4.72 0 0 1 -1.47,-1.14 5.25,5.25 0 0 1 -1,-1.73 6.92,6.92 0 0 1 -0.35,-2.29 6.49,6.49 0 0 1 0.45,-2.5 5.33,5.33 0 0 1 1.21,-1.82 5,5 0 0 1 1.79,-1.13 6,6 0 0 1 2.1,-0.37 6.21,6.21 0 0 1 2.14,0.37 4.88,4.88 0 0 1 1.76,1.1 5.22,5.22 0 0 1 1.18,1.82 6.72,6.72 0 0 1 0.45,2.48 z m -8.46,0 a 5,5 0 0 0 0.2,1.47 3.36,3.36 0 0 0 0.58,1.13 2.54,2.54 0 0 0 0.92,0.73 3.15,3.15 0 0 0 2.49,0 2.52,2.52 0 0 0 0.93,-0.73 3.36,3.36 0 0 0 0.58,-1.13 5,5 0 0 0 0.2,-1.47 5.12,5.12 0 0 0 -0.2,-1.48 3.36,3.36 0 0 0 -0.58,-1.14 2.53,2.53 0 0 0 -0.93,-0.73 2.92,2.92 0 0 0 -1.26,-0.25 2.83,2.83 0 0 0 -1.25,0.26 2.64,2.64 0 0 0 -0.92,0.74 3.35,3.35 0 0 0 -0.58,1.14 5,5 0 0 0 -0.19,1.46 z" />
    <path
       inkscape:connector-curvature="0"
       id="path33"
       style="fill:#153649"
       d="m 123.63,23.66 a 13.18,13.18 0 0 1 -1.57,0.33 12.91,12.91 0 0 1 -2,0.15 4.78,4.78 0 0 1 -1.78,-0.29 2.71,2.71 0 0 1 -1.13,-0.81 3.15,3.15 0 0 1 -0.59,-1.24 6.68,6.68 0 0 1 -0.18,-1.58 v -4.69 h 2.38 v 4.4 a 3.41,3.41 0 0 0 0.3,1.66 1.21,1.21 0 0 0 1.14,0.51 h 0.54 l 0.51,-0.06 v -6.5 h 2.38 z" />
    <path
       inkscape:connector-curvature="0"
       id="path35"
       style="fill:#153649"
       d="m 128.9,15.31 a 5.51,5.51 0 0 1 1.76,0.24 2.73,2.73 0 0 1 1.13,0.69 2.53,2.53 0 0 1 0.6,1.09 5.37,5.37 0 0 1 0.18,1.42 v 5 q -0.51,0.11 -1.42,0.26 a 13.66,13.66 0 0 1 -2.21,0.15 7,7 0 0 1 -1.48,-0.14 3.22,3.22 0 0 1 -1.14,-0.47 2.16,2.16 0 0 1 -0.74,-0.86 3,3 0 0 1 -0.26,-1.3 2.46,2.46 0 0 1 0.3,-1.25 2.28,2.28 0 0 1 0.79,-0.82 3.58,3.58 0 0 1 1.14,-0.44 6.39,6.39 0 0 1 1.33,-0.14 7.62,7.62 0 0 1 0.82,0 3.72,3.72 0 0 1 0.58,0.1 v -0.22 a 1.32,1.32 0 0 0 -0.37,-1 1.78,1.78 0 0 0 -1.28,-0.37 8.16,8.16 0 0 0 -1.2,0.09 5.16,5.16 0 0 0 -1,0.25 l -0.3,-1.92 0.52,-0.14 0.68,-0.13 0.78,-0.1 q 0.37,0.01 0.79,0.01 z m 0.19,7 h 0.67 0.51 v -1.9 l -0.43,-0.06 h -0.53 a 4.69,4.69 0 0 0 -0.63,0 1.64,1.64 0 0 0 -0.52,0.15 0.89,0.89 0 0 0 -0.35,0.3 0.85,0.85 0 0 0 -0.13,0.48 0.82,0.82 0 0 0 0.38,0.78 2.08,2.08 0 0 0 1.03,0.22 z" />
    <path
       inkscape:connector-curvature="0"
       id="path37"
       style="fill:#153649"
       d="m 142.14,23.68 q -0.32,0.1 -0.74,0.18 c -0.28,0.06 -0.57,0.11 -0.87,0.15 l -0.93,0.1 q -0.47,0 -0.9,0 a 5.29,5.29 0 0 1 -1.86,-0.3 3.72,3.72 0 0 1 -1.38,-0.87 3.78,3.78 0 0 1 -0.86,-1.38 5.24,5.24 0 0 1 -0.3,-1.82 6.21,6.21 0 0 1 0.26,-1.85 4,4 0 0 1 0.74,-1.4 3.15,3.15 0 0 1 1.18,-0.88 3.94,3.94 0 0 1 1.59,-0.3 3.75,3.75 0 0 1 0.89,0.1 4.83,4.83 0 0 1 0.79,0.27 v -3.76 l 2.38,-0.38 z m -5.39,-4 a 2.92,2.92 0 0 0 0.5,1.78 1.71,1.71 0 0 0 1.47,0.67 h 0.59 l 0.45,-0.06 v -4.36 a 2.08,2.08 0 0 0 -0.58,-0.24 2.82,2.82 0 0 0 -0.73,-0.1 q -1.7,0 -1.7,2.31 z" />
    <path
       inkscape:connector-curvature="0"
       id="path39"
       style="fill:#153649"
       d="m 151.41,22 a 3.58,3.58 0 0 0 0.87,-0.09 1.59,1.59 0 0 0 0.55,-0.24 0.8,0.8 0 0 0 0.29,-0.36 1.29,1.29 0 0 0 0.08,-0.46 1.07,1.07 0 0 0 -0.51,-0.9 7.31,7.31 0 0 0 -1.76,-0.78 q -0.54,-0.19 -1.09,-0.44 a 4,4 0 0 1 -1,-0.62 3,3 0 0 1 -0.7,-0.91 2.85,2.85 0 0 1 -0.27,-1.3 3.23,3.23 0 0 1 0.29,-1.38 3,3 0 0 1 0.82,-1 3.74,3.74 0 0 1 1.28,-0.66 5.74,5.74 0 0 1 1.7,-0.23 6.79,6.79 0 0 1 3.28,0.77 l -0.72,2 a 6.86,6.86 0 0 0 -1,-0.42 4.49,4.49 0 0 0 -1.37,-0.18 2.51,2.51 0 0 0 -1.29,0.25 0.84,0.84 0 0 0 -0.39,0.76 0.88,0.88 0 0 0 0.14,0.51 1.41,1.41 0 0 0 0.41,0.38 3.56,3.56 0 0 0 0.61,0.3 l 0.76,0.28 q 0.86,0.32 1.5,0.63 a 4,4 0 0 1 1.06,0.73 2.64,2.64 0 0 1 0.63,1 3.92,3.92 0 0 1 0.21,1.36 2.89,2.89 0 0 1 -1.09,2.41 5.25,5.25 0 0 1 -3.28,0.86 9.17,9.17 0 0 1 -1.33,-0.09 8.6,8.6 0 0 1 -1,-0.22 5.9,5.9 0 0 1 -0.78,-0.27 6,6 0 0 1 -0.55,-0.27 l 0.7,-2 a 6.26,6.26 0 0 0 1.22,0.49 6.35,6.35 0 0 0 1.73,0.09 z" />
    <path
       inkscape:connector-curvature="0"
       id="path41"
       style="fill:#153649"
       d="m 157.14,19.8 a 5.14,5.14 0 0 1 0.34,-2 4.21,4.21 0 0 1 0.9,-1.4 3.76,3.76 0 0 1 1.29,-0.85 4,4 0 0 1 1.5,-0.29 3.72,3.72 0 0 1 2.83,1.14 4.52,4.52 0 0 1 1,3.22 q 0,0.21 0,0.46 c 0,0.17 0,0.31 0,0.44 h -5.41 a 1.58,1.58 0 0 0 0.69,1.17 2.76,2.76 0 0 0 1.63,0.43 6.88,6.88 0 0 0 1.29,-0.12 4.85,4.85 0 0 0 1,-0.3 l 0.32,1.94 a 3.3,3.3 0 0 1 -0.51,0.19 6.84,6.84 0 0 1 -0.71,0.17 q -0.39,0.07 -0.84,0.12 a 8.35,8.35 0 0 1 -0.9,0 5.31,5.31 0 0 1 -2,-0.34 3.85,3.85 0 0 1 -1.39,-0.92 3.65,3.65 0 0 1 -0.82,-1.38 5.49,5.49 0 0 1 -0.21,-1.68 z m 5.6,-0.91 a 2.47,2.47 0 0 0 -0.1,-0.59 1.48,1.48 0 0 0 -0.27,-0.51 1.45,1.45 0 0 0 -0.46,-0.37 1.51,1.51 0 0 0 -0.7,-0.14 1.6,1.6 0 0 0 -0.69,0.14 1.42,1.42 0 0 0 -0.48,0.36 1.61,1.61 0 0 0 -0.3,0.52 3.44,3.44 0 0 0 -0.15,0.6 z" />
    <path
       inkscape:connector-curvature="0"
       id="path43"
       style="fill:#153649"
       d="m 166.48,19.74 a 5.16,5.16 0 0 1 0.3,-1.78 3.94,3.94 0 0 1 0.86,-1.39 3.79,3.79 0 0 1 1.38,-0.9 5,5 0 0 1 1.86,-0.32 q 0.43,0 0.9,0 l 0.93,0.1 c 0.3,0 0.59,0.09 0.87,0.15 0.28,0.06 0.52,0.12 0.74,0.18 v 11.13 h -2.38 v -3.17 a 4.46,4.46 0 0 1 -0.83,0.27 4.28,4.28 0 0 1 -0.93,0.1 3.3,3.3 0 0 1 -2.74,-1.18 5,5 0 0 1 -0.96,-3.19 z m 2.43,0.06 q 0,2.29 1.7,2.29 a 2.82,2.82 0 0 0 0.73,-0.1 2.09,2.09 0 0 0 0.58,-0.24 v -4.3 l -0.45,-0.06 h -0.59 a 1.72,1.72 0 0 0 -1.47,0.66 2.89,2.89 0 0 0 -0.5,1.75 z" />
    <path
       inkscape:connector-curvature="0"
       id="path45"
       style="fill:#153649"
       d="m 183.73,23.66 a 13.14,13.14 0 0 1 -1.57,0.33 12.91,12.91 0 0 1 -2,0.15 4.78,4.78 0 0 1 -1.78,-0.29 2.71,2.71 0 0 1 -1.13,-0.81 3.15,3.15 0 0 1 -0.59,-1.24 6.68,6.68 0 0 1 -0.18,-1.58 v -4.69 h 2.38 v 4.4 a 3.42,3.42 0 0 0 0.3,1.66 1.21,1.21 0 0 0 1.14,0.51 h 0.54 l 0.51,-0.06 v -6.5 h 2.38 z" />
    <path
       inkscape:connector-curvature="0"
       id="path47"
       style="fill:#153649"
       d="m 185.57,19.8 a 5.14,5.14 0 0 1 0.34,-2 4.21,4.21 0 0 1 0.9,-1.4 3.75,3.75 0 0 1 1.29,-0.85 4,4 0 0 1 1.5,-0.29 3.72,3.72 0 0 1 2.83,1.1 4.52,4.52 0 0 1 1,3.22 c 0,0.14 0,0.29 0,0.46 0,0.17 0,0.31 0,0.44 H 188 a 1.58,1.58 0 0 0 0.69,1.17 2.76,2.76 0 0 0 1.63,0.43 6.89,6.89 0 0 0 1.29,-0.12 4.84,4.84 0 0 0 1,-0.3 l 0.32,1.94 a 3.3,3.3 0 0 1 -0.51,0.19 6.86,6.86 0 0 1 -0.71,0.17 q -0.39,0.07 -0.84,0.12 a 8.36,8.36 0 0 1 -0.9,0 5.31,5.31 0 0 1 -2,-0.34 3.85,3.85 0 0 1 -1.39,-0.92 3.66,3.66 0 0 1 -0.82,-1.38 5.49,5.49 0 0 1 -0.19,-1.64 z m 5.6,-0.91 a 2.47,2.47 0 0 0 -0.1,-0.59 1.49,1.49 0 0 0 -0.27,-0.51 1.46,1.46 0 0 0 -0.46,-0.37 1.51,1.51 0 0 0 -0.7,-0.14 1.61,1.61 0 0 0 -0.69,0.14 1.43,1.43 0 0 0 -0.48,0.36 1.61,1.61 0 0 0 -0.3,0.52 3.44,3.44 0 0 0 -0.15,0.6 z" />
    <path
       inkscape:connector-curvature="0"
       id="path49"
       style="fill:#153649"
       d="m 195.31,15.82 a 13.34,13.34 0 0 1 1.57,-0.33 12.91,12.91 0 0 1 2,-0.15 4.91,4.91 0 0 1 1.78,0.28 2.68,2.68 0 0 1 1.13,0.79 3.09,3.09 0 0 1 0.59,1.22 6.47,6.47 0 0 1 0.18,1.57 v 4.75 h -2.38 v -4.47 a 3.22,3.22 0 0 0 -0.3,-1.63 1.24,1.24 0 0 0 -1.14,-0.48 h -0.54 l -0.51,0.06 v 6.5 h -2.38 z" />
    <path
       inkscape:connector-curvature="0"
       id="path51"
       style="fill:#153649"
       d="m 204.33,19.74 a 5,5 0 0 1 0.3,-1.72 4,4 0 0 1 2.22,-2.36 4.49,4.49 0 0 1 1.82,-0.35 5.89,5.89 0 0 1 1.23,0.12 6,6 0 0 1 1.09,0.34 l -0.5,1.9 a 6,6 0 0 0 -0.74,-0.22 3.85,3.85 0 0 0 -0.9,-0.1 1.89,1.89 0 0 0 -1.58,0.66 2.7,2.7 0 0 0 -0.52,1.73 2.8,2.8 0 0 0 0.49,1.76 2,2 0 0 0 1.7,0.62 5.87,5.87 0 0 0 0.93,-0.08 3.92,3.92 0 0 0 0.91,-0.26 l 0.34,2 a 5.56,5.56 0 0 1 -1,0.3 6.89,6.89 0 0 1 -1.38,0.13 5.17,5.17 0 0 1 -2,-0.34 3.73,3.73 0 0 1 -1.37,-0.94 3.65,3.65 0 0 1 -0.78,-1.4 6,6 0 0 1 -0.26,-1.79 z" />
    <path
       inkscape:connector-curvature="0"
       id="path53"
       style="fill:#153649"
       d="m 211.94,19.8 a 5.14,5.14 0 0 1 0.34,-2 4.19,4.19 0 0 1 0.9,-1.4 3.75,3.75 0 0 1 1.29,-0.85 4,4 0 0 1 1.5,-0.29 3.72,3.72 0 0 1 2.83,1.1 4.52,4.52 0 0 1 1,3.22 c 0,0.14 0,0.29 0,0.46 0,0.17 0,0.31 0,0.44 h -5.41 a 1.58,1.58 0 0 0 0.69,1.17 2.76,2.76 0 0 0 1.63,0.43 6.89,6.89 0 0 0 1.29,-0.08 4.84,4.84 0 0 0 1,-0.3 l 0.32,1.94 a 3.3,3.3 0 0 1 -0.51,0.19 6.86,6.86 0 0 1 -0.71,0.17 q -0.39,0.07 -0.84,0.12 a 8.36,8.36 0 0 1 -0.9,0 5.31,5.31 0 0 1 -2,-0.34 3.85,3.85 0 0 1 -1.39,-0.92 3.64,3.64 0 0 1 -0.82,-1.38 5.46,5.46 0 0 1 -0.21,-1.68 z m 5.6,-0.91 a 2.47,2.47 0 0 0 -0.1,-0.59 1.49,1.49 0 0 0 -0.27,-0.51 1.46,1.46 0 0 0 -0.46,-0.37 1.51,1.51 0 0 0 -0.7,-0.14 1.61,1.61 0 0 0 -0.69,0.14 1.43,1.43 0 0 0 -0.48,0.36 1.61,1.61 0 0 0 -0.3,0.52 3.44,3.44 0 0 0 -0.15,0.6 z" />
    <path
       inkscape:connector-curvature="0"
       id="path55"
       style="fill:#153649"
       d="M 226.75,17.64 226,17.47 a 4.69,4.69 0 0 0 -0.93,-0.09 4.37,4.37 0 0 0 -0.54,0 3.2,3.2 0 0 0 -0.47,0.09 v 6.43 h -2.38 V 16 a 14.42,14.42 0 0 1 1.51,-0.42 8.72,8.72 0 0 1 1.94,-0.2 h 0.46 l 0.54,0.06 0.54,0.1 a 2.58,2.58 0 0 1 0.46,0.14 z" />
  </g>
  <g
     id="g69"
     transform="translate(0,2)">
    <path
       inkscape:connector-curvature="0"
       id="path59"
       style="fill:#153649"
       d="m 39.77,73.88 a 3.7,3.7 0 0 1 -2.83,-1 4.12,4.12 0 0 1 -1,-2.94 4.51,4.51 0 0 1 0.3,-1.69 3.63,3.63 0 0 1 0.83,-1.25 3.4,3.4 0 0 1 1.23,-0.78 4.45,4.45 0 0 1 1.55,-0.26 5,5 0 0 1 0.88,0.07 5.83,5.83 0 0 1 0.69,0.17 3.48,3.48 0 0 1 0.5,0.19 l 0.29,0.15 -0.49,1.39 a 4.17,4.17 0 0 0 -0.82,-0.32 3.91,3.91 0 0 0 -1.06,-0.13 2.35,2.35 0 0 0 -0.78,0.13 1.75,1.75 0 0 0 -0.67,0.42 2.11,2.11 0 0 0 -0.47,0.75 3.17,3.17 0 0 0 -0.18,1.12 4,4 0 0 0 0.12,1 2.09,2.09 0 0 0 0.37,0.79 1.79,1.79 0 0 0 0.68,0.52 2.4,2.4 0 0 0 1,0.19 4.55,4.55 0 0 0 0.67,0 4.81,4.81 0 0 0 0.53,-0.1 2.77,2.77 0 0 0 0.41,-0.14 l 0.32,-0.14 0.47,1.38 a 4,4 0 0 1 -1,0.4 6,6 0 0 1 -1.54,0.08 z" />
    <path
       inkscape:connector-curvature="0"
       id="path61"
       style="fill:#153649"
       d="m 48.51,72.25 v 1.47 H 43.42 V 66.1 h 1.72 v 6.15 z" />
    <path
       inkscape:connector-curvature="0"
       id="path63"
       style="fill:#153649"
       d="m 56.65,69.9 a 4.7,4.7 0 0 1 -0.29,1.72 3.54,3.54 0 0 1 -0.8,1.24 3.27,3.27 0 0 1 -1.2,0.75 4.37,4.37 0 0 1 -1.5,0.25 4.26,4.26 0 0 1 -1.47,-0.25 3.38,3.38 0 0 1 -1.21,-0.75 3.52,3.52 0 0 1 -0.81,-1.24 4.6,4.6 0 0 1 -0.3,-1.72 4.47,4.47 0 0 1 0.31,-1.72 3.67,3.67 0 0 1 0.83,-1.25 3.41,3.41 0 0 1 1.21,-0.76 4.15,4.15 0 0 1 1.45,-0.25 4.26,4.26 0 0 1 1.47,0.25 3.36,3.36 0 0 1 1.21,0.76 3.58,3.58 0 0 1 0.81,1.25 4.61,4.61 0 0 1 0.29,1.72 z m -5.82,0 a 3.46,3.46 0 0 0 0.14,1 2.31,2.31 0 0 0 0.4,0.78 1.75,1.75 0 0 0 0.63,0.5 2.17,2.17 0 0 0 1.71,0 1.74,1.74 0 0 0 0.64,-0.5 2.31,2.31 0 0 0 0.4,-0.78 3.46,3.46 0 0 0 0.14,-1 3.52,3.52 0 0 0 -0.14,-1 2.31,2.31 0 0 0 -0.4,-0.78 1.75,1.75 0 0 0 -0.64,-0.5 2,2 0 0 0 -0.85,-0.18 1.94,1.94 0 0 0 -0.86,0.18 1.81,1.81 0 0 0 -0.63,0.51 2.31,2.31 0 0 0 -0.4,0.78 3.48,3.48 0 0 0 -0.13,0.99 z" />
    <path
       inkscape:connector-curvature="0"
       id="path65"
       style="fill:#153649"
       d="m 61.56,73.88 a 3.7,3.7 0 0 1 -2.83,-1 4.12,4.12 0 0 1 -1,-2.94 4.51,4.51 0 0 1 0.3,-1.69 3.63,3.63 0 0 1 0.84,-1.25 3.4,3.4 0 0 1 1.23,-0.78 4.45,4.45 0 0 1 1.55,-0.26 5,5 0 0 1 0.88,0.07 5.83,5.83 0 0 1 0.69,0.17 3.48,3.48 0 0 1 0.5,0.19 l 0.29,0.15 -0.49,1.39 a 4.17,4.17 0 0 0 -0.82,-0.32 3.91,3.91 0 0 0 -1.06,-0.13 2.35,2.35 0 0 0 -0.78,0.13 1.75,1.75 0 0 0 -0.67,0.42 2.11,2.11 0 0 0 -0.47,0.75 3.17,3.17 0 0 0 -0.18,1.12 4,4 0 0 0 0.12,1 2.09,2.09 0 0 0 0.37,0.79 1.79,1.79 0 0 0 0.68,0.52 2.4,2.4 0 0 0 1,0.19 4.55,4.55 0 0 0 0.67,0 4.81,4.81 0 0 0 0.53,-0.1 2.77,2.77 0 0 0 0.41,-0.14 l 0.32,-0.14 0.47,1.38 a 4,4 0 0 1 -1,0.4 6,6 0 0 1 -1.55,0.08 z" />
    <path
       inkscape:connector-curvature="0"
       id="path67"
       style="fill:#153649"
       d="M 69.71,73.72 Q 69.48,73.35 69.16,72.92 68.84,72.49 68.48,72 68.12,71.56 67.72,71.16 a 8.13,8.13 0 0 0 -0.79,-0.71 v 3.23 H 65.21 V 66.1 h 1.72 V 69 q 0.66,-0.7 1.34,-1.45 l 1.26,-1.41 h 2 Q 70.79,67 70,67.88 69.21,68.76 68.35,69.6 a 13.06,13.06 0 0 1 1.76,1.81 22.61,22.61 0 0 1 1.63,2.31 z" />
  </g>
  <g
     id="g77">
    <path
       inkscape:connector-curvature="0"
       id="path71"
       style="fill:#153649"
       d="m 47.92,105.56 a 3.87,3.87 0 0 1 2.15,0.5 1.74,1.74 0 0 1 0.75,1.55 1.76,1.76 0 0 1 -0.3,1.07 2,2 0 0 1 -0.87,0.64 q 0.19,0.23 0.4,0.54 0.21,0.31 0.41,0.63 0.2,0.33 0.39,0.68 0.19,0.35 0.35,0.7 h -1.57 l -0.35,-0.62 q -0.18,-0.31 -0.36,-0.61 l -0.37,-0.56 q -0.18,-0.27 -0.36,-0.48 H 47.5 v 2.28 h -1.4 v -6.15 a 7.91,7.91 0 0 1 0.95,-0.13 q 0.49,-0.04 0.87,-0.04 z m 0.08,1.2 H 47.73 47.5 v 1.69 h 0.4 a 2.39,2.39 0 0 0 1.13,-0.2 0.72,0.72 0 0 0 0.34,-0.68 A 0.69,0.69 0 0 0 49,107 2.14,2.14 0 0 0 48,106.76 Z" />
    <path
       inkscape:connector-curvature="0"
       id="path73"
       style="fill:#153649"
       d="m 56,111.71 a 7.42,7.42 0 0 1 -0.88,0.18 7.23,7.23 0 0 1 -1.13,0.09 2.68,2.68 0 0 1 -1,-0.16 1.52,1.52 0 0 1 -0.63,-0.45 1.77,1.77 0 0 1 -0.33,-0.7 3.73,3.73 0 0 1 -0.1,-0.89 v -2.64 h 1.34 v 2.48 a 1.91,1.91 0 0 0 0.17,0.94 0.68,0.68 0 0 0 0.64,0.29 h 0.31 0.29 V 107.2 H 56 Z" />
    <path
       inkscape:connector-curvature="0"
       id="path75"
       style="fill:#153649"
       d="m 57.22,107.3 a 7.41,7.41 0 0 1 0.88,-0.18 7.23,7.23 0 0 1 1.13,-0.09 2.76,2.76 0 0 1 1,0.16 1.51,1.51 0 0 1 0.63,0.45 1.74,1.74 0 0 1 0.33,0.68 3.65,3.65 0 0 1 0.1,0.88 v 2.67 H 60 v -2.51 a 1.81,1.81 0 0 0 -0.17,-0.92 0.7,0.7 0 0 0 -0.64,-0.27 h -0.31 -0.29 v 3.65 h -1.37 z" />
  </g>
  <g
     id="g89"
     transform="translate(0,-4)">
    <path
       inkscape:connector-curvature="0"
       id="path79"
       style="fill:#153649"
       d="m 108.61,89.57 a 2,2 0 0 0 0.49,0 0.9,0.9 0 0 0 0.31,-0.13 0.45,0.45 0 0 0 0.16,-0.2 0.72,0.72 0 0 0 0,-0.26 0.6,0.6 0 0 0 -0.29,-0.51 4.14,4.14 0 0 0 -1,-0.44 q -0.31,-0.11 -0.61,-0.25 a 2.24,2.24 0 0 1 -0.55,-0.35 1.66,1.66 0 0 1 -0.4,-0.51 1.6,1.6 0 0 1 -0.15,-0.73 1.82,1.82 0 0 1 0.16,-0.78 1.66,1.66 0 0 1 0.46,-0.59 2.09,2.09 0 0 1 0.72,-0.37 3.23,3.23 0 0 1 1,-0.13 3.81,3.81 0 0 1 1.85,0.43 l -0.41,1.11 a 3.83,3.83 0 0 0 -0.58,-0.24 2.52,2.52 0 0 0 -0.77,-0.1 1.41,1.41 0 0 0 -0.72,0.14 0.47,0.47 0 0 0 -0.22,0.43 0.49,0.49 0 0 0 0.08,0.29 0.79,0.79 0 0 0 0.23,0.21 2,2 0 0 0 0.34,0.17 l 0.43,0.16 q 0.49,0.18 0.85,0.36 a 2.26,2.26 0 0 1 0.6,0.41 1.49,1.49 0 0 1 0.36,0.55 2.22,2.22 0 0 1 0.12,0.77 1.62,1.62 0 0 1 -0.61,1.35 3,3 0 0 1 -1.85,0.48 5.16,5.16 0 0 1 -0.75,0 4.89,4.89 0 0 1 -0.59,-0.12 3.33,3.33 0 0 1 -0.44,-0.15 l -0.31,-0.15 0.4,-1.12 a 3.4,3.4 0 0 0 1.69,0.4 z" />
    <path
       inkscape:connector-curvature="0"
       id="path81"
       style="fill:#153649"
       d="m 112,84.72 1.34,-0.22 v 1.4 H 115 V 87 h -1.61 v 1.67 a 1.32,1.32 0 0 0 0.15,0.68 0.64,0.64 0 0 0 0.6,0.25 2.58,2.58 0 0 0 0.45,0 2.26,2.26 0 0 0 0.42,-0.11 l 0.19,1 a 3.82,3.82 0 0 1 -0.54,0.17 3.16,3.16 0 0 1 -0.73,0.07 2.4,2.4 0 0 1 -0.91,-0.15 1.43,1.43 0 0 1 -0.58,-0.41 1.54,1.54 0 0 1 -0.3,-0.64 3.79,3.79 0 0 1 -0.09,-0.84 z" />
    <path
       inkscape:connector-curvature="0"
       id="path83"
       style="fill:#153649"
       d="m 115.65,88.31 a 2.89,2.89 0 0 1 0.19,-1.1 2.37,2.37 0 0 1 0.51,-0.79 2.12,2.12 0 0 1 0.72,-0.48 2.27,2.27 0 0 1 0.84,-0.16 2.09,2.09 0 0 1 1.59,0.62 2.54,2.54 0 0 1 0.58,1.81 c 0,0.08 0,0.16 0,0.26 0,0.1 0,0.18 0,0.25 h -3 a 0.89,0.89 0 0 0 0.39,0.66 1.56,1.56 0 0 0 0.92,0.24 3.88,3.88 0 0 0 0.72,-0.07 2.77,2.77 0 0 0 0.58,-0.17 l 0.18,1.09 -0.29,0.11 -0.4,0.09 -0.47,0.07 h -0.5 a 3,3 0 0 1 -1.11,-0.19 2.16,2.16 0 0 1 -0.78,-0.52 2,2 0 0 1 -0.46,-0.78 3.08,3.08 0 0 1 -0.21,-0.94 z m 3.15,-0.51 a 1.41,1.41 0 0 0 -0.06,-0.33 0.83,0.83 0 0 0 -0.15,-0.29 0.81,0.81 0 0 0 -0.26,-0.21 0.85,0.85 0 0 0 -0.39,-0.08 0.89,0.89 0 0 0 -0.39,0.08 0.79,0.79 0 0 0 -0.27,0.2 0.89,0.89 0 0 0 -0.17,0.29 1.89,1.89 0 0 0 -0.09,0.34 z" />
    <path
       inkscape:connector-curvature="0"
       id="path85"
       style="fill:#153649"
       d="m 125.53,88.27 a 3.47,3.47 0 0 1 -0.13,1 2.24,2.24 0 0 1 -0.4,0.77 1.79,1.79 0 0 1 -0.65,0.5 2.1,2.1 0 0 1 -0.89,0.18 2.43,2.43 0 0 1 -0.52,-0.05 2.49,2.49 0 0 1 -0.47,-0.15 v 1.78 h -1.34 v -6.24 l 0.41,-0.1 0.49,-0.09 0.52,-0.06 h 0.51 a 2.9,2.9 0 0 1 1,0.18 2.15,2.15 0 0 1 0.77,0.5 2.12,2.12 0 0 1 0.48,0.78 3,3 0 0 1 0.22,1 z m -1.37,0 a 1.62,1.62 0 0 0 -0.28,-1 1,1 0 0 0 -0.83,-0.37 h -0.33 -0.25 v 2.5 a 1.16,1.16 0 0 0 0.33,0.13 1.58,1.58 0 0 0 0.41,0.05 q 0.95,0.01 0.95,-1.27 z" />
    <path
       inkscape:connector-curvature="0"
       id="path87"
       style="fill:#153649"
       d="m 127.92,89.67 a 1.34,1.34 0 0 0 0.52,-0.07 0.28,0.28 0 0 0 0.15,-0.28 0.34,0.34 0 0 0 -0.2,-0.28 3.76,3.76 0 0 0 -0.6,-0.27 6,6 0 0 1 -0.57,-0.24 1.67,1.67 0 0 1 -0.44,-0.3 1.22,1.22 0 0 1 -0.28,-0.42 1.54,1.54 0 0 1 -0.1,-0.58 1.27,1.27 0 0 1 0.5,-1.05 2.15,2.15 0 0 1 1.36,-0.39 4.38,4.38 0 0 1 0.83,0.08 3.94,3.94 0 0 1 0.63,0.17 l -0.23,1 -0.51,-0.14 a 2.76,2.76 0 0 0 -0.62,-0.06 q -0.63,0 -0.63,0.35 a 0.36,0.36 0 0 0 0,0.14 0.31,0.31 0 0 0 0.11,0.12 l 0.22,0.13 0.36,0.15 a 5.51,5.51 0 0 1 0.73,0.32 1.73,1.73 0 0 1 0.45,0.34 1.06,1.06 0 0 1 0.23,0.41 1.81,1.81 0 0 1 0.07,0.52 1.2,1.2 0 0 1 -0.53,1.06 2.62,2.62 0 0 1 -1.49,0.36 4.29,4.29 0 0 1 -1,-0.11 4.22,4.22 0 0 1 -0.58,-0.18 l 0.23,-1.09 a 4.38,4.38 0 0 0 0.7,0.21 3.4,3.4 0 0 0 0.69,0.1 z" />
  </g>
  <g
     id="g101"
     transform="translate(4,-32)">
    <path
       inkscape:connector-curvature="0"
       id="path91"
       style="fill:#153649"
       d="m 96.74,127.4 a 3.87,3.87 0 0 1 2.15,0.5 1.74,1.74 0 0 1 0.75,1.55 1.76,1.76 0 0 1 -0.3,1.07 2,2 0 0 1 -0.87,0.64 q 0.19,0.23 0.4,0.54 0.21,0.31 0.41,0.63 0.2,0.33 0.39,0.68 0.19,0.35 0.35,0.7 h -1.58 l -0.35,-0.62 q -0.18,-0.31 -0.36,-0.61 l -0.37,-0.56 Q 97.18,131.65 97,131.44 h -0.69 v 2.28 h -1.4 v -6.15 a 7.91,7.91 0 0 1 0.95,-0.13 q 0.49,-0.04 0.88,-0.04 z m 0.08,1.2 h -0.27 -0.23 v 1.69 h 0.4 a 2.39,2.39 0 0 0 1.13,-0.2 0.72,0.72 0 0 0 0.34,-0.68 0.69,0.69 0 0 0 -0.35,-0.65 2.14,2.14 0 0 0 -1.02,-0.16 z" />
    <path
       inkscape:connector-curvature="0"
       id="path93"
       style="fill:#153649"
       d="m 102.3,128.85 a 3.11,3.11 0 0 1 1,0.13 1.54,1.54 0 0 1 0.63,0.39 1.43,1.43 0 0 1 0.34,0.61 3,3 0 0 1 0.1,0.8 v 2.79 l -0.8,0.15 a 7.73,7.73 0 0 1 -1.24,0.09 4,4 0 0 1 -0.83,-0.08 1.81,1.81 0 0 1 -0.64,-0.27 1.21,1.21 0 0 1 -0.41,-0.48 1.66,1.66 0 0 1 -0.14,-0.73 1.38,1.38 0 0 1 0.17,-0.7 1.28,1.28 0 0 1 0.45,-0.46 2,2 0 0 1 0.64,-0.25 3.6,3.6 0 0 1 0.75,-0.08 h 0.46 l 0.33,0.06 v -0.13 a 0.74,0.74 0 0 0 -0.21,-0.55 1,1 0 0 0 -0.72,-0.21 4.56,4.56 0 0 0 -0.68,0 2.91,2.91 0 0 0 -0.58,0.14 l -0.17,-1.08 0.25,0.01 0.38,-0.07 0.44,-0.05 z m 0.11,3.92 h 0.38 0.29 v -1 h -0.24 -0.3 -0.36 a 0.93,0.93 0 0 0 -0.29,0.09 0.5,0.5 0 0 0 -0.2,0.17 0.47,0.47 0 0 0 -0.07,0.27 0.46,0.46 0 0 0 0.21,0.44 1.17,1.17 0 0 0 0.58,0.03 z" />
    <path
       inkscape:connector-curvature="0"
       id="path95"
       style="fill:#153649"
       d="m 105.57,129.14 a 7.41,7.41 0 0 1 0.88,-0.18 7.23,7.23 0 0 1 1.13,-0.09 2.76,2.76 0 0 1 1,0.16 1.51,1.51 0 0 1 0.63,0.45 1.74,1.74 0 0 1 0.33,0.68 3.65,3.65 0 0 1 0.1,0.88 v 2.67 h -1.34 v -2.51 a 1.81,1.81 0 0 0 -0.17,-0.92 0.7,0.7 0 0 0 -0.64,-0.27 h -0.31 -0.29 v 3.65 h -1.34 z" />
    <path
       inkscape:connector-curvature="0"
       id="path97"
       style="fill:#153649"
       d="m 115,133.11 a 2.28,2.28 0 0 1 -0.59,1.72 2.56,2.56 0 0 1 -1.82,0.56 5,5 0 0 1 -0.86,-0.08 5.4,5.4 0 0 1 -0.8,-0.2 l 0.23,-1.12 a 3.91,3.91 0 0 0 0.66,0.2 3.86,3.86 0 0 0 0.79,0.07 1.09,1.09 0 0 0 0.81,-0.25 0.91,0.91 0 0 0 0.24,-0.65 v -0.17 a 2.15,2.15 0 0 1 -0.45,0.15 2.39,2.39 0 0 1 -0.5,0 1.92,1.92 0 0 1 -1.5,-0.58 2.35,2.35 0 0 1 -0.52,-1.62 2.67,2.67 0 0 1 0.16,-0.95 2,2 0 0 1 0.47,-0.73 2.11,2.11 0 0 1 0.68,-0.46 2.91,2.91 0 0 1 1,-0.17 h 0.5 l 0.51,0.06 0.48,0.09 0.41,0.1 z m -3,-1.92 q 0,1.13 0.91,1.13 a 1.34,1.34 0 0 0 0.39,-0.05 1.43,1.43 0 0 0 0.31,-0.13 V 130 h -0.23 -0.31 a 0.92,0.92 0 0 0 -0.79,0.35 1.45,1.45 0 0 0 -0.28,0.84 z" />
    <path
       inkscape:connector-curvature="0"
       id="path99"
       style="fill:#153649"
       d="m 116,131.38 a 2.89,2.89 0 0 1 0.19,-1.1 2.37,2.37 0 0 1 0.51,-0.79 2.12,2.12 0 0 1 0.72,-0.48 2.27,2.27 0 0 1 0.84,-0.16 2.09,2.09 0 0 1 1.59,0.62 2.54,2.54 0 0 1 0.58,1.81 c 0,0.08 0,0.16 0,0.26 0,0.1 0,0.18 0,0.25 h -3 a 0.89,0.89 0 0 0 0.39,0.66 1.56,1.56 0 0 0 0.92,0.24 3.88,3.88 0 0 0 0.72,-0.07 2.77,2.77 0 0 0 0.58,-0.17 l 0.18,1.09 -0.29,0.11 -0.4,0.09 -0.47,0.07 h -0.5 a 3,3 0 0 1 -1.11,-0.19 2.16,2.16 0 0 1 -0.78,-0.52 2,2 0 0 1 -0.46,-0.78 3.08,3.08 0 0 1 -0.21,-0.94 z m 3.15,-0.51 a 1.41,1.41 0 0 0 -0.06,-0.33 0.83,0.83 0 0 0 -0.15,-0.29 0.81,0.81 0 0 0 -0.26,-0.21 0.85,0.85 0 0 0 -0.39,-0.08 0.89,0.89 0 0 0 -0.39,0.08 0.79,0.79 0 0 0 -0.27,0.2 0.89,0.89 0 0 0 -0.17,0.29 1.89,1.89 0 0 0 -0.09,0.34 z" />
  </g>
  <g
     id="g111"
     transform="translate(-4,-8)">
    <path
       inkscape:connector-curvature="0"
       id="path103"
       style="fill:#153649"
       d="m 121.54,134.57 q 0.16,0.3 0.37,0.73 0.21,0.43 0.44,0.94 0.23,0.51 0.46,1 l 0.42,1 0.42,-1 q 0.23,-0.53 0.46,-1 0.23,-0.47 0.44,-0.94 0.21,-0.44 0.37,-0.73 h 1.28 q 0.09,0.62 0.17,1.39 0.08,0.77 0.14,1.6 0.06,0.83 0.11,1.67 0.05,0.84 0.09,1.58 h -1.37 q 0,-0.91 -0.07,-2 -0.07,-1.09 -0.14,-2.16 l -0.36,0.84 -0.39,0.92 -0.37,0.88 -0.31,0.72 h -1 l -0.31,-0.72 -0.37,-0.88 -0.39,-0.92 -0.36,-0.84 q -0.09,1.09 -0.14,2.16 -0.05,1.07 -0.07,2 h -1.37 q 0,-0.74 0.09,-1.58 0.09,-0.84 0.11,-1.67 0.06,-0.83 0.14,-1.6 0.08,-0.77 0.17,-1.39 z" />
    <path
       inkscape:connector-curvature="0"
       id="path105"
       style="fill:#153649"
       d="m 132.3,138.43 a 3.08,3.08 0 0 1 -0.16,1 2.22,2.22 0 0 1 -0.47,0.79 2.1,2.1 0 0 1 -0.73,0.51 2.44,2.44 0 0 1 -1,0.18 2.42,2.42 0 0 1 -0.95,-0.18 2.09,2.09 0 0 1 -0.73,-0.51 2.32,2.32 0 0 1 -0.48,-0.79 2.93,2.93 0 0 1 -0.17,-1 2.82,2.82 0 0 1 0.18,-1 2.3,2.3 0 0 1 0.49,-0.78 2.18,2.18 0 0 1 0.74,-0.5 2.53,2.53 0 0 1 1.87,0 2.13,2.13 0 0 1 0.73,0.5 2.29,2.29 0 0 1 0.48,0.78 2.9,2.9 0 0 1 0.2,1 z m -1.37,0 a 1.69,1.69 0 0 0 -0.25,-1 0.81,0.81 0 0 0 -0.71,-0.36 0.82,0.82 0 0 0 -0.71,0.36 1.66,1.66 0 0 0 -0.25,1 1.71,1.71 0 0 0 0.25,1 0.81,0.81 0 0 0 0.71,0.36 0.8,0.8 0 0 0 0.71,-0.36 1.73,1.73 0 0 0 0.25,-1 z" />
    <path
       inkscape:connector-curvature="0"
       id="path107"
       style="fill:#153649"
       d="m 137.51,140.65 -0.41,0.1 -0.49,0.09 -0.52,0.06 h -0.51 a 3,3 0 0 1 -1,-0.17 2.09,2.09 0 0 1 -0.77,-0.49 2.13,2.13 0 0 1 -0.48,-0.77 3,3 0 0 1 -0.17,-1 3.51,3.51 0 0 1 0.14,-1 2.27,2.27 0 0 1 0.41,-0.79 1.78,1.78 0 0 1 0.66,-0.5 2.22,2.22 0 0 1 0.9,-0.17 2.1,2.1 0 0 1 0.5,0.05 2.67,2.67 0 0 1 0.45,0.15 V 134 l 1.34,-0.22 z m -3,-2.25 a 1.64,1.64 0 0 0 0.28,1 1,1 0 0 0 0.83,0.38 h 0.33 0.25 v -2.48 a 1.16,1.16 0 0 0 -0.33,-0.14 1.58,1.58 0 0 0 -0.41,-0.05 q -0.98,0 -0.98,1.29 z" />
    <path
       inkscape:connector-curvature="0"
       id="path109"
       style="fill:#153649"
       d="m 138.55,138.47 a 2.89,2.89 0 0 1 0.19,-1.1 2.37,2.37 0 0 1 0.51,-0.79 2.12,2.12 0 0 1 0.72,-0.48 2.27,2.27 0 0 1 0.84,-0.16 2.09,2.09 0 0 1 1.59,0.62 2.54,2.54 0 0 1 0.58,1.81 c 0,0.08 0,0.16 0,0.26 0,0.1 0,0.18 0,0.25 h -3 a 0.89,0.89 0 0 0 0.39,0.66 1.56,1.56 0 0 0 0.92,0.24 3.88,3.88 0 0 0 0.72,-0.07 2.77,2.77 0 0 0 0.58,-0.17 l 0.18,1.09 -0.29,0.11 -0.4,0.09 -0.47,0.07 h -0.5 a 3,3 0 0 1 -1.11,-0.19 2.16,2.16 0 0 1 -0.78,-0.52 2,2 0 0 1 -0.46,-0.78 3.08,3.08 0 0 1 -0.21,-0.94 z m 3.15,-0.51 a 1.41,1.41 0 0 0 -0.06,-0.33 0.83,0.83 0 0 0 -0.15,-0.29 0.81,0.81 0 0 0 -0.26,-0.21 0.85,0.85 0 0 0 -0.39,-0.08 0.89,0.89 0 0 0 -0.39,0.08 0.79,0.79 0 0 0 -0.27,0.2 0.89,0.89 0 0 0 -0.17,0.29 1.89,1.89 0 0 0 -0.09,0.34 z" />
  </g>
  <g
     id="g123"
     transform="translate(4,-32)">
    <path
       inkscape:connector-curvature="0"
       id="path113"
       style="fill:#153649"
       d="m 151,127.4 a 3.87,3.87 0 0 1 2.15,0.5 1.74,1.74 0 0 1 0.75,1.55 1.76,1.76 0 0 1 -0.3,1.07 2,2 0 0 1 -0.87,0.64 q 0.19,0.23 0.4,0.54 0.21,0.31 0.41,0.63 0.2,0.33 0.39,0.68 0.19,0.35 0.35,0.7 h -1.57 l -0.35,-0.62 q -0.18,-0.31 -0.36,-0.61 l -0.37,-0.56 q -0.18,-0.27 -0.36,-0.48 h -0.69 v 2.28 h -1.4 v -6.15 a 7.91,7.91 0 0 1 0.95,-0.13 q 0.51,-0.04 0.87,-0.04 z m 0.08,1.2 h -0.27 -0.23 v 1.69 h 0.4 a 2.39,2.39 0 0 0 1.13,-0.2 0.72,0.72 0 0 0 0.34,-0.68 0.69,0.69 0 0 0 -0.35,-0.65 2.14,2.14 0 0 0 -0.99,-0.16 z" />
    <path
       inkscape:connector-curvature="0"
       id="path115"
       style="fill:#153649"
       d="m 156.59,128.85 a 3.11,3.11 0 0 1 1,0.13 1.54,1.54 0 0 1 0.63,0.39 1.43,1.43 0 0 1 0.34,0.61 3,3 0 0 1 0.1,0.8 v 2.79 l -0.8,0.15 a 7.73,7.73 0 0 1 -1.24,0.09 4,4 0 0 1 -0.83,-0.08 1.81,1.81 0 0 1 -0.64,-0.27 1.21,1.21 0 0 1 -0.41,-0.48 1.66,1.66 0 0 1 -0.14,-0.73 1.38,1.38 0 0 1 0.17,-0.7 1.28,1.28 0 0 1 0.45,-0.46 2,2 0 0 1 0.64,-0.25 3.6,3.6 0 0 1 0.75,-0.08 h 0.46 l 0.33,0.06 v -0.13 a 0.74,0.74 0 0 0 -0.21,-0.55 1,1 0 0 0 -0.72,-0.21 4.56,4.56 0 0 0 -0.68,0 2.91,2.91 0 0 0 -0.58,0.14 l -0.17,-1.08 0.29,-0.08 0.38,-0.07 0.44,-0.05 z m 0.11,3.92 h 0.38 0.29 v -1 h -0.24 -0.3 -0.36 a 0.93,0.93 0 0 0 -0.29,0.09 0.5,0.5 0 0 0 -0.2,0.17 0.47,0.47 0 0 0 -0.07,0.27 0.46,0.46 0 0 0 0.21,0.44 1.17,1.17 0 0 0 0.58,0.03 z" />
    <path
       inkscape:connector-curvature="0"
       id="path117"
       style="fill:#153649"
       d="m 159.87,129.14 a 7.41,7.41 0 0 1 0.88,-0.18 7.23,7.23 0 0 1 1.13,-0.09 2.76,2.76 0 0 1 1,0.16 1.51,1.51 0 0 1 0.63,0.45 1.74,1.74 0 0 1 0.33,0.68 3.65,3.65 0 0 1 0.1,0.88 v 2.67 h -1.34 v -2.51 a 1.81,1.81 0 0 0 -0.17,-0.92 0.7,0.7 0 0 0 -0.64,-0.27 h -0.31 -0.29 v 3.65 h -1.34 z" />
    <path
       inkscape:connector-curvature="0"
       id="path119"
       style="fill:#153649"
       d="m 169.26,133.11 a 2.28,2.28 0 0 1 -0.59,1.72 2.56,2.56 0 0 1 -1.82,0.56 5,5 0 0 1 -0.86,-0.08 5.4,5.4 0 0 1 -0.8,-0.2 l 0.23,-1.12 a 3.9,3.9 0 0 0 0.66,0.2 3.86,3.86 0 0 0 0.79,0.07 1.09,1.09 0 0 0 0.81,-0.25 0.9,0.9 0 0 0 0.24,-0.65 v -0.17 a 2.13,2.13 0 0 1 -0.45,0.15 2.39,2.39 0 0 1 -0.5,0 1.92,1.92 0 0 1 -1.5,-0.58 2.35,2.35 0 0 1 -0.52,-1.62 2.67,2.67 0 0 1 0.16,-0.95 2,2 0 0 1 0.47,-0.73 2.11,2.11 0 0 1 0.76,-0.47 2.92,2.92 0 0 1 1,-0.17 h 0.5 l 0.51,0.06 0.48,0.09 0.41,0.1 z m -2.94,-1.93 q 0,1.13 0.91,1.13 a 1.34,1.34 0 0 0 0.39,-0.05 1.43,1.43 0 0 0 0.31,-0.13 V 130 h -0.23 -0.32 a 0.92,0.92 0 0 0 -0.79,0.35 1.46,1.46 0 0 0 -0.28,0.84 z" />
    <path
       inkscape:connector-curvature="0"
       id="path121"
       style="fill:#153649"
       d="m 170.29,131.38 a 2.88,2.88 0 0 1 0.19,-1.1 2.37,2.37 0 0 1 0.51,-0.79 2.13,2.13 0 0 1 0.72,-0.48 2.27,2.27 0 0 1 0.84,-0.16 2.09,2.09 0 0 1 1.59,0.62 2.54,2.54 0 0 1 0.58,1.81 c 0,0.08 0,0.16 0,0.26 0,0.1 0,0.18 0,0.25 h -3 a 0.89,0.89 0 0 0 0.39,0.66 1.55,1.55 0 0 0 0.92,0.24 3.88,3.88 0 0 0 0.72,-0.07 2.76,2.76 0 0 0 0.58,-0.17 l 0.18,1.09 -0.29,0.11 -0.4,0.09 -0.47,0.07 h -0.5 a 3,3 0 0 1 -1.11,-0.19 2.16,2.16 0 0 1 -0.78,-0.52 2,2 0 0 1 -0.46,-0.78 3.07,3.07 0 0 1 -0.21,-0.94 z m 3.15,-0.51 a 1.37,1.37 0 0 0 -0.06,-0.33 0.83,0.83 0 0 0 -0.15,-0.29 0.8,0.8 0 0 0 -0.23,-0.25 0.85,0.85 0 0 0 -0.39,-0.08 0.9,0.9 0 0 0 -0.39,0.08 0.78,0.78 0 0 0 -0.27,0.2 0.9,0.9 0 0 0 -0.17,0.29 1.89,1.89 0 0 0 -0.08,0.34 z" />
  </g>
  <g
     id="g133"
     transform="translate(-4,-8)">
    <path
       inkscape:connector-curvature="0"
       id="path125"
       style="fill:#153649"
       d="m 175.84,134.57 q 0.16,0.3 0.38,0.73 0.22,0.43 0.44,0.94 0.23,0.51 0.46,1 l 0.42,1 0.42,-1 q 0.23,-0.53 0.46,-1 0.23,-0.47 0.44,-0.94 0.21,-0.44 0.38,-0.73 h 1.28 q 0.09,0.62 0.17,1.39 0.08,0.77 0.13,1.6 0.06,0.83 0.11,1.67 c 0,0.56 0.06,1.08 0.08,1.58 h -1.37 q 0,-0.91 -0.07,-2 -0.07,-1.09 -0.14,-2.16 l -0.36,0.84 -0.39,0.92 -0.37,0.88 L 178,140 h -1 l -0.31,-0.72 -0.37,-0.88 -0.39,-0.92 -0.36,-0.84 q -0.09,1.09 -0.13,2.16 -0.04,1.07 -0.07,2 H 174 q 0,-0.74 0.09,-1.58 0.09,-0.84 0.11,-1.67 0.06,-0.83 0.14,-1.6 0.08,-0.77 0.17,-1.39 z" />
    <path
       inkscape:connector-curvature="0"
       id="path127"
       style="fill:#153649"
       d="m 186.59,138.43 a 3.07,3.07 0 0 1 -0.16,1 2.21,2.21 0 0 1 -0.47,0.79 2.1,2.1 0 0 1 -0.73,0.51 2.45,2.45 0 0 1 -1,0.18 2.42,2.42 0 0 1 -0.95,-0.18 2.1,2.1 0 0 1 -0.73,-0.51 2.31,2.31 0 0 1 -0.48,-0.79 2.93,2.93 0 0 1 -0.17,-1 2.82,2.82 0 0 1 0.18,-1 2.3,2.3 0 0 1 0.49,-0.78 2.18,2.18 0 0 1 0.74,-0.5 2.38,2.38 0 0 1 0.93,-0.18 2.4,2.4 0 0 1 0.94,0.18 2.14,2.14 0 0 1 0.73,0.5 2.3,2.3 0 0 1 0.48,0.78 2.89,2.89 0 0 1 0.2,1 z m -1.37,0 a 1.69,1.69 0 0 0 -0.25,-1 0.81,0.81 0 0 0 -0.71,-0.36 0.82,0.82 0 0 0 -0.71,0.36 1.66,1.66 0 0 0 -0.25,1 1.71,1.71 0 0 0 0.25,1 0.81,0.81 0 0 0 0.71,0.36 0.8,0.8 0 0 0 0.71,-0.36 1.73,1.73 0 0 0 0.26,-1 z" />
    <path
       inkscape:connector-curvature="0"
       id="path129"
       style="fill:#153649"
       d="m 191.81,140.65 -0.41,0.1 -0.49,0.09 -0.52,0.06 h -0.51 a 3,3 0 0 1 -1,-0.17 2.09,2.09 0 0 1 -0.77,-0.49 2.13,2.13 0 0 1 -0.48,-0.77 3,3 0 0 1 -0.17,-1 3.51,3.51 0 0 1 0.14,-1 2.26,2.26 0 0 1 0.41,-0.79 1.78,1.78 0 0 1 0.66,-0.5 2.22,2.22 0 0 1 0.9,-0.17 2.1,2.1 0 0 1 0.5,0.05 2.7,2.7 0 0 1 0.45,0.15 V 134 l 1.34,-0.22 z m -3,-2.25 a 1.64,1.64 0 0 0 0.28,1 1,1 0 0 0 0.83,0.38 h 0.33 0.25 v -2.48 a 1.16,1.16 0 0 0 -0.33,-0.14 1.59,1.59 0 0 0 -0.41,-0.05 q -0.99,0 -0.99,1.29 z" />
    <path
       inkscape:connector-curvature="0"
       id="path131"
       style="fill:#153649"
       d="m 192.84,138.47 a 2.9,2.9 0 0 1 0.19,-1.1 2.37,2.37 0 0 1 0.51,-0.79 2.12,2.12 0 0 1 0.72,-0.48 2.26,2.26 0 0 1 0.84,-0.16 2.1,2.1 0 0 1 1.59,0.62 2.54,2.54 0 0 1 0.58,1.81 c 0,0.08 0,0.16 0,0.26 0,0.1 0,0.18 0,0.25 h -3 a 0.89,0.89 0 0 0 0.39,0.66 1.56,1.56 0 0 0 0.92,0.24 3.88,3.88 0 0 0 0.72,-0.07 2.77,2.77 0 0 0 0.58,-0.17 l 0.18,1.09 -0.29,0.11 -0.4,0.09 -0.47,0.07 h -0.5 a 3,3 0 0 1 -1.11,-0.19 2.16,2.16 0 0 1 -0.78,-0.52 2,2 0 0 1 -0.46,-0.78 3.1,3.1 0 0 1 -0.21,-0.94 z M 196,138 a 1.47,1.47 0 0 0 -0.06,-0.33 0.81,0.81 0 0 0 -0.41,-0.5 0.85,0.85 0 0 0 -0.39,-0.08 0.89,0.89 0 0 0 -0.39,0.08 0.8,0.8 0 0 0 -0.27,0.2 0.89,0.89 0 0 0 -0.17,0.29 1.89,1.89 0 0 0 -0.09,0.34 z" />
  </g>
  <g
     id="g145"
     transform="translate(4,-32)">
    <path
       inkscape:connector-curvature="0"
       id="path135"
       style="fill:#153649"
       d="m 205.33,127.4 a 3.87,3.87 0 0 1 2.15,0.5 2,2 0 0 1 0.45,2.62 2,2 0 0 1 -0.87,0.64 q 0.19,0.23 0.4,0.54 c 0.14,0.2 0.27,0.41 0.41,0.63 0.14,0.22 0.27,0.45 0.39,0.68 0.12,0.23 0.24,0.47 0.35,0.7 H 207 l -0.35,-0.62 q -0.18,-0.31 -0.36,-0.61 l -0.37,-0.56 c -0.12,-0.18 -0.24,-0.34 -0.36,-0.48 h -0.69 v 2.28 h -1.4 v -6.15 a 7.91,7.91 0 0 1 0.95,-0.13 q 0.52,-0.04 0.91,-0.04 z m 0.08,1.2 h -0.27 -0.23 v 1.69 h 0.4 a 2.4,2.4 0 0 0 1.13,-0.2 0.72,0.72 0 0 0 0.34,-0.68 0.69,0.69 0 0 0 -0.35,-0.65 2.14,2.14 0 0 0 -1.02,-0.16 z" />
    <path
       inkscape:connector-curvature="0"
       id="path137"
       style="fill:#153649"
       d="m 210.89,128.85 a 3.11,3.11 0 0 1 1,0.13 1.54,1.54 0 0 1 0.63,0.39 1.43,1.43 0 0 1 0.34,0.61 3,3 0 0 1 0.1,0.8 v 2.79 l -0.8,0.15 a 7.74,7.74 0 0 1 -1.24,0.09 4,4 0 0 1 -0.83,-0.08 1.81,1.81 0 0 1 -0.64,-0.27 1.21,1.21 0 0 1 -0.45,-0.46 1.65,1.65 0 0 1 -0.14,-0.73 1.38,1.38 0 0 1 0.17,-0.7 1.27,1.27 0 0 1 0.45,-0.46 2,2 0 0 1 0.64,-0.25 3.6,3.6 0 0 1 0.75,-0.08 h 0.46 l 0.33,0.06 v -0.13 a 0.74,0.74 0 0 0 -0.21,-0.55 1,1 0 0 0 -0.72,-0.21 4.55,4.55 0 0 0 -0.67,0 2.9,2.9 0 0 0 -0.58,0.14 l -0.17,-1.08 0.29,-0.08 0.38,-0.07 0.44,-0.05 z m 0.11,3.92 h 0.38 0.29 v -1 h -0.24 -0.3 -0.36 a 0.93,0.93 0 0 0 -0.29,0.09 0.5,0.5 0 0 0 -0.2,0.17 0.48,0.48 0 0 0 -0.07,0.27 0.46,0.46 0 0 0 0.21,0.44 1.17,1.17 0 0 0 0.58,0.03 z" />
    <path
       inkscape:connector-curvature="0"
       id="path139"
       style="fill:#153649"
       d="M 214.16,129.14 A 7.44,7.44 0 0 1 215,129 a 7.22,7.22 0 0 1 1.13,-0.09 2.76,2.76 0 0 1 1,0.16 1.5,1.5 0 0 1 0.63,0.45 1.74,1.74 0 0 1 0.33,0.68 3.62,3.62 0 0 1 0.1,0.88 v 2.67 h -1.34 v -2.55 a 1.81,1.81 0 0 0 -0.17,-0.92 0.7,0.7 0 0 0 -0.64,-0.27 h -0.31 -0.29 v 3.65 h -1.34 z" />
    <path
       inkscape:connector-curvature="0"
       id="path141"
       style="fill:#153649"
       d="m 223.55,133.11 a 2.28,2.28 0 0 1 -0.59,1.72 2.56,2.56 0 0 1 -1.82,0.56 5,5 0 0 1 -0.86,-0.08 5.39,5.39 0 0 1 -0.8,-0.2 l 0.23,-1.12 a 3.91,3.91 0 0 0 0.66,0.2 3.86,3.86 0 0 0 0.79,0.07 1.09,1.09 0 0 0 0.84,-0.26 0.9,0.9 0 0 0 0.24,-0.65 v -0.17 a 2.13,2.13 0 0 1 -0.45,0.15 2.39,2.39 0 0 1 -0.5,0 1.92,1.92 0 0 1 -1.5,-0.58 2.35,2.35 0 0 1 -0.52,-1.62 2.66,2.66 0 0 1 0.16,-0.95 2,2 0 0 1 0.47,-0.73 2.11,2.11 0 0 1 0.76,-0.47 2.92,2.92 0 0 1 1,-0.17 h 0.5 l 0.51,0.06 0.48,0.09 0.41,0.1 z m -2.94,-1.93 q 0,1.13 0.91,1.13 a 1.34,1.34 0 0 0 0.39,-0.05 1.43,1.43 0 0 0 0.31,-0.13 V 130 h -0.23 -0.32 a 0.92,0.92 0 0 0 -0.79,0.35 1.46,1.46 0 0 0 -0.27,0.84 z" />
    <path
       inkscape:connector-curvature="0"
       id="path143"
       style="fill:#153649"
       d="m 224.59,131.38 a 2.88,2.88 0 0 1 0.19,-1.1 2.37,2.37 0 0 1 0.51,-0.79 2.13,2.13 0 0 1 0.71,-0.49 2.27,2.27 0 0 1 0.84,-0.16 2.09,2.09 0 0 1 1.59,0.62 2.54,2.54 0 0 1 0.58,1.81 c 0,0.08 0,0.16 0,0.26 0,0.1 0,0.18 0,0.25 h -3 a 0.89,0.89 0 0 0 0.39,0.66 1.55,1.55 0 0 0 0.92,0.24 3.88,3.88 0 0 0 0.72,-0.07 2.76,2.76 0 0 0 0.58,-0.17 l 0.18,1.09 -0.29,0.11 -0.4,0.09 -0.47,0.07 h -0.5 a 3,3 0 0 1 -1.11,-0.19 2.16,2.16 0 0 1 -0.78,-0.52 2,2 0 0 1 -0.46,-0.78 3.07,3.07 0 0 1 -0.2,-0.93 z m 3.15,-0.51 a 1.37,1.37 0 0 0 -0.06,-0.33 0.83,0.83 0 0 0 -0.15,-0.29 0.8,0.8 0 0 0 -0.26,-0.21 0.85,0.85 0 0 0 -0.39,-0.08 0.9,0.9 0 0 0 -0.39,0.08 0.78,0.78 0 0 0 -0.27,0.2 0.9,0.9 0 0 0 -0.17,0.29 1.89,1.89 0 0 0 -0.08,0.34 z" />
  </g>
  <g
     id="g155"
     transform="translate(-4,-8)">
    <path
       inkscape:connector-curvature="0"
       id="path147"
       style="fill:#153649"
       d="m 230.13,134.57 q 0.16,0.3 0.38,0.73 0.22,0.43 0.44,0.94 0.23,0.51 0.46,1 l 0.42,1 0.42,-1 q 0.23,-0.53 0.46,-1 0.23,-0.47 0.44,-0.94 0.21,-0.44 0.38,-0.73 h 1.28 q 0.09,0.62 0.17,1.39 0.08,0.77 0.13,1.6 0.06,0.83 0.11,1.67 c 0,0.56 0.06,1.08 0.08,1.58 h -1.37 q 0,-0.91 -0.07,-2 -0.07,-1.09 -0.14,-2.16 l -0.36,0.84 -0.39,0.92 -0.37,0.88 -0.31,0.72 h -1 l -0.31,-0.72 -0.37,-0.88 -0.39,-0.92 -0.36,-0.84 q -0.09,1.09 -0.13,2.16 -0.04,1.07 -0.07,2 h -1.36 q 0,-0.74 0.09,-1.58 0.09,-0.84 0.11,-1.67 0.06,-0.83 0.14,-1.6 0.08,-0.77 0.17,-1.39 z" />
    <path
       inkscape:connector-curvature="0"
       id="path149"
       style="fill:#153649"
       d="m 240.89,138.43 a 3.07,3.07 0 0 1 -0.16,1 2.21,2.21 0 0 1 -0.47,0.79 2.1,2.1 0 0 1 -0.73,0.51 2.45,2.45 0 0 1 -1,0.18 2.42,2.42 0 0 1 -0.95,-0.18 2.1,2.1 0 0 1 -0.73,-0.51 2.31,2.31 0 0 1 -0.48,-0.79 2.93,2.93 0 0 1 -0.17,-1 2.82,2.82 0 0 1 0.18,-1 2.3,2.3 0 0 1 0.49,-0.78 2.18,2.18 0 0 1 0.74,-0.5 2.38,2.38 0 0 1 0.93,-0.18 2.4,2.4 0 0 1 0.94,0.18 2.14,2.14 0 0 1 0.73,0.5 2.3,2.3 0 0 1 0.48,0.78 2.89,2.89 0 0 1 0.2,1 z m -1.37,0 a 1.69,1.69 0 0 0 -0.25,-1 0.81,0.81 0 0 0 -0.71,-0.36 0.82,0.82 0 0 0 -0.71,0.36 1.66,1.66 0 0 0 -0.25,1 1.71,1.71 0 0 0 0.25,1 0.81,0.81 0 0 0 0.71,0.36 0.8,0.8 0 0 0 0.71,-0.36 1.73,1.73 0 0 0 0.25,-1 z" />
    <path
       inkscape:connector-curvature="0"
       id="path151"
       style="fill:#153649"
       d="m 246.1,140.65 -0.41,0.1 -0.49,0.09 -0.52,0.06 h -0.51 a 3,3 0 0 1 -1,-0.17 2.09,2.09 0 0 1 -0.77,-0.49 2.13,2.13 0 0 1 -0.48,-0.77 3,3 0 0 1 -0.17,-1 3.51,3.51 0 0 1 0.14,-1 2.26,2.26 0 0 1 0.41,-0.79 1.78,1.78 0 0 1 0.66,-0.5 2.22,2.22 0 0 1 0.9,-0.17 2.1,2.1 0 0 1 0.5,0.05 2.7,2.7 0 0 1 0.45,0.15 V 134 l 1.34,-0.22 z m -3,-2.25 a 1.64,1.64 0 0 0 0.28,1 1,1 0 0 0 0.83,0.38 h 0.33 0.25 v -2.48 a 1.16,1.16 0 0 0 -0.33,-0.14 1.59,1.59 0 0 0 -0.41,-0.05 q -0.98,0 -0.98,1.29 z" />
    <path
       inkscape:connector-curvature="0"
       id="path153"
       style="fill:#153649"
       d="m 247.14,138.47 a 2.9,2.9 0 0 1 0.19,-1.1 2.37,2.37 0 0 1 0.51,-0.79 2.12,2.12 0 0 1 0.72,-0.48 2.26,2.26 0 0 1 0.84,-0.16 2.1,2.1 0 0 1 1.59,0.62 2.54,2.54 0 0 1 0.58,1.81 c 0,0.08 0,0.16 0,0.26 0,0.1 0,0.18 0,0.25 h -3 a 0.89,0.89 0 0 0 0.39,0.66 1.56,1.56 0 0 0 0.92,0.24 3.88,3.88 0 0 0 0.72,-0.07 2.77,2.77 0 0 0 0.58,-0.17 l 0.18,1.09 -0.29,0.11 -0.4,0.09 -0.47,0.07 h -0.5 a 3,3 0 0 1 -1.11,-0.19 2.16,2.16 0 0 1 -0.78,-0.52 2,2 0 0 1 -0.46,-0.78 3.1,3.1 0 0 1 -0.21,-0.94 z m 3.15,-0.51 a 1.47,1.47 0 0 0 -0.06,-0.33 0.81,0.81 0 0 0 -0.41,-0.5 0.85,0.85 0 0 0 -0.39,-0.08 0.89,0.89 0 0 0 -0.39,0.08 0.8,0.8 0 0 0 -0.27,0.2 0.89,0.89 0 0 0 -0.17,0.29 1.89,1.89 0 0 0 -0.09,0.34 z" />
  </g>
  <g
     id="g167"
     transform="translate(4,-32)">
    <path
       inkscape:connector-curvature="0"
       id="path157"
       style="fill:#153649"
       d="m 259.62,127.4 a 3.87,3.87 0 0 1 2.15,0.5 1.74,1.74 0 0 1 0.75,1.55 1.76,1.76 0 0 1 -0.3,1.07 2,2 0 0 1 -0.87,0.64 c 0.13,0.16 0.26,0.33 0.4,0.54 0.14,0.21 0.27,0.41 0.41,0.63 0.14,0.22 0.27,0.45 0.39,0.68 0.12,0.23 0.24,0.47 0.35,0.7 h -1.57 l -0.35,-0.62 q -0.18,-0.31 -0.36,-0.61 l -0.37,-0.56 a 5.7,5.7 0 0 0 -0.36,-0.48 h -0.69 v 2.28 h -1.4 v -6.15 a 7.86,7.86 0 0 1 0.95,-0.13 c 0.32,-0.03 0.61,-0.04 0.87,-0.04 z m 0.08,1.2 h -0.27 -0.23 v 1.69 h 0.4 a 2.4,2.4 0 0 0 1.13,-0.2 0.72,0.72 0 0 0 0.34,-0.68 0.69,0.69 0 0 0 -0.35,-0.65 2.14,2.14 0 0 0 -1.02,-0.16 z" />
    <path
       inkscape:connector-curvature="0"
       id="path159"
       style="fill:#153649"
       d="m 265.18,128.85 a 3.11,3.11 0 0 1 1,0.13 1.54,1.54 0 0 1 0.63,0.39 1.41,1.41 0 0 1 0.34,0.61 3,3 0 0 1 0.1,0.8 v 2.79 l -0.8,0.15 a 7.74,7.74 0 0 1 -1.24,0.09 3.94,3.94 0 0 1 -0.83,-0.08 1.81,1.81 0 0 1 -0.64,-0.27 1.21,1.21 0 0 1 -0.41,-0.48 1.67,1.67 0 0 1 -0.14,-0.73 1.38,1.38 0 0 1 0.17,-0.7 1.27,1.27 0 0 1 0.45,-0.46 2,2 0 0 1 0.64,-0.25 3.6,3.6 0 0 1 0.75,-0.08 h 0.46 l 0.33,0.06 v -0.13 a 0.74,0.74 0 0 0 -0.21,-0.55 1,1 0 0 0 -0.78,-0.14 4.55,4.55 0 0 0 -0.67,0 2.9,2.9 0 0 0 -0.58,0.14 l -0.17,-1.08 0.29,-0.08 0.38,-0.07 0.44,-0.05 z m 0.11,3.92 h 0.38 0.29 v -1 h -0.24 -0.3 -0.36 a 0.93,0.93 0 0 0 -0.29,0.09 0.5,0.5 0 0 0 -0.2,0.17 0.48,0.48 0 0 0 -0.07,0.27 0.46,0.46 0 0 0 0.21,0.44 1.17,1.17 0 0 0 0.58,0.03 z" />
    <path
       inkscape:connector-curvature="0"
       id="path161"
       style="fill:#153649"
       d="m 268.46,129.14 a 7.4,7.4 0 0 1 0.88,-0.18 7.22,7.22 0 0 1 1.13,-0.09 2.77,2.77 0 0 1 1,0.16 1.5,1.5 0 0 1 0.63,0.45 1.74,1.74 0 0 1 0.33,0.68 3.67,3.67 0 0 1 0.1,0.88 v 2.67 h -1.33 v -2.51 a 1.82,1.82 0 0 0 -0.17,-0.92 0.7,0.7 0 0 0 -0.64,-0.27 h -0.31 -0.29 v 3.65 h -1.34 z" />
    <path
       inkscape:connector-curvature="0"
       id="path163"
       style="fill:#153649"
       d="m 277.85,133.11 a 2.28,2.28 0 0 1 -0.59,1.72 2.56,2.56 0 0 1 -1.82,0.56 5,5 0 0 1 -0.86,-0.08 5.35,5.35 0 0 1 -0.8,-0.2 L 274,134 a 3.93,3.93 0 0 0 0.66,0.2 3.87,3.87 0 0 0 0.79,0.07 1.09,1.09 0 0 0 0.82,-0.25 0.9,0.9 0 0 0 0.24,-0.65 v -0.17 a 2.13,2.13 0 0 1 -0.45,0.15 2.39,2.39 0 0 1 -0.5,0 1.92,1.92 0 0 1 -1.5,-0.58 2.35,2.35 0 0 1 -0.52,-1.62 2.66,2.66 0 0 1 0.16,-0.95 2,2 0 0 1 0.47,-0.73 2.11,2.11 0 0 1 0.76,-0.47 2.91,2.91 0 0 1 1,-0.17 h 0.5 l 0.51,0.06 0.48,0.09 0.41,0.1 z m -2.94,-1.93 q 0,1.13 0.91,1.13 a 1.35,1.35 0 0 0 0.39,-0.05 1.45,1.45 0 0 0 0.31,-0.13 V 130 H 276.29 276 a 0.92,0.92 0 0 0 -0.79,0.35 1.46,1.46 0 0 0 -0.31,0.84 z" />
    <path
       inkscape:connector-curvature="0"
       id="path165"
       style="fill:#153649"
       d="m 278.88,131.38 a 2.9,2.9 0 0 1 0.19,-1.1 2.37,2.37 0 0 1 0.51,-0.79 2.13,2.13 0 0 1 0.72,-0.48 2.27,2.27 0 0 1 0.84,-0.16 2.1,2.1 0 0 1 1.59,0.62 2.54,2.54 0 0 1 0.58,1.81 c 0,0.08 0,0.16 0,0.26 0,0.1 0,0.18 0,0.25 h -3 a 0.89,0.89 0 0 0 0.39,0.66 1.56,1.56 0 0 0 0.92,0.24 3.88,3.88 0 0 0 0.72,-0.07 2.75,2.75 0 0 0 0.58,-0.17 l 0.18,1.09 -0.29,0.11 -0.4,0.09 -0.47,0.07 h -0.5 a 3,3 0 0 1 -1.11,-0.19 2.17,2.17 0 0 1 -0.78,-0.52 2.06,2.06 0 0 1 -0.46,-0.78 3.1,3.1 0 0 1 -0.21,-0.94 z m 3.15,-0.51 a 1.37,1.37 0 0 0 -0.06,-0.33 0.83,0.83 0 0 0 -0.15,-0.29 0.81,0.81 0 0 0 -0.26,-0.21 0.85,0.85 0 0 0 -0.39,-0.08 0.9,0.9 0 0 0 -0.39,0.08 0.8,0.8 0 0 0 -0.27,0.2 0.9,0.9 0 0 0 -0.17,0.29 1.89,1.89 0 0 0 -0.09,0.34 z" />
  </g>
  <g
     id="g177"
     transform="translate(-4,-8)">
    <path
       inkscape:connector-curvature="0"
       id="path169"
       style="fill:#153649"
       d="m 284.43,134.57 q 0.16,0.3 0.38,0.73 0.22,0.43 0.44,0.94 0.23,0.51 0.46,1 l 0.42,1 0.42,-1 q 0.23,-0.53 0.46,-1 0.23,-0.47 0.44,-0.94 0.21,-0.44 0.38,-0.73 h 1.28 q 0.09,0.62 0.17,1.39 0.08,0.77 0.13,1.6 0.06,0.83 0.11,1.67 c 0,0.56 0.06,1.08 0.08,1.58 h -1.37 q 0,-0.91 -0.07,-2 -0.07,-1.09 -0.14,-2.16 l -0.36,0.84 -0.39,0.92 -0.37,0.88 -0.31,0.72 h -1 l -0.31,-0.72 -0.37,-0.88 -0.39,-0.92 -0.36,-0.84 q -0.09,1.09 -0.13,2.16 -0.04,1.07 -0.07,2 h -1.37 q 0,-0.74 0.09,-1.58 0.09,-0.84 0.11,-1.67 0.06,-0.83 0.14,-1.6 0.08,-0.77 0.17,-1.39 z" />
    <path
       inkscape:connector-curvature="0"
       id="path171"
       style="fill:#153649"
       d="m 295.18,138.43 a 3.07,3.07 0 0 1 -0.16,1 2.21,2.21 0 0 1 -0.47,0.79 2.1,2.1 0 0 1 -0.73,0.51 2.45,2.45 0 0 1 -1,0.18 2.42,2.42 0 0 1 -0.95,-0.18 2.1,2.1 0 0 1 -0.73,-0.51 2.31,2.31 0 0 1 -0.48,-0.79 2.93,2.93 0 0 1 -0.17,-1 2.82,2.82 0 0 1 0.18,-1 2.3,2.3 0 0 1 0.49,-0.78 2.18,2.18 0 0 1 0.74,-0.5 2.38,2.38 0 0 1 0.93,-0.18 2.4,2.4 0 0 1 0.94,0.18 2.14,2.14 0 0 1 0.73,0.5 2.3,2.3 0 0 1 0.48,0.78 2.89,2.89 0 0 1 0.2,1 z m -1.37,0 a 1.69,1.69 0 0 0 -0.25,-1 0.81,0.81 0 0 0 -0.71,-0.36 0.82,0.82 0 0 0 -0.71,0.36 1.66,1.66 0 0 0 -0.25,1 1.71,1.71 0 0 0 0.25,1 0.81,0.81 0 0 0 0.71,0.36 0.8,0.8 0 0 0 0.71,-0.36 1.73,1.73 0 0 0 0.26,-1 z" />
    <path
       inkscape:connector-curvature="0"
       id="path173"
       style="fill:#153649"
       d="m 300.4,140.65 -0.41,0.1 -0.49,0.09 -0.52,0.06 h -0.51 a 3,3 0 0 1 -1,-0.17 2.09,2.09 0 0 1 -0.77,-0.49 2.13,2.13 0 0 1 -0.48,-0.77 3,3 0 0 1 -0.17,-1 3.51,3.51 0 0 1 0.14,-1 2.26,2.26 0 0 1 0.41,-0.79 1.78,1.78 0 0 1 0.66,-0.5 2.22,2.22 0 0 1 0.9,-0.17 2.1,2.1 0 0 1 0.5,0.05 2.7,2.7 0 0 1 0.45,0.15 V 134 l 1.34,-0.22 z m -3,-2.25 a 1.64,1.64 0 0 0 0.28,1 1,1 0 0 0 0.83,0.38 h 0.33 0.25 v -2.48 a 1.16,1.16 0 0 0 -0.33,-0.14 1.59,1.59 0 0 0 -0.41,-0.05 q -0.99,0 -0.99,1.29 z" />
    <path
       inkscape:connector-curvature="0"
       id="path175"
       style="fill:#153649"
       d="m 301.43,138.47 a 2.9,2.9 0 0 1 0.19,-1.1 2.37,2.37 0 0 1 0.51,-0.79 2.12,2.12 0 0 1 0.72,-0.48 2.26,2.26 0 0 1 0.84,-0.16 2.1,2.1 0 0 1 1.59,0.62 2.54,2.54 0 0 1 0.58,1.81 c 0,0.08 0,0.16 0,0.26 0,0.1 0,0.18 0,0.25 h -3 a 0.89,0.89 0 0 0 0.39,0.66 1.56,1.56 0 0 0 0.92,0.24 3.88,3.88 0 0 0 0.72,-0.07 2.77,2.77 0 0 0 0.58,-0.17 l 0.18,1.09 -0.29,0.11 -0.4,0.09 -0.47,0.07 h -0.5 a 3,3 0 0 1 -1.11,-0.19 2.16,2.16 0 0 1 -0.78,-0.52 2,2 0 0 1 -0.46,-0.78 3.1,3.1 0 0 1 -0.21,-0.94 z m 3.15,-0.51 a 1.47,1.47 0 0 0 -0.06,-0.33 0.81,0.81 0 0 0 -0.41,-0.5 0.85,0.85 0 0 0 -0.39,-0.08 0.89,0.89 0 0 0 -0.39,0.08 0.8,0.8 0 0 0 -0.27,0.2 0.89,0.89 0 0 0 -0.17,0.29 1.89,1.89 0 0 0 -0.09,0.34 z" />
  </g>
  <g
     id="g189"
     transform="translate(0,-4)">
    <path
       inkscape:connector-curvature="0"
       id="path179"
       style="fill:#153649"
       d="m 164.16,89.57 a 2,2 0 0 0 0.49,0 0.9,0.9 0 0 0 0.31,-0.13 0.45,0.45 0 0 0 0.16,-0.2 0.72,0.72 0 0 0 0,-0.26 0.6,0.6 0 0 0 -0.29,-0.51 4.14,4.14 0 0 0 -1,-0.44 q -0.31,-0.11 -0.61,-0.25 a 2.24,2.24 0 0 1 -0.55,-0.35 1.66,1.66 0 0 1 -0.4,-0.51 1.6,1.6 0 0 1 -0.15,-0.73 1.82,1.82 0 0 1 0.16,-0.78 1.66,1.66 0 0 1 0.46,-0.59 2.09,2.09 0 0 1 0.72,-0.37 3.23,3.23 0 0 1 1,-0.13 3.81,3.81 0 0 1 1.85,0.43 l -0.41,1.11 a 3.83,3.83 0 0 0 -0.58,-0.24 2.52,2.52 0 0 0 -0.77,-0.1 1.41,1.41 0 0 0 -0.72,0.14 0.47,0.47 0 0 0 -0.22,0.43 0.49,0.49 0 0 0 0.08,0.29 0.79,0.79 0 0 0 0.23,0.21 2,2 0 0 0 0.34,0.17 l 0.43,0.16 q 0.49,0.18 0.85,0.36 a 2.26,2.26 0 0 1 0.6,0.41 1.48,1.48 0 0 1 0.36,0.55 2.2,2.2 0 0 1 0.12,0.77 1.62,1.62 0 0 1 -0.61,1.35 3,3 0 0 1 -1.84,0.48 5.16,5.16 0 0 1 -0.75,0 4.89,4.89 0 0 1 -0.59,-0.12 3.33,3.33 0 0 1 -0.44,-0.15 l -0.31,-0.15 0.4,-1.12 a 3.4,3.4 0 0 0 1.69,0.4 z" />
    <path
       inkscape:connector-curvature="0"
       id="path181"
       style="fill:#153649"
       d="m 167.56,84.72 1.34,-0.22 v 1.4 h 1.61 V 87 h -1.61 v 1.67 a 1.32,1.32 0 0 0 0.15,0.68 0.64,0.64 0 0 0 0.6,0.25 2.58,2.58 0 0 0 0.45,0 2.27,2.27 0 0 0 0.42,-0.11 l 0.19,1 a 3.84,3.84 0 0 1 -0.54,0.17 3.16,3.16 0 0 1 -0.73,0.07 2.4,2.4 0 0 1 -0.91,-0.15 1.42,1.42 0 0 1 -0.58,-0.41 1.53,1.53 0 0 1 -0.3,-0.64 3.76,3.76 0 0 1 -0.09,-0.84 z" />
    <path
       inkscape:connector-curvature="0"
       id="path183"
       style="fill:#153649"
       d="m 171.2,88.31 a 2.9,2.9 0 0 1 0.19,-1.1 2.37,2.37 0 0 1 0.51,-0.79 2.12,2.12 0 0 1 0.72,-0.48 2.26,2.26 0 0 1 0.84,-0.16 2.1,2.1 0 0 1 1.59,0.62 2.54,2.54 0 0 1 0.58,1.81 c 0,0.08 0,0.16 0,0.26 0,0.1 0,0.18 0,0.25 h -3 a 0.89,0.89 0 0 0 0.39,0.66 1.56,1.56 0 0 0 0.92,0.24 3.88,3.88 0 0 0 0.72,-0.07 2.77,2.77 0 0 0 0.58,-0.17 l 0.18,1.09 -0.29,0.11 -0.4,0.09 -0.47,0.07 h -0.5 a 3,3 0 0 1 -1.11,-0.19 2.16,2.16 0 0 1 -0.78,-0.52 2,2 0 0 1 -0.46,-0.78 3.1,3.1 0 0 1 -0.21,-0.94 z m 3.15,-0.51 a 1.47,1.47 0 0 0 -0.06,-0.33 0.81,0.81 0 0 0 -0.41,-0.5 0.85,0.85 0 0 0 -0.39,-0.08 0.89,0.89 0 0 0 -0.39,0.08 0.8,0.8 0 0 0 -0.27,0.2 0.89,0.89 0 0 0 -0.17,0.29 1.89,1.89 0 0 0 -0.09,0.34 z" />
    <path
       inkscape:connector-curvature="0"
       id="path185"
       style="fill:#153649"
       d="m 181.08,88.27 a 3.47,3.47 0 0 1 -0.13,1 2.24,2.24 0 0 1 -0.4,0.77 1.78,1.78 0 0 1 -0.65,0.5 2.1,2.1 0 0 1 -0.89,0.18 2.43,2.43 0 0 1 -0.52,-0.05 2.47,2.47 0 0 1 -0.47,-0.15 v 1.78 h -1.34 v -6.24 l 0.41,-0.1 0.49,-0.09 0.52,-0.06 h 0.51 a 2.9,2.9 0 0 1 1,0.18 2.15,2.15 0 0 1 0.77,0.5 2.11,2.11 0 0 1 0.48,0.78 3,3 0 0 1 0.22,1 z m -1.37,0 a 1.62,1.62 0 0 0 -0.28,-1 1,1 0 0 0 -0.83,-0.37 h -0.33 L 178,87 v 2.4 a 1.16,1.16 0 0 0 0.33,0.13 1.58,1.58 0 0 0 0.41,0.05 q 0.97,0.01 0.97,-1.27 z" />
    <path
       inkscape:connector-curvature="0"
       id="path187"
       style="fill:#153649"
       d="m 183.47,89.67 a 1.34,1.34 0 0 0 0.52,-0.07 0.28,0.28 0 0 0 0.15,-0.28 0.34,0.34 0 0 0 -0.2,-0.28 3.75,3.75 0 0 0 -0.6,-0.27 6,6 0 0 1 -0.57,-0.24 1.67,1.67 0 0 1 -0.44,-0.3 1.21,1.21 0 0 1 -0.28,-0.42 1.54,1.54 0 0 1 -0.1,-0.58 1.27,1.27 0 0 1 0.5,-1.05 2.16,2.16 0 0 1 1.36,-0.39 4.38,4.38 0 0 1 0.83,0.08 3.94,3.94 0 0 1 0.63,0.17 l -0.23,1 -0.51,-0.14 a 2.76,2.76 0 0 0 -0.62,-0.06 q -0.63,0 -0.63,0.35 a 0.35,0.35 0 0 0 0,0.14 0.3,0.3 0 0 0 0.11,0.12 l 0.22,0.13 0.36,0.15 a 5.49,5.49 0 0 1 0.73,0.32 1.75,1.75 0 0 1 0.45,0.34 1.06,1.06 0 0 1 0.23,0.41 1.81,1.81 0 0 1 0.07,0.52 1.2,1.2 0 0 1 -0.45,1.08 2.63,2.63 0 0 1 -1.49,0.36 4.2,4.2 0 0 1 -1.63,-0.29 l 0.23,-1.09 a 4.39,4.39 0 0 0 0.7,0.21 3.4,3.4 0 0 0 0.66,0.08 z" />
  </g>
  <g
     id="g201"
     transform="translate(0,-4)">
    <path
       inkscape:connector-curvature="0"
       id="path191"
       style="fill:#153649"
       d="m 219.71,89.57 a 2,2 0 0 0 0.49,0 0.9,0.9 0 0 0 0.31,-0.13 0.45,0.45 0 0 0 0.16,-0.2 0.72,0.72 0 0 0 0,-0.26 0.6,0.6 0 0 0 -0.29,-0.51 4.13,4.13 0 0 0 -1,-0.44 q -0.31,-0.11 -0.61,-0.25 a 2.23,2.23 0 0 1 -0.55,-0.35 1.66,1.66 0 0 1 -0.4,-0.51 1.6,1.6 0 0 1 -0.15,-0.73 1.83,1.83 0 0 1 0.16,-0.78 1.66,1.66 0 0 1 0.46,-0.59 2.1,2.1 0 0 1 0.72,-0.37 3.23,3.23 0 0 1 1,-0.13 3.81,3.81 0 0 1 1.85,0.43 l -0.41,1.11 a 3.83,3.83 0 0 0 -0.58,-0.24 2.52,2.52 0 0 0 -0.77,-0.1 1.41,1.41 0 0 0 -0.72,0.14 0.47,0.47 0 0 0 -0.22,0.43 0.49,0.49 0 0 0 0.08,0.29 0.77,0.77 0 0 0 0.23,0.21 2,2 0 0 0 0.34,0.17 l 0.43,0.16 q 0.49,0.18 0.85,0.36 a 2.26,2.26 0 0 1 0.6,0.41 1.48,1.48 0 0 1 0.36,0.55 2.2,2.2 0 0 1 0.12,0.77 1.62,1.62 0 0 1 -0.61,1.35 3,3 0 0 1 -1.84,0.48 5.15,5.15 0 0 1 -0.75,0 4.9,4.9 0 0 1 -0.59,-0.12 3.32,3.32 0 0 1 -0.44,-0.15 l -0.31,-0.15 0.4,-1.12 a 3.4,3.4 0 0 0 1.69,0.4 z" />
    <path
       inkscape:connector-curvature="0"
       id="path193"
       style="fill:#153649"
       d="m 223.11,84.72 1.34,-0.22 v 1.4 h 1.61 V 87 h -1.61 v 1.67 a 1.32,1.32 0 0 0 0.15,0.68 0.64,0.64 0 0 0 0.6,0.25 2.58,2.58 0 0 0 0.45,0 2.27,2.27 0 0 0 0.42,-0.11 l 0.19,1 a 3.84,3.84 0 0 1 -0.54,0.17 3.16,3.16 0 0 1 -0.73,0.07 2.4,2.4 0 0 1 -0.91,-0.15 1.42,1.42 0 0 1 -0.58,-0.41 1.53,1.53 0 0 1 -0.3,-0.64 3.76,3.76 0 0 1 -0.09,-0.84 z" />
    <path
       inkscape:connector-curvature="0"
       id="path195"
       style="fill:#153649"
       d="m 226.74,88.31 a 2.9,2.9 0 0 1 0.19,-1.1 2.37,2.37 0 0 1 0.51,-0.79 2.12,2.12 0 0 1 0.72,-0.48 2.26,2.26 0 0 1 0.84,-0.16 2.1,2.1 0 0 1 1.59,0.62 2.54,2.54 0 0 1 0.58,1.81 c 0,0.08 0,0.16 0,0.26 0,0.1 0,0.18 0,0.25 h -3 a 0.89,0.89 0 0 0 0.39,0.66 1.56,1.56 0 0 0 0.92,0.24 3.88,3.88 0 0 0 0.72,-0.07 2.77,2.77 0 0 0 0.58,-0.17 l 0.18,1.09 -0.29,0.11 -0.4,0.09 -0.47,0.07 h -0.5 a 3,3 0 0 1 -1.11,-0.19 2.16,2.16 0 0 1 -0.78,-0.52 2,2 0 0 1 -0.46,-0.78 3.1,3.1 0 0 1 -0.21,-0.94 z m 3.15,-0.51 a 1.47,1.47 0 0 0 -0.06,-0.33 0.81,0.81 0 0 0 -0.41,-0.5 0.85,0.85 0 0 0 -0.39,-0.08 0.89,0.89 0 0 0 -0.39,0.08 0.8,0.8 0 0 0 -0.27,0.2 0.89,0.89 0 0 0 -0.17,0.29 1.89,1.89 0 0 0 -0.09,0.34 z" />
    <path
       inkscape:connector-curvature="0"
       id="path197"
       style="fill:#153649"
       d="m 236.63,88.27 a 3.47,3.47 0 0 1 -0.13,1 2.24,2.24 0 0 1 -0.4,0.77 1.78,1.78 0 0 1 -0.65,0.5 2.1,2.1 0 0 1 -0.89,0.18 2.43,2.43 0 0 1 -0.52,-0.05 2.47,2.47 0 0 1 -0.47,-0.15 v 1.78 h -1.34 v -6.24 l 0.41,-0.1 0.49,-0.09 0.52,-0.06 h 0.51 a 2.9,2.9 0 0 1 1,0.18 2.15,2.15 0 0 1 0.77,0.5 2.11,2.11 0 0 1 0.48,0.78 3,3 0 0 1 0.22,1 z m -1.37,0 a 1.62,1.62 0 0 0 -0.28,-1 1,1 0 0 0 -0.83,-0.37 h -0.33 -0.25 v 2.5 a 1.16,1.16 0 0 0 0.33,0.13 1.58,1.58 0 0 0 0.41,0.05 q 0.95,0.01 0.95,-1.27 z" />
    <path
       inkscape:connector-curvature="0"
       id="path199"
       style="fill:#153649"
       d="m 239,89.67 a 1.34,1.34 0 0 0 0.52,-0.07 0.28,0.28 0 0 0 0.15,-0.28 0.34,0.34 0 0 0 -0.2,-0.28 3.75,3.75 0 0 0 -0.6,-0.27 6,6 0 0 1 -0.57,-0.24 1.67,1.67 0 0 1 -0.44,-0.3 1.21,1.21 0 0 1 -0.28,-0.42 1.54,1.54 0 0 1 -0.1,-0.58 1.27,1.27 0 0 1 0.5,-1.05 2.16,2.16 0 0 1 1.36,-0.39 4.38,4.38 0 0 1 0.83,0.08 3.94,3.94 0 0 1 0.63,0.17 l -0.23,1 -0.51,-0.14 a 2.76,2.76 0 0 0 -0.62,-0.06 q -0.63,0 -0.63,0.35 a 0.35,0.35 0 0 0 0,0.14 0.3,0.3 0 0 0 0.11,0.12 l 0.22,0.13 0.36,0.15 a 5.49,5.49 0 0 1 0.73,0.32 1.75,1.75 0 0 1 0.45,0.34 1.06,1.06 0 0 1 0.23,0.41 1.81,1.81 0 0 1 0.07,0.52 1.2,1.2 0 0 1 -0.53,1.06 2.63,2.63 0 0 1 -1.49,0.36 4.2,4.2 0 0 1 -1.63,-0.29 l 0.23,-1.09 a 4.39,4.39 0 0 0 0.7,0.21 3.4,3.4 0 0 0 0.74,0.1 z" />
  </g>
  <g
     id="g213"
     transform="translate(0,-4)">
    <path
       inkscape:connector-curvature="0"
       id="path203"
       style="fill:#153649"
       d="m 275.25,89.57 a 2,2 0 0 0 0.49,0 0.9,0.9 0 0 0 0.31,-0.13 0.45,0.45 0 0 0 0.16,-0.2 0.72,0.72 0 0 0 0,-0.26 0.6,0.6 0 0 0 -0.29,-0.51 4.13,4.13 0 0 0 -1,-0.44 q -0.31,-0.11 -0.61,-0.25 a 2.23,2.23 0 0 1 -0.55,-0.35 1.66,1.66 0 0 1 -0.4,-0.51 1.6,1.6 0 0 1 -0.15,-0.73 1.83,1.83 0 0 1 0.16,-0.78 1.66,1.66 0 0 1 0.46,-0.59 2.1,2.1 0 0 1 0.72,-0.37 3.23,3.23 0 0 1 1,-0.13 3.81,3.81 0 0 1 1.85,0.43 l -0.4,1.04 a 3.83,3.83 0 0 0 -0.58,-0.24 2.52,2.52 0 0 0 -0.77,-0.1 1.41,1.41 0 0 0 -0.72,0.14 0.47,0.47 0 0 0 -0.22,0.43 0.49,0.49 0 0 0 0.08,0.29 0.77,0.77 0 0 0 0.23,0.21 2,2 0 0 0 0.34,0.17 l 0.43,0.16 q 0.49,0.18 0.85,0.36 a 2.26,2.26 0 0 1 0.6,0.41 1.48,1.48 0 0 1 0.36,0.55 2.2,2.2 0 0 1 0.12,0.77 1.62,1.62 0 0 1 -0.61,1.35 3,3 0 0 1 -1.84,0.48 5.15,5.15 0 0 1 -0.75,0 4.9,4.9 0 0 1 -0.59,-0.12 3.32,3.32 0 0 1 -0.44,-0.15 l -0.31,-0.15 0.4,-1.12 a 3.4,3.4 0 0 0 1.69,0.4 z" />
    <path
       inkscape:connector-curvature="0"
       id="path205"
       style="fill:#153649"
       d="m 278.65,84.72 1.34,-0.22 v 1.4 h 1.61 V 87 H 280 v 1.67 a 1.32,1.32 0 0 0 0.15,0.68 0.64,0.64 0 0 0 0.6,0.25 2.58,2.58 0 0 0 0.45,0 2.27,2.27 0 0 0 0.42,-0.11 l 0.19,1 a 3.84,3.84 0 0 1 -0.54,0.17 3.16,3.16 0 0 1 -0.73,0.07 2.4,2.4 0 0 1 -0.91,-0.15 1.42,1.42 0 0 1 -0.58,-0.41 1.53,1.53 0 0 1 -0.3,-0.64 3.76,3.76 0 0 1 -0.09,-0.84 z" />
    <path
       inkscape:connector-curvature="0"
       id="path207"
       style="fill:#153649"
       d="m 282.29,88.31 a 2.9,2.9 0 0 1 0.19,-1.1 2.37,2.37 0 0 1 0.51,-0.79 2.12,2.12 0 0 1 0.72,-0.48 2.26,2.26 0 0 1 0.84,-0.16 2.1,2.1 0 0 1 1.59,0.62 2.54,2.54 0 0 1 0.58,1.81 c 0,0.08 0,0.16 0,0.26 0,0.1 0,0.18 0,0.25 h -3 a 0.89,0.89 0 0 0 0.39,0.66 1.56,1.56 0 0 0 0.92,0.24 3.88,3.88 0 0 0 0.72,-0.07 2.77,2.77 0 0 0 0.58,-0.17 l 0.18,1.09 -0.29,0.11 -0.4,0.09 -0.47,0.07 h -0.5 a 3,3 0 0 1 -1.11,-0.19 2.16,2.16 0 0 1 -0.78,-0.52 2,2 0 0 1 -0.46,-0.78 3.1,3.1 0 0 1 -0.21,-0.94 z m 3.15,-0.51 A 1.47,1.47 0 0 0 285.38,87.47 0.81,0.81 0 0 0 285,87 a 0.85,0.85 0 0 0 -0.39,-0.08 0.89,0.89 0 0 0 -0.39,0.08 0.8,0.8 0 0 0 -0.27,0.2 0.89,0.89 0 0 0 -0.17,0.29 1.89,1.89 0 0 0 -0.09,0.34 z" />
    <path
       inkscape:connector-curvature="0"
       id="path209"
       style="fill:#153649"
       d="m 292.17,88.27 a 3.47,3.47 0 0 1 -0.13,1 2.24,2.24 0 0 1 -0.4,0.77 1.78,1.78 0 0 1 -0.65,0.5 2.1,2.1 0 0 1 -0.89,0.18 2.43,2.43 0 0 1 -0.52,-0.05 2.47,2.47 0 0 1 -0.47,-0.15 v 1.78 h -1.34 v -6.24 l 0.41,-0.1 0.49,-0.09 0.52,-0.06 h 0.51 a 2.9,2.9 0 0 1 1,0.18 2.15,2.15 0 0 1 0.77,0.5 2.11,2.11 0 0 1 0.48,0.78 3,3 0 0 1 0.22,1 z m -1.37,0 a 1.62,1.62 0 0 0 -0.28,-1 1,1 0 0 0 -0.83,-0.37 h -0.33 -0.25 v 2.5 a 1.16,1.16 0 0 0 0.33,0.13 1.58,1.58 0 0 0 0.41,0.05 q 0.95,0.01 0.95,-1.27 z" />
    <path
       inkscape:connector-curvature="0"
       id="path211"
       style="fill:#153649"
       d="m 294.56,89.67 a 1.34,1.34 0 0 0 0.52,-0.07 0.28,0.28 0 0 0 0.15,-0.28 A 0.34,0.34 0 0 0 295,89 a 3.75,3.75 0 0 0 -0.6,-0.27 6,6 0 0 1 -0.57,-0.24 1.67,1.67 0 0 1 -0.44,-0.3 1.21,1.21 0 0 1 -0.28,-0.42 1.54,1.54 0 0 1 -0.1,-0.58 1.27,1.27 0 0 1 0.5,-1.05 2.16,2.16 0 0 1 1.36,-0.39 4.38,4.38 0 0 1 0.83,0.08 3.94,3.94 0 0 1 0.63,0.17 l -0.23,1 -0.51,-0.14 a 2.76,2.76 0 0 0 -0.62,-0.06 q -0.63,0 -0.63,0.35 a 0.35,0.35 0 0 0 0,0.14 0.3,0.3 0 0 0 0.11,0.12 l 0.22,0.13 0.36,0.15 a 5.49,5.49 0 0 1 0.73,0.32 1.75,1.75 0 0 1 0.45,0.34 1.06,1.06 0 0 1 0.23,0.41 1.81,1.81 0 0 1 0.07,0.52 1.2,1.2 0 0 1 -0.51,1.12 2.63,2.63 0 0 1 -1.49,0.36 4.2,4.2 0 0 1 -1.63,-0.29 l 0.23,-1.09 a 4.39,4.39 0 0 0 0.7,0.21 3.4,3.4 0 0 0 0.75,0.08 z" />
  </g>
  <g
     id="g225">
    <path
       inkscape:connector-curvature="0"
       id="path215"
       style="fill:#153649"
       d="m 43.86,141.44 a 3.87,3.87 0 0 1 2.15,0.5 1.74,1.74 0 0 1 0.75,1.55 1.76,1.76 0 0 1 -0.3,1.07 2,2 0 0 1 -0.87,0.64 q 0.19,0.23 0.4,0.54 0.21,0.31 0.41,0.63 0.2,0.33 0.39,0.68 0.19,0.35 0.35,0.7 h -1.58 l -0.35,-0.62 q -0.18,-0.31 -0.36,-0.61 l -0.37,-0.56 q -0.18,-0.27 -0.36,-0.48 h -0.69 v 2.28 H 42 v -6.16 a 7.91,7.91 0 0 1 0.95,-0.13 q 0.52,-0.03 0.91,-0.03 z m 0.08,1.2 h -0.27 -0.23 v 1.69 h 0.4 a 2.39,2.39 0 0 0 1.13,-0.2 0.72,0.72 0 0 0 0.34,-0.68 0.69,0.69 0 0 0 -0.35,-0.65 2.14,2.14 0 0 0 -1.02,-0.16 z" />
    <path
       inkscape:connector-curvature="0"
       id="path217"
       style="fill:#153649"
       d="m 47.49,145.42 a 2.89,2.89 0 0 1 0.19,-1.1 2.37,2.37 0 0 1 0.51,-0.79 2.12,2.12 0 0 1 0.72,-0.48 2.27,2.27 0 0 1 0.84,-0.16 2.09,2.09 0 0 1 1.59,0.62 2.54,2.54 0 0 1 0.58,1.81 c 0,0.08 0,0.16 0,0.26 0,0.1 0,0.18 0,0.25 h -3 a 0.89,0.89 0 0 0 0.39,0.66 1.56,1.56 0 0 0 0.92,0.24 3.88,3.88 0 0 0 0.72,-0.07 2.77,2.77 0 0 0 0.58,-0.17 l 0.18,1.09 -0.29,0.11 -0.4,0.09 -0.47,0.07 h -0.5 a 3,3 0 0 1 -1.11,-0.19 2.16,2.16 0 0 1 -0.78,-0.52 2,2 0 0 1 -0.46,-0.78 3.08,3.08 0 0 1 -0.21,-0.94 z m 3.15,-0.51 a 1.41,1.41 0 0 0 -0.06,-0.33 0.83,0.83 0 0 0 -0.15,-0.29 0.81,0.81 0 0 0 -0.26,-0.21 0.85,0.85 0 0 0 -0.39,-0.08 0.89,0.89 0 0 0 -0.39,0.08 0.79,0.79 0 0 0 -0.27,0.2 0.89,0.89 0 0 0 -0.17,0.29 1.89,1.89 0 0 0 -0.09,0.34 z" />
    <path
       inkscape:connector-curvature="0"
       id="path219"
       style="fill:#153649"
       d="m 54.33,146.79 a 1.34,1.34 0 0 0 0.52,-0.07 0.28,0.28 0 0 0 0.15,-0.28 0.34,0.34 0 0 0 -0.2,-0.28 3.76,3.76 0 0 0 -0.6,-0.27 6,6 0 0 1 -0.57,-0.24 1.67,1.67 0 0 1 -0.44,-0.3 1.22,1.22 0 0 1 -0.28,-0.42 1.54,1.54 0 0 1 -0.1,-0.58 1.27,1.27 0 0 1 0.5,-1.05 2.15,2.15 0 0 1 1.36,-0.39 4.38,4.38 0 0 1 0.83,0.08 3.94,3.94 0 0 1 0.63,0.17 l -0.23,1 -0.51,-0.14 a 2.76,2.76 0 0 0 -0.62,-0.06 q -0.63,0 -0.63,0.35 a 0.36,0.36 0 0 0 0,0.14 0.31,0.31 0 0 0 0.11,0.12 l 0.22,0.13 0.36,0.15 a 5.51,5.51 0 0 1 0.73,0.32 1.73,1.73 0 0 1 0.45,0.34 1.06,1.06 0 0 1 0.23,0.41 1.81,1.81 0 0 1 0.07,0.52 1.2,1.2 0 0 1 -0.53,1.06 2.62,2.62 0 0 1 -1.49,0.36 4.29,4.29 0 0 1 -1,-0.11 4.22,4.22 0 0 1 -0.58,-0.18 l 0.23,-1.09 a 4.38,4.38 0 0 0 0.7,0.21 3.4,3.4 0 0 0 0.69,0.1 z" />
    <path
       inkscape:connector-curvature="0"
       id="path221"
       style="fill:#153649"
       d="m 57.11,145.42 a 2.89,2.89 0 0 1 0.19,-1.1 2.37,2.37 0 0 1 0.51,-0.79 2.12,2.12 0 0 1 0.72,-0.48 2.27,2.27 0 0 1 0.84,-0.16 2.09,2.09 0 0 1 1.59,0.62 2.54,2.54 0 0 1 0.58,1.81 c 0,0.08 0,0.16 0,0.26 0,0.1 0,0.18 0,0.25 h -3 a 0.89,0.89 0 0 0 0.39,0.66 1.56,1.56 0 0 0 0.92,0.24 3.88,3.88 0 0 0 0.72,-0.07 2.77,2.77 0 0 0 0.58,-0.17 l 0.18,1.09 -0.29,0.11 -0.4,0.09 -0.47,0.07 h -0.5 a 3,3 0 0 1 -1.11,-0.19 2.16,2.16 0 0 1 -0.78,-0.52 2,2 0 0 1 -0.46,-0.78 3.08,3.08 0 0 1 -0.21,-0.94 z m 3.15,-0.51 a 1.41,1.41 0 0 0 -0.06,-0.33 0.83,0.83 0 0 0 -0.15,-0.29 0.81,0.81 0 0 0 -0.26,-0.21 0.85,0.85 0 0 0 -0.39,-0.08 0.89,0.89 0 0 0 -0.39,0.08 0.79,0.79 0 0 0 -0.27,0.2 0.89,0.89 0 0 0 -0.17,0.29 1.89,1.89 0 0 0 -0.09,0.34 z" />
    <path
       inkscape:connector-curvature="0"
       id="path223"
       style="fill:#153649"
       d="m 62.55,141.84 1.34,-0.22 V 143 h 1.61 v 1.12 h -1.61 v 1.67 a 1.32,1.32 0 0 0 0.15,0.68 0.64,0.64 0 0 0 0.6,0.25 2.58,2.58 0 0 0 0.45,0 2.26,2.26 0 0 0 0.42,-0.11 l 0.19,1 a 3.82,3.82 0 0 1 -0.54,0.17 3.16,3.16 0 0 1 -0.73,0.07 2.4,2.4 0 0 1 -0.91,-0.15 1.43,1.43 0 0 1 -0.58,-0.41 1.54,1.54 0 0 1 -0.3,-0.64 3.79,3.79 0 0 1 -0.09,-0.84 z" />
  </g>
  <g
     id="g241">
    <path
       inkscape:connector-curvature="0"
       id="path227"
       style="fill:#153649"
       d="m 66.95,343.19 a 3,3 0 0 1 -2.32,-0.85 3.37,3.37 0 0 1 -0.8,-2.4 3.69,3.69 0 0 1 0.24,-1.38 3,3 0 0 1 0.67,-1 2.78,2.78 0 0 1 1,-0.63 3.62,3.62 0 0 1 1.27,-0.22 4.06,4.06 0 0 1 0.72,0.06 4.71,4.71 0 0 1 0.57,0.13 2.8,2.8 0 0 1 0.41,0.16 l 0.23,0.13 -0.4,1.13 a 3.46,3.46 0 0 0 -0.67,-0.26 3.19,3.19 0 0 0 -0.87,-0.11 1.91,1.91 0 0 0 -0.63,0.11 1.43,1.43 0 0 0 -0.55,0.35 1.73,1.73 0 0 0 -0.38,0.62 2.6,2.6 0 0 0 -0.14,0.92 3.28,3.28 0 0 0 0.09,0.81 1.7,1.7 0 0 0 0.31,0.64 1.47,1.47 0 0 0 0.55,0.43 2,2 0 0 0 0.83,0.16 3.71,3.71 0 0 0 0.55,0 l 0.43,-0.08 0.33,-0.11 0.26,-0.12 0.39,1.13 a 3.27,3.27 0 0 1 -0.84,0.32 4.85,4.85 0 0 1 -1.25,0.06 z" />
    <path
       inkscape:connector-curvature="0"
       id="path229"
       style="fill:#153649"
       d="m 71.73,343.16 a 3.34,3.34 0 0 1 -0.95,-0.13 1.41,1.41 0 0 1 -0.58,-0.33 1.09,1.09 0 0 1 -0.29,-0.51 2.76,2.76 0 0 1 -0.08,-0.68 v -5.21 l 1.34,-0.22 v 5.16 a 1.77,1.77 0 0 0 0,0.32 0.56,0.56 0 0 0 0.1,0.24 0.55,0.55 0 0 0 0.22,0.16 1.2,1.2 0 0 0 0.39,0.08 z" />
    <path
       inkscape:connector-curvature="0"
       id="path231"
       style="fill:#153649"
       d="m 77.12,340.69 a 3.08,3.08 0 0 1 -0.16,1 2.22,2.22 0 0 1 -0.47,0.79 2.1,2.1 0 0 1 -0.73,0.51 2.61,2.61 0 0 1 -1.91,0 2.09,2.09 0 0 1 -0.73,-0.51 2.32,2.32 0 0 1 -0.48,-0.79 2.93,2.93 0 0 1 -0.17,-1 2.83,2.83 0 0 1 0.18,-1 2.3,2.3 0 0 1 0.49,-0.78 2.18,2.18 0 0 1 0.74,-0.5 2.53,2.53 0 0 1 1.87,0 2.13,2.13 0 0 1 0.73,0.5 2.3,2.3 0 0 1 0.48,0.78 2.9,2.9 0 0 1 0.16,1 z m -1.37,0 a 1.69,1.69 0 0 0 -0.25,-1 0.81,0.81 0 0 0 -0.71,-0.36 0.82,0.82 0 0 0 -0.71,0.36 1.66,1.66 0 0 0 -0.25,1 1.71,1.71 0 0 0 0.25,1 0.81,0.81 0 0 0 0.71,0.36 0.8,0.8 0 0 0 0.71,-0.36 1.73,1.73 0 0 0 0.25,-1 z" />
    <path
       inkscape:connector-curvature="0"
       id="path233"
       style="fill:#153649"
       d="m 77.93,340.7 a 2.8,2.8 0 0 1 0.17,-1 2.27,2.27 0 0 1 1.25,-1.33 2.53,2.53 0 0 1 1,-0.2 3.32,3.32 0 0 1 0.69,0.07 3.36,3.36 0 0 1 0.61,0.19 l -0.28,1.07 -0.41,-0.13 a 2.16,2.16 0 0 0 -0.5,-0.05 1.06,1.06 0 0 0 -0.89,0.37 1.52,1.52 0 0 0 -0.29,1 1.57,1.57 0 0 0 0.27,1 1.15,1.15 0 0 0 1,0.35 3.26,3.26 0 0 0 0.52,0 2.27,2.27 0 0 0 0.51,-0.14 l 0.19,1.1 a 3.11,3.11 0 0 1 -0.58,0.17 3.87,3.87 0 0 1 -0.77,0.07 2.92,2.92 0 0 1 -1.12,-0.19 2.1,2.1 0 0 1 -0.77,-0.53 2.05,2.05 0 0 1 -0.44,-0.79 3.33,3.33 0 0 1 -0.16,-1.03 z" />
    <path
       inkscape:connector-curvature="0"
       id="path235"
       style="fill:#153649"
       d="m 84,340 0.41,-0.45 0.41,-0.46 0.37,-0.43 0.3,-0.36 h 1.59 l -0.93,1 q -0.45,0.5 -1,1 a 6.22,6.22 0 0 1 0.56,0.58 q 0.29,0.34 0.56,0.7 0.27,0.36 0.5,0.72 0.22,0.36 0.38,0.66 H 85.6 l -0.33,-0.52 q -0.18,-0.28 -0.39,-0.57 c -0.14,-0.19 -0.28,-0.37 -0.44,-0.55 A 3.64,3.64 0 0 0 84,341 v 2.08 h -1.35 v -6.78 l 1.34,-0.22 z" />
    <path
       inkscape:connector-curvature="0"
       id="path237"
       style="fill:#153649"
       d="m 90.11,336.83 h 1.4 v 6.24 h -1.4 z" />
    <path
       inkscape:connector-curvature="0"
       id="path239"
       style="fill:#153649"
       d="m 92.87,338.5 a 7.51,7.51 0 0 1 0.88,-0.18 7.29,7.29 0 0 1 1.13,-0.08 2.75,2.75 0 0 1 1,0.16 1.5,1.5 0 0 1 0.63,0.45 1.75,1.75 0 0 1 0.33,0.68 3.65,3.65 0 0 1 0.1,0.88 v 2.67 h -1.33 v -2.51 a 1.81,1.81 0 0 0 -0.17,-0.92 0.7,0.7 0 0 0 -0.64,-0.27 h -0.3 -0.29 v 3.65 h -1.34 z" />
  </g>
  <g
     id="g249">
    <path
       inkscape:connector-curvature="0"
       id="path243"
       style="fill:#153649"
       d="m 240.94,339.95 a 3.83,3.83 0 0 1 -0.24,1.41 2.88,2.88 0 0 1 -0.65,1 2.68,2.68 0 0 1 -1,0.62 3.59,3.59 0 0 1 -1.23,0.21 3.5,3.5 0 0 1 -1.21,-0.21 2.78,2.78 0 0 1 -1,-0.62 2.9,2.9 0 0 1 -0.67,-1 3.77,3.77 0 0 1 -0.24,-1.41 3.66,3.66 0 0 1 0.25,-1.41 3,3 0 0 1 0.68,-1 2.8,2.8 0 0 1 1,-0.62 3.38,3.38 0 0 1 1.18,-0.21 3.47,3.47 0 0 1 1.21,0.21 2.75,2.75 0 0 1 1,0.62 3,3 0 0 1 0.67,1 3.78,3.78 0 0 1 0.25,1.41 z m -4.76,0 a 2.83,2.83 0 0 0 0.11,0.83 1.88,1.88 0 0 0 0.32,0.63 1.43,1.43 0 0 0 0.52,0.41 1.78,1.78 0 0 0 1.4,0 1.42,1.42 0 0 0 0.52,-0.41 1.9,1.9 0 0 0 0.32,-0.63 2.86,2.86 0 0 0 0.11,-0.83 2.91,2.91 0 0 0 -0.11,-0.83 1.89,1.89 0 0 0 -0.32,-0.64 1.43,1.43 0 0 0 -0.52,-0.41 1.63,1.63 0 0 0 -0.7,-0.14 1.6,1.6 0 0 0 -0.7,0.15 1.49,1.49 0 0 0 -0.52,0.41 1.88,1.88 0 0 0 -0.32,0.64 2.84,2.84 0 0 0 -0.11,0.82 z" />
    <path
       inkscape:connector-curvature="0"
       id="path245"
       style="fill:#153649"
       d="m 246.06,342.91 a 7.48,7.48 0 0 1 -0.88,0.18 7.29,7.29 0 0 1 -1.13,0.08 2.69,2.69 0 0 1 -1,-0.16 1.51,1.51 0 0 1 -0.63,-0.45 1.77,1.77 0 0 1 -0.33,-0.7 3.74,3.74 0 0 1 -0.1,-0.89 v -2.64 h 1.34 v 2.48 a 1.91,1.91 0 0 0 0.17,0.94 0.68,0.68 0 0 0 0.64,0.29 h 0.31 0.29 v -3.65 h 1.34 z" />
    <path
       inkscape:connector-curvature="0"
       id="path247"
       style="fill:#153649"
       d="m 247.28,337.16 1.34,-0.22 v 1.39 h 1.61 v 1.12 h -1.61 v 1.67 a 1.32,1.32 0 0 0 0.15,0.67 0.64,0.64 0 0 0 0.6,0.25 2.63,2.63 0 0 0 0.45,0 2.26,2.26 0 0 0 0.42,-0.11 l 0.19,1 a 3.91,3.91 0 0 1 -0.54,0.17 3.16,3.16 0 0 1 -0.73,0.07 2.39,2.39 0 0 1 -0.91,-0.15 1.42,1.42 0 0 1 -0.58,-0.41 1.53,1.53 0 0 1 -0.3,-0.64 3.76,3.76 0 0 1 -0.09,-0.84 z" />
  </g>
</svg>
